%TF.GenerationSoftware,KiCad,Pcbnew,(6.0.7)*%
%TF.CreationDate,2022-08-25T14:46:56-07:00*%
%TF.ProjectId,mini_consolev2,6d696e69-5f63-46f6-9e73-6f6c6576322e,rev?*%
%TF.SameCoordinates,Original*%
%TF.FileFunction,Soldermask,Bot*%
%TF.FilePolarity,Negative*%
%FSLAX46Y46*%
G04 Gerber Fmt 4.6, Leading zero omitted, Abs format (unit mm)*
G04 Created by KiCad (PCBNEW (6.0.7)) date 2022-08-25 14:46:56*
%MOMM*%
%LPD*%
G01*
G04 APERTURE LIST*
%ADD10C,2.000000*%
%ADD11C,0.700000*%
%ADD12O,1.050000X2.100000*%
%ADD13R,1.700000X1.700000*%
%ADD14O,1.700000X1.700000*%
%ADD15R,1.000000X1.000000*%
%ADD16O,1.000000X1.000000*%
G04 APERTURE END LIST*
D10*
%TO.C,SW1*%
X193334000Y-77852000D03*
X186834000Y-77852000D03*
X186834000Y-82352000D03*
X193334000Y-82352000D03*
%TD*%
%TO.C,SW3*%
X193334000Y-93852000D03*
X186834000Y-93852000D03*
X193334000Y-98352000D03*
X186834000Y-98352000D03*
%TD*%
D11*
%TO.C,J4*%
X162390000Y-67166250D03*
X168170000Y-67166250D03*
D12*
X169600000Y-67696250D03*
X160960000Y-67696250D03*
X169600000Y-63516250D03*
X160960000Y-63516250D03*
%TD*%
D10*
%TO.C,SW4*%
X177834000Y-85852000D03*
X184334000Y-85852000D03*
X184334000Y-90352000D03*
X177834000Y-90352000D03*
%TD*%
D13*
%TO.C,J1*%
X144475000Y-65325000D03*
D14*
X144475000Y-67865000D03*
X141935000Y-65325000D03*
X141935000Y-67865000D03*
X139395000Y-65325000D03*
X139395000Y-67865000D03*
X136855000Y-65325000D03*
X136855000Y-67865000D03*
X134315000Y-65325000D03*
X134315000Y-67865000D03*
%TD*%
D15*
%TO.C,J3*%
X207010000Y-75555000D03*
D16*
X207010000Y-76825000D03*
X207010000Y-78095000D03*
X207010000Y-79365000D03*
X207010000Y-80635000D03*
X207010000Y-81905000D03*
X207010000Y-83175000D03*
X207010000Y-84445000D03*
X207010000Y-85715000D03*
X207010000Y-86985000D03*
X207010000Y-88255000D03*
X207010000Y-89525000D03*
X207010000Y-90795000D03*
X207010000Y-92065000D03*
X207010000Y-93335000D03*
X207010000Y-94605000D03*
X207010000Y-95875000D03*
X207010000Y-97145000D03*
X207010000Y-98415000D03*
X207010000Y-99685000D03*
%TD*%
D10*
%TO.C,SW2*%
X202334000Y-85852000D03*
X195834000Y-85852000D03*
X195834000Y-90352000D03*
X202334000Y-90352000D03*
%TD*%
D15*
%TO.C,J2*%
X128600000Y-75325000D03*
D16*
X128600000Y-76595000D03*
X128600000Y-77865000D03*
X128600000Y-79135000D03*
X128600000Y-80405000D03*
X128600000Y-81675000D03*
X128600000Y-82945000D03*
X128600000Y-84215000D03*
X128600000Y-85485000D03*
X128600000Y-86755000D03*
X128600000Y-88025000D03*
X128600000Y-89295000D03*
X128600000Y-90565000D03*
X128600000Y-91835000D03*
X128600000Y-93105000D03*
X128600000Y-94375000D03*
X128600000Y-95645000D03*
X128600000Y-96915000D03*
X128600000Y-98185000D03*
X128600000Y-99455000D03*
%TD*%
M02*
