%TF.GenerationSoftware,KiCad,Pcbnew,(6.0.7)*%
%TF.CreationDate,2022-08-26T02:15:04-07:00*%
%TF.ProjectId,mini_consolev2,6d696e69-5f63-46f6-9e73-6f6c6576322e,rev?*%
%TF.SameCoordinates,Original*%
%TF.FileFunction,Legend,Bot*%
%TF.FilePolarity,Positive*%
%FSLAX46Y46*%
G04 Gerber Fmt 4.6, Leading zero omitted, Abs format (unit mm)*
G04 Created by KiCad (PCBNEW (6.0.7)) date 2022-08-26 02:15:04*
%MOMM*%
%LPD*%
G01*
G04 APERTURE LIST*
%ADD10C,0.300000*%
%ADD11C,0.150000*%
G04 APERTURE END LIST*
D10*
X207028571Y-62278571D02*
X207028571Y-63350000D01*
X207100000Y-63564285D01*
X207242857Y-63707142D01*
X207457142Y-63778571D01*
X207600000Y-63778571D01*
X205600000Y-63778571D02*
X206314285Y-63778571D01*
X206314285Y-62278571D01*
X204242857Y-63635714D02*
X204314285Y-63707142D01*
X204528571Y-63778571D01*
X204671428Y-63778571D01*
X204885714Y-63707142D01*
X205028571Y-63564285D01*
X205100000Y-63421428D01*
X205171428Y-63135714D01*
X205171428Y-62921428D01*
X205100000Y-62635714D01*
X205028571Y-62492857D01*
X204885714Y-62350000D01*
X204671428Y-62278571D01*
X204528571Y-62278571D01*
X204314285Y-62350000D01*
X204242857Y-62421428D01*
X203171428Y-62278571D02*
X203171428Y-63350000D01*
X203242857Y-63564285D01*
X203385714Y-63707142D01*
X203600000Y-63778571D01*
X203742857Y-63778571D01*
X201742857Y-63778571D02*
X202457142Y-63778571D01*
X202457142Y-62278571D01*
X200385714Y-63635714D02*
X200457142Y-63707142D01*
X200671428Y-63778571D01*
X200814285Y-63778571D01*
X201028571Y-63707142D01*
X201171428Y-63564285D01*
X201242857Y-63421428D01*
X201314285Y-63135714D01*
X201314285Y-62921428D01*
X201242857Y-62635714D01*
X201171428Y-62492857D01*
X201028571Y-62350000D01*
X200814285Y-62278571D01*
X200671428Y-62278571D01*
X200457142Y-62350000D01*
X200385714Y-62421428D01*
X199314285Y-62278571D02*
X199314285Y-63350000D01*
X199385714Y-63564285D01*
X199528571Y-63707142D01*
X199742857Y-63778571D01*
X199885714Y-63778571D01*
X197885714Y-63778571D02*
X198600000Y-63778571D01*
X198600000Y-62278571D01*
X196528571Y-63635714D02*
X196600000Y-63707142D01*
X196814285Y-63778571D01*
X196957142Y-63778571D01*
X197171428Y-63707142D01*
X197314285Y-63564285D01*
X197385714Y-63421428D01*
X197457142Y-63135714D01*
X197457142Y-62921428D01*
X197385714Y-62635714D01*
X197314285Y-62492857D01*
X197171428Y-62350000D01*
X196957142Y-62278571D01*
X196814285Y-62278571D01*
X196600000Y-62350000D01*
X196528571Y-62421428D01*
X195457142Y-62278571D02*
X195457142Y-63350000D01*
X195528571Y-63564285D01*
X195671428Y-63707142D01*
X195885714Y-63778571D01*
X196028571Y-63778571D01*
X194028571Y-63778571D02*
X194742857Y-63778571D01*
X194742857Y-62278571D01*
X192671428Y-63635714D02*
X192742857Y-63707142D01*
X192957142Y-63778571D01*
X193100000Y-63778571D01*
X193314285Y-63707142D01*
X193457142Y-63564285D01*
X193528571Y-63421428D01*
X193600000Y-63135714D01*
X193600000Y-62921428D01*
X193528571Y-62635714D01*
X193457142Y-62492857D01*
X193314285Y-62350000D01*
X193100000Y-62278571D01*
X192957142Y-62278571D01*
X192742857Y-62350000D01*
X192671428Y-62421428D01*
D11*
X131633333Y-102716666D02*
X131633333Y-102016666D01*
X131633333Y-102283333D02*
X131566666Y-102250000D01*
X131433333Y-102250000D01*
X131366666Y-102283333D01*
X131333333Y-102316666D01*
X131300000Y-102383333D01*
X131300000Y-102583333D01*
X131333333Y-102650000D01*
X131366666Y-102683333D01*
X131433333Y-102716666D01*
X131566666Y-102716666D01*
X131633333Y-102683333D01*
X131033333Y-102683333D02*
X130966666Y-102716666D01*
X130833333Y-102716666D01*
X130766666Y-102683333D01*
X130733333Y-102616666D01*
X130733333Y-102583333D01*
X130766666Y-102516666D01*
X130833333Y-102483333D01*
X130933333Y-102483333D01*
X131000000Y-102450000D01*
X131033333Y-102383333D01*
X131033333Y-102350000D01*
X131000000Y-102283333D01*
X130933333Y-102250000D01*
X130833333Y-102250000D01*
X130766666Y-102283333D01*
X130133333Y-102683333D02*
X130200000Y-102716666D01*
X130333333Y-102716666D01*
X130400000Y-102683333D01*
X130433333Y-102650000D01*
X130466666Y-102583333D01*
X130466666Y-102383333D01*
X130433333Y-102316666D01*
X130400000Y-102283333D01*
X130333333Y-102250000D01*
X130200000Y-102250000D01*
X130133333Y-102283333D01*
M02*
