%TF.GenerationSoftware,KiCad,Pcbnew,(6.0.7)*%
%TF.CreationDate,2022-08-26T02:15:04-07:00*%
%TF.ProjectId,mini_consolev2,6d696e69-5f63-46f6-9e73-6f6c6576322e,rev?*%
%TF.SameCoordinates,Original*%
%TF.FileFunction,Paste,Top*%
%TF.FilePolarity,Positive*%
%FSLAX46Y46*%
G04 Gerber Fmt 4.6, Leading zero omitted, Abs format (unit mm)*
G04 Created by KiCad (PCBNEW (6.0.7)) date 2022-08-26 02:15:04*
%MOMM*%
%LPD*%
G01*
G04 APERTURE LIST*
G04 Aperture macros list*
%AMRoundRect*
0 Rectangle with rounded corners*
0 $1 Rounding radius*
0 $2 $3 $4 $5 $6 $7 $8 $9 X,Y pos of 4 corners*
0 Add a 4 corners polygon primitive as box body*
4,1,4,$2,$3,$4,$5,$6,$7,$8,$9,$2,$3,0*
0 Add four circle primitives for the rounded corners*
1,1,$1+$1,$2,$3*
1,1,$1+$1,$4,$5*
1,1,$1+$1,$6,$7*
1,1,$1+$1,$8,$9*
0 Add four rect primitives between the rounded corners*
20,1,$1+$1,$2,$3,$4,$5,0*
20,1,$1+$1,$4,$5,$6,$7,0*
20,1,$1+$1,$6,$7,$8,$9,0*
20,1,$1+$1,$8,$9,$2,$3,0*%
G04 Aperture macros list end*
%ADD10RoundRect,0.135000X-0.185000X0.135000X-0.185000X-0.135000X0.185000X-0.135000X0.185000X0.135000X0*%
%ADD11RoundRect,0.140000X0.170000X-0.140000X0.170000X0.140000X-0.170000X0.140000X-0.170000X-0.140000X0*%
%ADD12RoundRect,0.218750X-0.256250X0.218750X-0.256250X-0.218750X0.256250X-0.218750X0.256250X0.218750X0*%
%ADD13RoundRect,0.225000X0.250000X-0.225000X0.250000X0.225000X-0.250000X0.225000X-0.250000X-0.225000X0*%
%ADD14R,1.400000X1.200000*%
%ADD15R,0.600000X1.450000*%
%ADD16R,0.300000X1.450000*%
%ADD17RoundRect,0.135000X0.185000X-0.135000X0.185000X0.135000X-0.185000X0.135000X-0.185000X-0.135000X0*%
%ADD18RoundRect,0.218750X-0.218750X-0.256250X0.218750X-0.256250X0.218750X0.256250X-0.218750X0.256250X0*%
%ADD19RoundRect,0.218750X0.218750X0.256250X-0.218750X0.256250X-0.218750X-0.256250X0.218750X-0.256250X0*%
%ADD20RoundRect,0.225000X0.225000X0.250000X-0.225000X0.250000X-0.225000X-0.250000X0.225000X-0.250000X0*%
%ADD21RoundRect,0.218750X0.256250X-0.218750X0.256250X0.218750X-0.256250X0.218750X-0.256250X-0.218750X0*%
%ADD22RoundRect,0.135000X-0.135000X-0.185000X0.135000X-0.185000X0.135000X0.185000X-0.135000X0.185000X0*%
%ADD23R,2.000000X1.500000*%
%ADD24R,2.000000X3.800000*%
%ADD25RoundRect,0.140000X0.140000X0.170000X-0.140000X0.170000X-0.140000X-0.170000X0.140000X-0.170000X0*%
%ADD26RoundRect,0.135000X0.135000X0.185000X-0.135000X0.185000X-0.135000X-0.185000X0.135000X-0.185000X0*%
%ADD27R,0.279400X1.461999*%
%ADD28R,1.461999X0.279400*%
G04 APERTURE END LIST*
D10*
%TO.C,R8*%
X195600000Y-81690000D03*
X195600000Y-82710000D03*
%TD*%
D11*
%TO.C,C3*%
X164000000Y-81680000D03*
X164000000Y-80720000D03*
%TD*%
D12*
%TO.C,F1*%
X164200000Y-71093750D03*
X164200000Y-72668750D03*
%TD*%
D13*
%TO.C,C1*%
X159342500Y-78357500D03*
X159342500Y-76807500D03*
%TD*%
D14*
%TO.C,HSE1*%
X156342500Y-78882500D03*
X154142500Y-78882500D03*
X154142500Y-80582500D03*
X156342500Y-80582500D03*
%TD*%
D15*
%TO.C,J4*%
X168530000Y-68611250D03*
X167730000Y-68611250D03*
D16*
X166530000Y-68611250D03*
X165530000Y-68611250D03*
X165030000Y-68611250D03*
X164030000Y-68611250D03*
D15*
X162030000Y-68611250D03*
X162830000Y-68611250D03*
D16*
X163530000Y-68611250D03*
X164530000Y-68611250D03*
X166030000Y-68611250D03*
X167030000Y-68611250D03*
%TD*%
D17*
%TO.C,R9*%
X166587500Y-72893750D03*
X166587500Y-71873750D03*
%TD*%
%TO.C,R2*%
X140208000Y-90682000D03*
X140208000Y-89662000D03*
%TD*%
D18*
%TO.C,FB1*%
X163312500Y-79200000D03*
X164887500Y-79200000D03*
%TD*%
D11*
%TO.C,C5*%
X161742500Y-78262500D03*
X161742500Y-77302500D03*
%TD*%
%TO.C,C2*%
X161142500Y-81680000D03*
X161142500Y-80720000D03*
%TD*%
D19*
%TO.C,PC1*%
X136387500Y-88138000D03*
X134812500Y-88138000D03*
%TD*%
D10*
%TO.C,R4*%
X140208000Y-85594000D03*
X140208000Y-86614000D03*
%TD*%
D20*
%TO.C,C7*%
X174625000Y-70000000D03*
X173075000Y-70000000D03*
%TD*%
D21*
%TO.C,PC4*%
X140208000Y-84353500D03*
X140208000Y-82778500D03*
%TD*%
D18*
%TO.C,PC3*%
X144018000Y-88138000D03*
X145593000Y-88138000D03*
%TD*%
D22*
%TO.C,R1*%
X137666000Y-88138000D03*
X138686000Y-88138000D03*
%TD*%
D23*
%TO.C,U2*%
X170450000Y-72193750D03*
X170450000Y-74493750D03*
D24*
X176750000Y-74493750D03*
D23*
X170450000Y-76793750D03*
%TD*%
D25*
%TO.C,C10*%
X159342500Y-81582500D03*
X158382500Y-81582500D03*
%TD*%
D17*
%TO.C,R10*%
X171500000Y-68610000D03*
X171500000Y-67590000D03*
%TD*%
D10*
%TO.C,R11*%
X173000000Y-67590000D03*
X173000000Y-68610000D03*
%TD*%
D13*
%TO.C,C8*%
X162600000Y-72681250D03*
X162600000Y-71131250D03*
%TD*%
D11*
%TO.C,C4*%
X162342500Y-81680000D03*
X162342500Y-80720000D03*
%TD*%
D10*
%TO.C,R5*%
X199200000Y-81690000D03*
X199200000Y-82710000D03*
%TD*%
D26*
%TO.C,R3*%
X142752000Y-88138000D03*
X141732000Y-88138000D03*
%TD*%
D12*
%TO.C,PC2*%
X140208000Y-91948000D03*
X140208000Y-93523000D03*
%TD*%
D25*
%TO.C,C9*%
X159742500Y-80382500D03*
X158782500Y-80382500D03*
%TD*%
D27*
%TO.C,U1*%
X164040000Y-83413600D03*
X163540001Y-83413600D03*
X163039999Y-83413600D03*
X162540000Y-83413600D03*
X162040001Y-83413600D03*
X161540000Y-83413600D03*
X161040000Y-83413600D03*
X160539999Y-83413600D03*
X160040000Y-83413600D03*
X159540001Y-83413600D03*
X159039999Y-83413600D03*
X158540000Y-83413600D03*
D28*
X157073600Y-84880000D03*
X157073600Y-85379999D03*
X157073600Y-85880001D03*
X157073600Y-86380000D03*
X157073600Y-86879999D03*
X157073600Y-87380000D03*
X157073600Y-87880000D03*
X157073600Y-88380001D03*
X157073600Y-88880000D03*
X157073600Y-89379999D03*
X157073600Y-89880001D03*
X157073600Y-90380000D03*
D27*
X158540000Y-91846400D03*
X159039999Y-91846400D03*
X159540001Y-91846400D03*
X160040000Y-91846400D03*
X160539999Y-91846400D03*
X161040000Y-91846400D03*
X161540000Y-91846400D03*
X162040001Y-91846400D03*
X162540000Y-91846400D03*
X163039999Y-91846400D03*
X163540001Y-91846400D03*
X164040000Y-91846400D03*
D28*
X165506400Y-90380000D03*
X165506400Y-89880001D03*
X165506400Y-89379999D03*
X165506400Y-88880000D03*
X165506400Y-88380001D03*
X165506400Y-87880000D03*
X165506400Y-87380000D03*
X165506400Y-86879999D03*
X165506400Y-86380000D03*
X165506400Y-85880001D03*
X165506400Y-85379999D03*
X165506400Y-84880000D03*
%TD*%
D11*
%TO.C,C6*%
X165142500Y-81462500D03*
X165142500Y-80502500D03*
%TD*%
D10*
%TO.C,R6*%
X198000000Y-81690000D03*
X198000000Y-82710000D03*
%TD*%
%TO.C,R7*%
X196800000Y-81690000D03*
X196800000Y-82710000D03*
%TD*%
D18*
%TO.C,D1*%
X166600000Y-74293750D03*
X168175000Y-74293750D03*
%TD*%
M02*
