%TF.GenerationSoftware,KiCad,Pcbnew,(6.0.7)*%
%TF.CreationDate,2022-08-26T02:15:04-07:00*%
%TF.ProjectId,mini_consolev2,6d696e69-5f63-46f6-9e73-6f6c6576322e,rev?*%
%TF.SameCoordinates,Original*%
%TF.FileFunction,Legend,Top*%
%TF.FilePolarity,Positive*%
%FSLAX46Y46*%
G04 Gerber Fmt 4.6, Leading zero omitted, Abs format (unit mm)*
G04 Created by KiCad (PCBNEW (6.0.7)) date 2022-08-26 02:15:04*
%MOMM*%
%LPD*%
G01*
G04 APERTURE LIST*
%ADD10C,0.150000*%
%ADD11C,0.100000*%
%ADD12C,0.120000*%
%ADD13C,0.127000*%
%ADD14C,0.200000*%
G04 APERTURE END LIST*
D10*
X185300000Y-65999761D02*
X185442857Y-66047380D01*
X185680952Y-66047380D01*
X185776190Y-65999761D01*
X185823809Y-65952142D01*
X185871428Y-65856904D01*
X185871428Y-65761666D01*
X185823809Y-65666428D01*
X185776190Y-65618809D01*
X185680952Y-65571190D01*
X185490476Y-65523571D01*
X185395238Y-65475952D01*
X185347619Y-65428333D01*
X185300000Y-65333095D01*
X185300000Y-65237857D01*
X185347619Y-65142619D01*
X185395238Y-65095000D01*
X185490476Y-65047380D01*
X185728571Y-65047380D01*
X185871428Y-65095000D01*
X186157142Y-65047380D02*
X186728571Y-65047380D01*
X186442857Y-66047380D02*
X186442857Y-65047380D01*
X187061904Y-66047380D02*
X187061904Y-65047380D01*
X187395238Y-65761666D01*
X187728571Y-65047380D01*
X187728571Y-66047380D01*
X188109523Y-65047380D02*
X188728571Y-65047380D01*
X188395238Y-65428333D01*
X188538095Y-65428333D01*
X188633333Y-65475952D01*
X188680952Y-65523571D01*
X188728571Y-65618809D01*
X188728571Y-65856904D01*
X188680952Y-65952142D01*
X188633333Y-65999761D01*
X188538095Y-66047380D01*
X188252380Y-66047380D01*
X188157142Y-65999761D01*
X188109523Y-65952142D01*
X189109523Y-65142619D02*
X189157142Y-65095000D01*
X189252380Y-65047380D01*
X189490476Y-65047380D01*
X189585714Y-65095000D01*
X189633333Y-65142619D01*
X189680952Y-65237857D01*
X189680952Y-65333095D01*
X189633333Y-65475952D01*
X189061904Y-66047380D01*
X189680952Y-66047380D01*
X190633333Y-65095000D02*
X190538095Y-65047380D01*
X190395238Y-65047380D01*
X190252380Y-65095000D01*
X190157142Y-65190238D01*
X190109523Y-65285476D01*
X190061904Y-65475952D01*
X190061904Y-65618809D01*
X190109523Y-65809285D01*
X190157142Y-65904523D01*
X190252380Y-65999761D01*
X190395238Y-66047380D01*
X190490476Y-66047380D01*
X190633333Y-65999761D01*
X190680952Y-65952142D01*
X190680952Y-65618809D01*
X190490476Y-65618809D01*
X191300000Y-65047380D02*
X191395238Y-65047380D01*
X191490476Y-65095000D01*
X191538095Y-65142619D01*
X191585714Y-65237857D01*
X191633333Y-65428333D01*
X191633333Y-65666428D01*
X191585714Y-65856904D01*
X191538095Y-65952142D01*
X191490476Y-65999761D01*
X191395238Y-66047380D01*
X191300000Y-66047380D01*
X191204761Y-65999761D01*
X191157142Y-65952142D01*
X191109523Y-65856904D01*
X191061904Y-65666428D01*
X191061904Y-65428333D01*
X191109523Y-65237857D01*
X191157142Y-65142619D01*
X191204761Y-65095000D01*
X191300000Y-65047380D01*
X192966666Y-65475952D02*
X192871428Y-65428333D01*
X192823809Y-65380714D01*
X192776190Y-65285476D01*
X192776190Y-65237857D01*
X192823809Y-65142619D01*
X192871428Y-65095000D01*
X192966666Y-65047380D01*
X193157142Y-65047380D01*
X193252380Y-65095000D01*
X193300000Y-65142619D01*
X193347619Y-65237857D01*
X193347619Y-65285476D01*
X193300000Y-65380714D01*
X193252380Y-65428333D01*
X193157142Y-65475952D01*
X192966666Y-65475952D01*
X192871428Y-65523571D01*
X192823809Y-65571190D01*
X192776190Y-65666428D01*
X192776190Y-65856904D01*
X192823809Y-65952142D01*
X192871428Y-65999761D01*
X192966666Y-66047380D01*
X193157142Y-66047380D01*
X193252380Y-65999761D01*
X193300000Y-65952142D01*
X193347619Y-65856904D01*
X193347619Y-65666428D01*
X193300000Y-65571190D01*
X193252380Y-65523571D01*
X193157142Y-65475952D01*
X194490476Y-64999761D02*
X193633333Y-66285476D01*
X194776190Y-65142619D02*
X194823809Y-65095000D01*
X194919047Y-65047380D01*
X195157142Y-65047380D01*
X195252380Y-65095000D01*
X195300000Y-65142619D01*
X195347619Y-65237857D01*
X195347619Y-65333095D01*
X195300000Y-65475952D01*
X194728571Y-66047380D01*
X195347619Y-66047380D01*
X195728571Y-65142619D02*
X195776190Y-65095000D01*
X195871428Y-65047380D01*
X196109523Y-65047380D01*
X196204761Y-65095000D01*
X196252380Y-65142619D01*
X196300000Y-65237857D01*
X196300000Y-65333095D01*
X196252380Y-65475952D01*
X195680952Y-66047380D01*
X196300000Y-66047380D01*
X186014285Y-66657380D02*
X186490476Y-66847857D01*
X186014285Y-66990714D02*
X186395238Y-67133571D01*
X185919047Y-67324047D02*
X186442857Y-67562142D01*
X186966666Y-66895476D02*
X187538095Y-66895476D01*
X186871428Y-67466904D02*
X187633333Y-67466904D01*
X188585714Y-67562142D02*
X188538095Y-67609761D01*
X188395238Y-67657380D01*
X188300000Y-67657380D01*
X188157142Y-67609761D01*
X188061904Y-67514523D01*
X188014285Y-67419285D01*
X187966666Y-67228809D01*
X187966666Y-67085952D01*
X188014285Y-66895476D01*
X188061904Y-66800238D01*
X188157142Y-66705000D01*
X188300000Y-66657380D01*
X188395238Y-66657380D01*
X188538095Y-66705000D01*
X188585714Y-66752619D01*
X189014285Y-66895476D02*
X189585714Y-66895476D01*
X189300000Y-66609761D02*
X189300000Y-67609761D01*
X189157142Y-67562142D01*
X189442857Y-67085952D02*
X189585714Y-67466904D01*
X189109523Y-67085952D02*
X189061904Y-67228809D01*
X189014285Y-67324047D01*
X188966666Y-67466904D01*
X189538095Y-66705000D02*
X189633333Y-66800238D01*
X189680952Y-66657380D02*
X189776190Y-66752619D01*
X189966666Y-67133571D02*
X190728571Y-67133571D01*
X191585714Y-66895476D02*
X191680952Y-66990714D01*
X191728571Y-66847857D02*
X191823809Y-66943095D01*
X191395238Y-66562142D02*
X191395238Y-67609761D01*
X191395238Y-66990714D02*
X191680952Y-67228809D01*
X192776190Y-66657380D02*
X193109523Y-67657380D01*
X193442857Y-66657380D01*
X193966666Y-66657380D02*
X194061904Y-66657380D01*
X194157142Y-66705000D01*
X194204761Y-66752619D01*
X194252380Y-66847857D01*
X194300000Y-67038333D01*
X194300000Y-67276428D01*
X194252380Y-67466904D01*
X194204761Y-67562142D01*
X194157142Y-67609761D01*
X194061904Y-67657380D01*
X193966666Y-67657380D01*
X193871428Y-67609761D01*
X193823809Y-67562142D01*
X193776190Y-67466904D01*
X193728571Y-67276428D01*
X193728571Y-67038333D01*
X193776190Y-66847857D01*
X193823809Y-66752619D01*
X193871428Y-66705000D01*
X193966666Y-66657380D01*
X194728571Y-67562142D02*
X194776190Y-67609761D01*
X194728571Y-67657380D01*
X194680952Y-67609761D01*
X194728571Y-67562142D01*
X194728571Y-67657380D01*
X195109523Y-66657380D02*
X195728571Y-66657380D01*
X195395238Y-67038333D01*
X195538095Y-67038333D01*
X195633333Y-67085952D01*
X195680952Y-67133571D01*
X195728571Y-67228809D01*
X195728571Y-67466904D01*
X195680952Y-67562142D01*
X195633333Y-67609761D01*
X195538095Y-67657380D01*
X195252380Y-67657380D01*
X195157142Y-67609761D01*
X195109523Y-67562142D01*
D11*
X130282142Y-93557142D02*
X130282142Y-92657142D01*
X130625000Y-92657142D01*
X130710714Y-92700000D01*
X130753571Y-92742857D01*
X130796428Y-92828571D01*
X130796428Y-92957142D01*
X130753571Y-93042857D01*
X130710714Y-93085714D01*
X130625000Y-93128571D01*
X130282142Y-93128571D01*
X131482142Y-93085714D02*
X131610714Y-93128571D01*
X131653571Y-93171428D01*
X131696428Y-93257142D01*
X131696428Y-93385714D01*
X131653571Y-93471428D01*
X131610714Y-93514285D01*
X131525000Y-93557142D01*
X131182142Y-93557142D01*
X131182142Y-92657142D01*
X131482142Y-92657142D01*
X131567857Y-92700000D01*
X131610714Y-92742857D01*
X131653571Y-92828571D01*
X131653571Y-92914285D01*
X131610714Y-93000000D01*
X131567857Y-93042857D01*
X131482142Y-93085714D01*
X131182142Y-93085714D01*
X132553571Y-93557142D02*
X132039285Y-93557142D01*
X132296428Y-93557142D02*
X132296428Y-92657142D01*
X132210714Y-92785714D01*
X132125000Y-92871428D01*
X132039285Y-92914285D01*
X133410714Y-93557142D02*
X132896428Y-93557142D01*
X133153571Y-93557142D02*
X133153571Y-92657142D01*
X133067857Y-92785714D01*
X132982142Y-92871428D01*
X132896428Y-92914285D01*
X203279285Y-84882142D02*
X203279285Y-83982142D01*
X203622142Y-83982142D01*
X203707857Y-84025000D01*
X203750714Y-84067857D01*
X203793571Y-84153571D01*
X203793571Y-84282142D01*
X203750714Y-84367857D01*
X203707857Y-84410714D01*
X203622142Y-84453571D01*
X203279285Y-84453571D01*
X204479285Y-84410714D02*
X204607857Y-84453571D01*
X204650714Y-84496428D01*
X204693571Y-84582142D01*
X204693571Y-84710714D01*
X204650714Y-84796428D01*
X204607857Y-84839285D01*
X204522142Y-84882142D01*
X204179285Y-84882142D01*
X204179285Y-83982142D01*
X204479285Y-83982142D01*
X204565000Y-84025000D01*
X204607857Y-84067857D01*
X204650714Y-84153571D01*
X204650714Y-84239285D01*
X204607857Y-84325000D01*
X204565000Y-84367857D01*
X204479285Y-84410714D01*
X204179285Y-84410714D01*
X204993571Y-83982142D02*
X205550714Y-83982142D01*
X205250714Y-84325000D01*
X205379285Y-84325000D01*
X205465000Y-84367857D01*
X205507857Y-84410714D01*
X205550714Y-84496428D01*
X205550714Y-84710714D01*
X205507857Y-84796428D01*
X205465000Y-84839285D01*
X205379285Y-84882142D01*
X205122142Y-84882142D01*
X205036428Y-84839285D01*
X204993571Y-84796428D01*
X130350000Y-78332142D02*
X130350000Y-77432142D01*
X130692857Y-77432142D01*
X130778571Y-77475000D01*
X130821428Y-77517857D01*
X130864285Y-77603571D01*
X130864285Y-77732142D01*
X130821428Y-77817857D01*
X130778571Y-77860714D01*
X130692857Y-77903571D01*
X130350000Y-77903571D01*
X131207142Y-78075000D02*
X131635714Y-78075000D01*
X131121428Y-78332142D02*
X131421428Y-77432142D01*
X131721428Y-78332142D01*
X131978571Y-77517857D02*
X132021428Y-77475000D01*
X132107142Y-77432142D01*
X132321428Y-77432142D01*
X132407142Y-77475000D01*
X132450000Y-77517857D01*
X132492857Y-77603571D01*
X132492857Y-77689285D01*
X132450000Y-77817857D01*
X131935714Y-78332142D01*
X132492857Y-78332142D01*
X130350000Y-77057142D02*
X130350000Y-76157142D01*
X130692857Y-76157142D01*
X130778571Y-76200000D01*
X130821428Y-76242857D01*
X130864285Y-76328571D01*
X130864285Y-76457142D01*
X130821428Y-76542857D01*
X130778571Y-76585714D01*
X130692857Y-76628571D01*
X130350000Y-76628571D01*
X131207142Y-76800000D02*
X131635714Y-76800000D01*
X131121428Y-77057142D02*
X131421428Y-76157142D01*
X131721428Y-77057142D01*
X132492857Y-77057142D02*
X131978571Y-77057142D01*
X132235714Y-77057142D02*
X132235714Y-76157142D01*
X132150000Y-76285714D01*
X132064285Y-76371428D01*
X131978571Y-76414285D01*
X130350000Y-79582142D02*
X130350000Y-78682142D01*
X130692857Y-78682142D01*
X130778571Y-78725000D01*
X130821428Y-78767857D01*
X130864285Y-78853571D01*
X130864285Y-78982142D01*
X130821428Y-79067857D01*
X130778571Y-79110714D01*
X130692857Y-79153571D01*
X130350000Y-79153571D01*
X131207142Y-79325000D02*
X131635714Y-79325000D01*
X131121428Y-79582142D02*
X131421428Y-78682142D01*
X131721428Y-79582142D01*
X131935714Y-78682142D02*
X132492857Y-78682142D01*
X132192857Y-79025000D01*
X132321428Y-79025000D01*
X132407142Y-79067857D01*
X132450000Y-79110714D01*
X132492857Y-79196428D01*
X132492857Y-79410714D01*
X132450000Y-79496428D01*
X132407142Y-79539285D01*
X132321428Y-79582142D01*
X132064285Y-79582142D01*
X131978571Y-79539285D01*
X131935714Y-79496428D01*
X130350000Y-83407142D02*
X130350000Y-82507142D01*
X130692857Y-82507142D01*
X130778571Y-82550000D01*
X130821428Y-82592857D01*
X130864285Y-82678571D01*
X130864285Y-82807142D01*
X130821428Y-82892857D01*
X130778571Y-82935714D01*
X130692857Y-82978571D01*
X130350000Y-82978571D01*
X131207142Y-83150000D02*
X131635714Y-83150000D01*
X131121428Y-83407142D02*
X131421428Y-82507142D01*
X131721428Y-83407142D01*
X132407142Y-82507142D02*
X132235714Y-82507142D01*
X132150000Y-82550000D01*
X132107142Y-82592857D01*
X132021428Y-82721428D01*
X131978571Y-82892857D01*
X131978571Y-83235714D01*
X132021428Y-83321428D01*
X132064285Y-83364285D01*
X132150000Y-83407142D01*
X132321428Y-83407142D01*
X132407142Y-83364285D01*
X132450000Y-83321428D01*
X132492857Y-83235714D01*
X132492857Y-83021428D01*
X132450000Y-82935714D01*
X132407142Y-82892857D01*
X132321428Y-82850000D01*
X132150000Y-82850000D01*
X132064285Y-82892857D01*
X132021428Y-82935714D01*
X131978571Y-83021428D01*
D10*
X144052380Y-63438095D02*
X144052380Y-62819047D01*
X144433333Y-63152380D01*
X144433333Y-63009523D01*
X144480952Y-62914285D01*
X144528571Y-62866666D01*
X144623809Y-62819047D01*
X144861904Y-62819047D01*
X144957142Y-62866666D01*
X145004761Y-62914285D01*
X145052380Y-63009523D01*
X145052380Y-63295238D01*
X145004761Y-63390476D01*
X144957142Y-63438095D01*
X144052380Y-62533333D02*
X145052380Y-62200000D01*
X144052380Y-61866666D01*
X144052380Y-61628571D02*
X144052380Y-61009523D01*
X144433333Y-61342857D01*
X144433333Y-61200000D01*
X144480952Y-61104761D01*
X144528571Y-61057142D01*
X144623809Y-61009523D01*
X144861904Y-61009523D01*
X144957142Y-61057142D01*
X145004761Y-61104761D01*
X145052380Y-61200000D01*
X145052380Y-61485714D01*
X145004761Y-61580952D01*
X144957142Y-61628571D01*
D11*
X130282142Y-94807142D02*
X130282142Y-93907142D01*
X130625000Y-93907142D01*
X130710714Y-93950000D01*
X130753571Y-93992857D01*
X130796428Y-94078571D01*
X130796428Y-94207142D01*
X130753571Y-94292857D01*
X130710714Y-94335714D01*
X130625000Y-94378571D01*
X130282142Y-94378571D01*
X131482142Y-94335714D02*
X131610714Y-94378571D01*
X131653571Y-94421428D01*
X131696428Y-94507142D01*
X131696428Y-94635714D01*
X131653571Y-94721428D01*
X131610714Y-94764285D01*
X131525000Y-94807142D01*
X131182142Y-94807142D01*
X131182142Y-93907142D01*
X131482142Y-93907142D01*
X131567857Y-93950000D01*
X131610714Y-93992857D01*
X131653571Y-94078571D01*
X131653571Y-94164285D01*
X131610714Y-94250000D01*
X131567857Y-94292857D01*
X131482142Y-94335714D01*
X131182142Y-94335714D01*
X132553571Y-94807142D02*
X132039285Y-94807142D01*
X132296428Y-94807142D02*
X132296428Y-93907142D01*
X132210714Y-94035714D01*
X132125000Y-94121428D01*
X132039285Y-94164285D01*
X132896428Y-93992857D02*
X132939285Y-93950000D01*
X133025000Y-93907142D01*
X133239285Y-93907142D01*
X133325000Y-93950000D01*
X133367857Y-93992857D01*
X133410714Y-94078571D01*
X133410714Y-94164285D01*
X133367857Y-94292857D01*
X132853571Y-94807142D01*
X133410714Y-94807142D01*
X203504285Y-93782142D02*
X203504285Y-92882142D01*
X203847142Y-92882142D01*
X203932857Y-92925000D01*
X203975714Y-92967857D01*
X204018571Y-93053571D01*
X204018571Y-93182142D01*
X203975714Y-93267857D01*
X203932857Y-93310714D01*
X203847142Y-93353571D01*
X203504285Y-93353571D01*
X204361428Y-93525000D02*
X204790000Y-93525000D01*
X204275714Y-93782142D02*
X204575714Y-92882142D01*
X204875714Y-93782142D01*
X205218571Y-93782142D02*
X205390000Y-93782142D01*
X205475714Y-93739285D01*
X205518571Y-93696428D01*
X205604285Y-93567857D01*
X205647142Y-93396428D01*
X205647142Y-93053571D01*
X205604285Y-92967857D01*
X205561428Y-92925000D01*
X205475714Y-92882142D01*
X205304285Y-92882142D01*
X205218571Y-92925000D01*
X205175714Y-92967857D01*
X205132857Y-93053571D01*
X205132857Y-93267857D01*
X205175714Y-93353571D01*
X205218571Y-93396428D01*
X205304285Y-93439285D01*
X205475714Y-93439285D01*
X205561428Y-93396428D01*
X205604285Y-93353571D01*
X205647142Y-93267857D01*
X203279285Y-77282142D02*
X203279285Y-76382142D01*
X203622142Y-76382142D01*
X203707857Y-76425000D01*
X203750714Y-76467857D01*
X203793571Y-76553571D01*
X203793571Y-76682142D01*
X203750714Y-76767857D01*
X203707857Y-76810714D01*
X203622142Y-76853571D01*
X203279285Y-76853571D01*
X204479285Y-76810714D02*
X204607857Y-76853571D01*
X204650714Y-76896428D01*
X204693571Y-76982142D01*
X204693571Y-77110714D01*
X204650714Y-77196428D01*
X204607857Y-77239285D01*
X204522142Y-77282142D01*
X204179285Y-77282142D01*
X204179285Y-76382142D01*
X204479285Y-76382142D01*
X204565000Y-76425000D01*
X204607857Y-76467857D01*
X204650714Y-76553571D01*
X204650714Y-76639285D01*
X204607857Y-76725000D01*
X204565000Y-76767857D01*
X204479285Y-76810714D01*
X204179285Y-76810714D01*
X205122142Y-77282142D02*
X205293571Y-77282142D01*
X205379285Y-77239285D01*
X205422142Y-77196428D01*
X205507857Y-77067857D01*
X205550714Y-76896428D01*
X205550714Y-76553571D01*
X205507857Y-76467857D01*
X205465000Y-76425000D01*
X205379285Y-76382142D01*
X205207857Y-76382142D01*
X205122142Y-76425000D01*
X205079285Y-76467857D01*
X205036428Y-76553571D01*
X205036428Y-76767857D01*
X205079285Y-76853571D01*
X205122142Y-76896428D01*
X205207857Y-76939285D01*
X205379285Y-76939285D01*
X205465000Y-76896428D01*
X205507857Y-76853571D01*
X205550714Y-76767857D01*
X203279285Y-81082142D02*
X203279285Y-80182142D01*
X203622142Y-80182142D01*
X203707857Y-80225000D01*
X203750714Y-80267857D01*
X203793571Y-80353571D01*
X203793571Y-80482142D01*
X203750714Y-80567857D01*
X203707857Y-80610714D01*
X203622142Y-80653571D01*
X203279285Y-80653571D01*
X204479285Y-80610714D02*
X204607857Y-80653571D01*
X204650714Y-80696428D01*
X204693571Y-80782142D01*
X204693571Y-80910714D01*
X204650714Y-80996428D01*
X204607857Y-81039285D01*
X204522142Y-81082142D01*
X204179285Y-81082142D01*
X204179285Y-80182142D01*
X204479285Y-80182142D01*
X204565000Y-80225000D01*
X204607857Y-80267857D01*
X204650714Y-80353571D01*
X204650714Y-80439285D01*
X204607857Y-80525000D01*
X204565000Y-80567857D01*
X204479285Y-80610714D01*
X204179285Y-80610714D01*
X205465000Y-80182142D02*
X205293571Y-80182142D01*
X205207857Y-80225000D01*
X205165000Y-80267857D01*
X205079285Y-80396428D01*
X205036428Y-80567857D01*
X205036428Y-80910714D01*
X205079285Y-80996428D01*
X205122142Y-81039285D01*
X205207857Y-81082142D01*
X205379285Y-81082142D01*
X205465000Y-81039285D01*
X205507857Y-80996428D01*
X205550714Y-80910714D01*
X205550714Y-80696428D01*
X205507857Y-80610714D01*
X205465000Y-80567857D01*
X205379285Y-80525000D01*
X205207857Y-80525000D01*
X205122142Y-80567857D01*
X205079285Y-80610714D01*
X205036428Y-80696428D01*
X203479285Y-97632142D02*
X203479285Y-96732142D01*
X203822142Y-96732142D01*
X203907857Y-96775000D01*
X203950714Y-96817857D01*
X203993571Y-96903571D01*
X203993571Y-97032142D01*
X203950714Y-97117857D01*
X203907857Y-97160714D01*
X203822142Y-97203571D01*
X203479285Y-97203571D01*
X204679285Y-97160714D02*
X204807857Y-97203571D01*
X204850714Y-97246428D01*
X204893571Y-97332142D01*
X204893571Y-97460714D01*
X204850714Y-97546428D01*
X204807857Y-97589285D01*
X204722142Y-97632142D01*
X204379285Y-97632142D01*
X204379285Y-96732142D01*
X204679285Y-96732142D01*
X204765000Y-96775000D01*
X204807857Y-96817857D01*
X204850714Y-96903571D01*
X204850714Y-96989285D01*
X204807857Y-97075000D01*
X204765000Y-97117857D01*
X204679285Y-97160714D01*
X204379285Y-97160714D01*
X205279285Y-97160714D02*
X205579285Y-97160714D01*
X205707857Y-97632142D02*
X205279285Y-97632142D01*
X205279285Y-96732142D01*
X205707857Y-96732142D01*
X130714285Y-86350000D02*
X130628571Y-86307142D01*
X130500000Y-86307142D01*
X130371428Y-86350000D01*
X130285714Y-86435714D01*
X130242857Y-86521428D01*
X130200000Y-86692857D01*
X130200000Y-86821428D01*
X130242857Y-86992857D01*
X130285714Y-87078571D01*
X130371428Y-87164285D01*
X130500000Y-87207142D01*
X130585714Y-87207142D01*
X130714285Y-87164285D01*
X130757142Y-87121428D01*
X130757142Y-86821428D01*
X130585714Y-86821428D01*
X131142857Y-87207142D02*
X131142857Y-86307142D01*
X131657142Y-87207142D01*
X131657142Y-86307142D01*
X132085714Y-87207142D02*
X132085714Y-86307142D01*
X132300000Y-86307142D01*
X132428571Y-86350000D01*
X132514285Y-86435714D01*
X132557142Y-86521428D01*
X132600000Y-86692857D01*
X132600000Y-86821428D01*
X132557142Y-86992857D01*
X132514285Y-87078571D01*
X132428571Y-87164285D01*
X132300000Y-87207142D01*
X132085714Y-87207142D01*
X130285714Y-89732142D02*
X130285714Y-88832142D01*
X130628571Y-88832142D01*
X130714285Y-88875000D01*
X130757142Y-88917857D01*
X130800000Y-89003571D01*
X130800000Y-89132142D01*
X130757142Y-89217857D01*
X130714285Y-89260714D01*
X130628571Y-89303571D01*
X130285714Y-89303571D01*
X131485714Y-89260714D02*
X131614285Y-89303571D01*
X131657142Y-89346428D01*
X131700000Y-89432142D01*
X131700000Y-89560714D01*
X131657142Y-89646428D01*
X131614285Y-89689285D01*
X131528571Y-89732142D01*
X131185714Y-89732142D01*
X131185714Y-88832142D01*
X131485714Y-88832142D01*
X131571428Y-88875000D01*
X131614285Y-88917857D01*
X131657142Y-89003571D01*
X131657142Y-89089285D01*
X131614285Y-89175000D01*
X131571428Y-89217857D01*
X131485714Y-89260714D01*
X131185714Y-89260714D01*
X132557142Y-89732142D02*
X132042857Y-89732142D01*
X132300000Y-89732142D02*
X132300000Y-88832142D01*
X132214285Y-88960714D01*
X132128571Y-89046428D01*
X132042857Y-89089285D01*
X203504285Y-88707142D02*
X203504285Y-87807142D01*
X203847142Y-87807142D01*
X203932857Y-87850000D01*
X203975714Y-87892857D01*
X204018571Y-87978571D01*
X204018571Y-88107142D01*
X203975714Y-88192857D01*
X203932857Y-88235714D01*
X203847142Y-88278571D01*
X203504285Y-88278571D01*
X204361428Y-88450000D02*
X204790000Y-88450000D01*
X204275714Y-88707142D02*
X204575714Y-87807142D01*
X204875714Y-88707142D01*
X205475714Y-88235714D02*
X205175714Y-88235714D01*
X205175714Y-88707142D02*
X205175714Y-87807142D01*
X205604285Y-87807142D01*
X202479285Y-76032142D02*
X202479285Y-75132142D01*
X202822142Y-75132142D01*
X202907857Y-75175000D01*
X202950714Y-75217857D01*
X202993571Y-75303571D01*
X202993571Y-75432142D01*
X202950714Y-75517857D01*
X202907857Y-75560714D01*
X202822142Y-75603571D01*
X202479285Y-75603571D01*
X203893571Y-75946428D02*
X203850714Y-75989285D01*
X203722142Y-76032142D01*
X203636428Y-76032142D01*
X203507857Y-75989285D01*
X203422142Y-75903571D01*
X203379285Y-75817857D01*
X203336428Y-75646428D01*
X203336428Y-75517857D01*
X203379285Y-75346428D01*
X203422142Y-75260714D01*
X203507857Y-75175000D01*
X203636428Y-75132142D01*
X203722142Y-75132142D01*
X203850714Y-75175000D01*
X203893571Y-75217857D01*
X204750714Y-76032142D02*
X204236428Y-76032142D01*
X204493571Y-76032142D02*
X204493571Y-75132142D01*
X204407857Y-75260714D01*
X204322142Y-75346428D01*
X204236428Y-75389285D01*
X205050714Y-75132142D02*
X205607857Y-75132142D01*
X205307857Y-75475000D01*
X205436428Y-75475000D01*
X205522142Y-75517857D01*
X205565000Y-75560714D01*
X205607857Y-75646428D01*
X205607857Y-75860714D01*
X205565000Y-75946428D01*
X205522142Y-75989285D01*
X205436428Y-76032142D01*
X205179285Y-76032142D01*
X205093571Y-75989285D01*
X205050714Y-75946428D01*
X130282142Y-96082142D02*
X130282142Y-95182142D01*
X130625000Y-95182142D01*
X130710714Y-95225000D01*
X130753571Y-95267857D01*
X130796428Y-95353571D01*
X130796428Y-95482142D01*
X130753571Y-95567857D01*
X130710714Y-95610714D01*
X130625000Y-95653571D01*
X130282142Y-95653571D01*
X131482142Y-95610714D02*
X131610714Y-95653571D01*
X131653571Y-95696428D01*
X131696428Y-95782142D01*
X131696428Y-95910714D01*
X131653571Y-95996428D01*
X131610714Y-96039285D01*
X131525000Y-96082142D01*
X131182142Y-96082142D01*
X131182142Y-95182142D01*
X131482142Y-95182142D01*
X131567857Y-95225000D01*
X131610714Y-95267857D01*
X131653571Y-95353571D01*
X131653571Y-95439285D01*
X131610714Y-95525000D01*
X131567857Y-95567857D01*
X131482142Y-95610714D01*
X131182142Y-95610714D01*
X132553571Y-96082142D02*
X132039285Y-96082142D01*
X132296428Y-96082142D02*
X132296428Y-95182142D01*
X132210714Y-95310714D01*
X132125000Y-95396428D01*
X132039285Y-95439285D01*
X132853571Y-95182142D02*
X133410714Y-95182142D01*
X133110714Y-95525000D01*
X133239285Y-95525000D01*
X133325000Y-95567857D01*
X133367857Y-95610714D01*
X133410714Y-95696428D01*
X133410714Y-95910714D01*
X133367857Y-95996428D01*
X133325000Y-96039285D01*
X133239285Y-96082142D01*
X132982142Y-96082142D01*
X132896428Y-96039285D01*
X132853571Y-95996428D01*
X130282142Y-92282142D02*
X130282142Y-91382142D01*
X130625000Y-91382142D01*
X130710714Y-91425000D01*
X130753571Y-91467857D01*
X130796428Y-91553571D01*
X130796428Y-91682142D01*
X130753571Y-91767857D01*
X130710714Y-91810714D01*
X130625000Y-91853571D01*
X130282142Y-91853571D01*
X131482142Y-91810714D02*
X131610714Y-91853571D01*
X131653571Y-91896428D01*
X131696428Y-91982142D01*
X131696428Y-92110714D01*
X131653571Y-92196428D01*
X131610714Y-92239285D01*
X131525000Y-92282142D01*
X131182142Y-92282142D01*
X131182142Y-91382142D01*
X131482142Y-91382142D01*
X131567857Y-91425000D01*
X131610714Y-91467857D01*
X131653571Y-91553571D01*
X131653571Y-91639285D01*
X131610714Y-91725000D01*
X131567857Y-91767857D01*
X131482142Y-91810714D01*
X131182142Y-91810714D01*
X132553571Y-92282142D02*
X132039285Y-92282142D01*
X132296428Y-92282142D02*
X132296428Y-91382142D01*
X132210714Y-91510714D01*
X132125000Y-91596428D01*
X132039285Y-91639285D01*
X133110714Y-91382142D02*
X133196428Y-91382142D01*
X133282142Y-91425000D01*
X133325000Y-91467857D01*
X133367857Y-91553571D01*
X133410714Y-91725000D01*
X133410714Y-91939285D01*
X133367857Y-92110714D01*
X133325000Y-92196428D01*
X133282142Y-92239285D01*
X133196428Y-92282142D01*
X133110714Y-92282142D01*
X133025000Y-92239285D01*
X132982142Y-92196428D01*
X132939285Y-92110714D01*
X132896428Y-91939285D01*
X132896428Y-91725000D01*
X132939285Y-91553571D01*
X132982142Y-91467857D01*
X133025000Y-91425000D01*
X133110714Y-91382142D01*
X203504285Y-96307142D02*
X203504285Y-95407142D01*
X203847142Y-95407142D01*
X203932857Y-95450000D01*
X203975714Y-95492857D01*
X204018571Y-95578571D01*
X204018571Y-95707142D01*
X203975714Y-95792857D01*
X203932857Y-95835714D01*
X203847142Y-95878571D01*
X203504285Y-95878571D01*
X204704285Y-95835714D02*
X204832857Y-95878571D01*
X204875714Y-95921428D01*
X204918571Y-96007142D01*
X204918571Y-96135714D01*
X204875714Y-96221428D01*
X204832857Y-96264285D01*
X204747142Y-96307142D01*
X204404285Y-96307142D01*
X204404285Y-95407142D01*
X204704285Y-95407142D01*
X204790000Y-95450000D01*
X204832857Y-95492857D01*
X204875714Y-95578571D01*
X204875714Y-95664285D01*
X204832857Y-95750000D01*
X204790000Y-95792857D01*
X204704285Y-95835714D01*
X204404285Y-95835714D01*
X205604285Y-95835714D02*
X205304285Y-95835714D01*
X205304285Y-96307142D02*
X205304285Y-95407142D01*
X205732857Y-95407142D01*
X203504285Y-89957142D02*
X203504285Y-89057142D01*
X203847142Y-89057142D01*
X203932857Y-89100000D01*
X203975714Y-89142857D01*
X204018571Y-89228571D01*
X204018571Y-89357142D01*
X203975714Y-89442857D01*
X203932857Y-89485714D01*
X203847142Y-89528571D01*
X203504285Y-89528571D01*
X204361428Y-89700000D02*
X204790000Y-89700000D01*
X204275714Y-89957142D02*
X204575714Y-89057142D01*
X204875714Y-89957142D01*
X205690000Y-89871428D02*
X205647142Y-89914285D01*
X205518571Y-89957142D01*
X205432857Y-89957142D01*
X205304285Y-89914285D01*
X205218571Y-89828571D01*
X205175714Y-89742857D01*
X205132857Y-89571428D01*
X205132857Y-89442857D01*
X205175714Y-89271428D01*
X205218571Y-89185714D01*
X205304285Y-89100000D01*
X205432857Y-89057142D01*
X205518571Y-89057142D01*
X205647142Y-89100000D01*
X205690000Y-89142857D01*
X130285714Y-91007142D02*
X130285714Y-90107142D01*
X130628571Y-90107142D01*
X130714285Y-90150000D01*
X130757142Y-90192857D01*
X130800000Y-90278571D01*
X130800000Y-90407142D01*
X130757142Y-90492857D01*
X130714285Y-90535714D01*
X130628571Y-90578571D01*
X130285714Y-90578571D01*
X131485714Y-90535714D02*
X131614285Y-90578571D01*
X131657142Y-90621428D01*
X131700000Y-90707142D01*
X131700000Y-90835714D01*
X131657142Y-90921428D01*
X131614285Y-90964285D01*
X131528571Y-91007142D01*
X131185714Y-91007142D01*
X131185714Y-90107142D01*
X131485714Y-90107142D01*
X131571428Y-90150000D01*
X131614285Y-90192857D01*
X131657142Y-90278571D01*
X131657142Y-90364285D01*
X131614285Y-90450000D01*
X131571428Y-90492857D01*
X131485714Y-90535714D01*
X131185714Y-90535714D01*
X132042857Y-90192857D02*
X132085714Y-90150000D01*
X132171428Y-90107142D01*
X132385714Y-90107142D01*
X132471428Y-90150000D01*
X132514285Y-90192857D01*
X132557142Y-90278571D01*
X132557142Y-90364285D01*
X132514285Y-90492857D01*
X132000000Y-91007142D01*
X132557142Y-91007142D01*
X203279285Y-79807142D02*
X203279285Y-78907142D01*
X203622142Y-78907142D01*
X203707857Y-78950000D01*
X203750714Y-78992857D01*
X203793571Y-79078571D01*
X203793571Y-79207142D01*
X203750714Y-79292857D01*
X203707857Y-79335714D01*
X203622142Y-79378571D01*
X203279285Y-79378571D01*
X204479285Y-79335714D02*
X204607857Y-79378571D01*
X204650714Y-79421428D01*
X204693571Y-79507142D01*
X204693571Y-79635714D01*
X204650714Y-79721428D01*
X204607857Y-79764285D01*
X204522142Y-79807142D01*
X204179285Y-79807142D01*
X204179285Y-78907142D01*
X204479285Y-78907142D01*
X204565000Y-78950000D01*
X204607857Y-78992857D01*
X204650714Y-79078571D01*
X204650714Y-79164285D01*
X204607857Y-79250000D01*
X204565000Y-79292857D01*
X204479285Y-79335714D01*
X204179285Y-79335714D01*
X204993571Y-78907142D02*
X205593571Y-78907142D01*
X205207857Y-79807142D01*
X203504285Y-95032142D02*
X203504285Y-94132142D01*
X203847142Y-94132142D01*
X203932857Y-94175000D01*
X203975714Y-94217857D01*
X204018571Y-94303571D01*
X204018571Y-94432142D01*
X203975714Y-94517857D01*
X203932857Y-94560714D01*
X203847142Y-94603571D01*
X203504285Y-94603571D01*
X204361428Y-94775000D02*
X204790000Y-94775000D01*
X204275714Y-95032142D02*
X204575714Y-94132142D01*
X204875714Y-95032142D01*
X205304285Y-94517857D02*
X205218571Y-94475000D01*
X205175714Y-94432142D01*
X205132857Y-94346428D01*
X205132857Y-94303571D01*
X205175714Y-94217857D01*
X205218571Y-94175000D01*
X205304285Y-94132142D01*
X205475714Y-94132142D01*
X205561428Y-94175000D01*
X205604285Y-94217857D01*
X205647142Y-94303571D01*
X205647142Y-94346428D01*
X205604285Y-94432142D01*
X205561428Y-94475000D01*
X205475714Y-94517857D01*
X205304285Y-94517857D01*
X205218571Y-94560714D01*
X205175714Y-94603571D01*
X205132857Y-94689285D01*
X205132857Y-94860714D01*
X205175714Y-94946428D01*
X205218571Y-94989285D01*
X205304285Y-95032142D01*
X205475714Y-95032142D01*
X205561428Y-94989285D01*
X205604285Y-94946428D01*
X205647142Y-94860714D01*
X205647142Y-94689285D01*
X205604285Y-94603571D01*
X205561428Y-94560714D01*
X205475714Y-94517857D01*
X203279285Y-78557142D02*
X203279285Y-77657142D01*
X203622142Y-77657142D01*
X203707857Y-77700000D01*
X203750714Y-77742857D01*
X203793571Y-77828571D01*
X203793571Y-77957142D01*
X203750714Y-78042857D01*
X203707857Y-78085714D01*
X203622142Y-78128571D01*
X203279285Y-78128571D01*
X204479285Y-78085714D02*
X204607857Y-78128571D01*
X204650714Y-78171428D01*
X204693571Y-78257142D01*
X204693571Y-78385714D01*
X204650714Y-78471428D01*
X204607857Y-78514285D01*
X204522142Y-78557142D01*
X204179285Y-78557142D01*
X204179285Y-77657142D01*
X204479285Y-77657142D01*
X204565000Y-77700000D01*
X204607857Y-77742857D01*
X204650714Y-77828571D01*
X204650714Y-77914285D01*
X204607857Y-78000000D01*
X204565000Y-78042857D01*
X204479285Y-78085714D01*
X204179285Y-78085714D01*
X205207857Y-78042857D02*
X205122142Y-78000000D01*
X205079285Y-77957142D01*
X205036428Y-77871428D01*
X205036428Y-77828571D01*
X205079285Y-77742857D01*
X205122142Y-77700000D01*
X205207857Y-77657142D01*
X205379285Y-77657142D01*
X205465000Y-77700000D01*
X205507857Y-77742857D01*
X205550714Y-77828571D01*
X205550714Y-77871428D01*
X205507857Y-77957142D01*
X205465000Y-78000000D01*
X205379285Y-78042857D01*
X205207857Y-78042857D01*
X205122142Y-78085714D01*
X205079285Y-78128571D01*
X205036428Y-78214285D01*
X205036428Y-78385714D01*
X205079285Y-78471428D01*
X205122142Y-78514285D01*
X205207857Y-78557142D01*
X205379285Y-78557142D01*
X205465000Y-78514285D01*
X205507857Y-78471428D01*
X205550714Y-78385714D01*
X205550714Y-78214285D01*
X205507857Y-78128571D01*
X205465000Y-78085714D01*
X205379285Y-78042857D01*
D10*
X158552380Y-68839285D02*
X159361904Y-68839285D01*
X159457142Y-68791666D01*
X159504761Y-68744047D01*
X159552380Y-68648809D01*
X159552380Y-68458333D01*
X159504761Y-68363095D01*
X159457142Y-68315476D01*
X159361904Y-68267857D01*
X158552380Y-68267857D01*
X159504761Y-67839285D02*
X159552380Y-67696428D01*
X159552380Y-67458333D01*
X159504761Y-67363095D01*
X159457142Y-67315476D01*
X159361904Y-67267857D01*
X159266666Y-67267857D01*
X159171428Y-67315476D01*
X159123809Y-67363095D01*
X159076190Y-67458333D01*
X159028571Y-67648809D01*
X158980952Y-67744047D01*
X158933333Y-67791666D01*
X158838095Y-67839285D01*
X158742857Y-67839285D01*
X158647619Y-67791666D01*
X158600000Y-67744047D01*
X158552380Y-67648809D01*
X158552380Y-67410714D01*
X158600000Y-67267857D01*
X159028571Y-66505952D02*
X159076190Y-66363095D01*
X159123809Y-66315476D01*
X159219047Y-66267857D01*
X159361904Y-66267857D01*
X159457142Y-66315476D01*
X159504761Y-66363095D01*
X159552380Y-66458333D01*
X159552380Y-66839285D01*
X158552380Y-66839285D01*
X158552380Y-66505952D01*
X158600000Y-66410714D01*
X158647619Y-66363095D01*
X158742857Y-66315476D01*
X158838095Y-66315476D01*
X158933333Y-66363095D01*
X158980952Y-66410714D01*
X159028571Y-66505952D01*
X159028571Y-66839285D01*
X159552380Y-65077380D02*
X158552380Y-65077380D01*
X158552380Y-64696428D01*
X158600000Y-64601190D01*
X158647619Y-64553571D01*
X158742857Y-64505952D01*
X158885714Y-64505952D01*
X158980952Y-64553571D01*
X159028571Y-64601190D01*
X159076190Y-64696428D01*
X159076190Y-65077380D01*
X158552380Y-64172619D02*
X159552380Y-63934523D01*
X158838095Y-63744047D01*
X159552380Y-63553571D01*
X158552380Y-63315476D01*
X159552380Y-62363095D02*
X159076190Y-62696428D01*
X159552380Y-62934523D02*
X158552380Y-62934523D01*
X158552380Y-62553571D01*
X158600000Y-62458333D01*
X158647619Y-62410714D01*
X158742857Y-62363095D01*
X158885714Y-62363095D01*
X158980952Y-62410714D01*
X159028571Y-62458333D01*
X159076190Y-62553571D01*
X159076190Y-62934523D01*
D11*
X130350000Y-75807142D02*
X130350000Y-74907142D01*
X130692857Y-74907142D01*
X130778571Y-74950000D01*
X130821428Y-74992857D01*
X130864285Y-75078571D01*
X130864285Y-75207142D01*
X130821428Y-75292857D01*
X130778571Y-75335714D01*
X130692857Y-75378571D01*
X130350000Y-75378571D01*
X131207142Y-75550000D02*
X131635714Y-75550000D01*
X131121428Y-75807142D02*
X131421428Y-74907142D01*
X131721428Y-75807142D01*
X132192857Y-74907142D02*
X132278571Y-74907142D01*
X132364285Y-74950000D01*
X132407142Y-74992857D01*
X132450000Y-75078571D01*
X132492857Y-75250000D01*
X132492857Y-75464285D01*
X132450000Y-75635714D01*
X132407142Y-75721428D01*
X132364285Y-75764285D01*
X132278571Y-75807142D01*
X132192857Y-75807142D01*
X132107142Y-75764285D01*
X132064285Y-75721428D01*
X132021428Y-75635714D01*
X131978571Y-75464285D01*
X131978571Y-75250000D01*
X132021428Y-75078571D01*
X132064285Y-74992857D01*
X132107142Y-74950000D01*
X132192857Y-74907142D01*
X203279285Y-83632142D02*
X203279285Y-82732142D01*
X203622142Y-82732142D01*
X203707857Y-82775000D01*
X203750714Y-82817857D01*
X203793571Y-82903571D01*
X203793571Y-83032142D01*
X203750714Y-83117857D01*
X203707857Y-83160714D01*
X203622142Y-83203571D01*
X203279285Y-83203571D01*
X204479285Y-83160714D02*
X204607857Y-83203571D01*
X204650714Y-83246428D01*
X204693571Y-83332142D01*
X204693571Y-83460714D01*
X204650714Y-83546428D01*
X204607857Y-83589285D01*
X204522142Y-83632142D01*
X204179285Y-83632142D01*
X204179285Y-82732142D01*
X204479285Y-82732142D01*
X204565000Y-82775000D01*
X204607857Y-82817857D01*
X204650714Y-82903571D01*
X204650714Y-82989285D01*
X204607857Y-83075000D01*
X204565000Y-83117857D01*
X204479285Y-83160714D01*
X204179285Y-83160714D01*
X205465000Y-83032142D02*
X205465000Y-83632142D01*
X205250714Y-82689285D02*
X205036428Y-83332142D01*
X205593571Y-83332142D01*
X203518571Y-85257142D02*
X204075714Y-85257142D01*
X203775714Y-85600000D01*
X203904285Y-85600000D01*
X203990000Y-85642857D01*
X204032857Y-85685714D01*
X204075714Y-85771428D01*
X204075714Y-85985714D01*
X204032857Y-86071428D01*
X203990000Y-86114285D01*
X203904285Y-86157142D01*
X203647142Y-86157142D01*
X203561428Y-86114285D01*
X203518571Y-86071428D01*
X204332857Y-85257142D02*
X204632857Y-86157142D01*
X204932857Y-85257142D01*
X205147142Y-85257142D02*
X205704285Y-85257142D01*
X205404285Y-85600000D01*
X205532857Y-85600000D01*
X205618571Y-85642857D01*
X205661428Y-85685714D01*
X205704285Y-85771428D01*
X205704285Y-85985714D01*
X205661428Y-86071428D01*
X205618571Y-86114285D01*
X205532857Y-86157142D01*
X205275714Y-86157142D01*
X205190000Y-86114285D01*
X205147142Y-86071428D01*
D10*
X142404761Y-74261904D02*
X142452380Y-74119047D01*
X142452380Y-73880952D01*
X142404761Y-73785714D01*
X142357142Y-73738095D01*
X142261904Y-73690476D01*
X142166666Y-73690476D01*
X142071428Y-73738095D01*
X142023809Y-73785714D01*
X141976190Y-73880952D01*
X141928571Y-74071428D01*
X141880952Y-74166666D01*
X141833333Y-74214285D01*
X141738095Y-74261904D01*
X141642857Y-74261904D01*
X141547619Y-74214285D01*
X141500000Y-74166666D01*
X141452380Y-74071428D01*
X141452380Y-73833333D01*
X141500000Y-73690476D01*
X141452380Y-73357142D02*
X142452380Y-73119047D01*
X141738095Y-72928571D01*
X142452380Y-72738095D01*
X141452380Y-72500000D01*
X142357142Y-71547619D02*
X142404761Y-71595238D01*
X142452380Y-71738095D01*
X142452380Y-71833333D01*
X142404761Y-71976190D01*
X142309523Y-72071428D01*
X142214285Y-72119047D01*
X142023809Y-72166666D01*
X141880952Y-72166666D01*
X141690476Y-72119047D01*
X141595238Y-72071428D01*
X141500000Y-71976190D01*
X141452380Y-71833333D01*
X141452380Y-71738095D01*
X141500000Y-71595238D01*
X141547619Y-71547619D01*
X142452380Y-70642857D02*
X142452380Y-71119047D01*
X141452380Y-71119047D01*
X142452380Y-70309523D02*
X141452380Y-70309523D01*
X142452380Y-69738095D02*
X141880952Y-70166666D01*
X141452380Y-69738095D02*
X142023809Y-70309523D01*
D11*
X203750714Y-86575000D02*
X203665000Y-86532142D01*
X203536428Y-86532142D01*
X203407857Y-86575000D01*
X203322142Y-86660714D01*
X203279285Y-86746428D01*
X203236428Y-86917857D01*
X203236428Y-87046428D01*
X203279285Y-87217857D01*
X203322142Y-87303571D01*
X203407857Y-87389285D01*
X203536428Y-87432142D01*
X203622142Y-87432142D01*
X203750714Y-87389285D01*
X203793571Y-87346428D01*
X203793571Y-87046428D01*
X203622142Y-87046428D01*
X204179285Y-87432142D02*
X204179285Y-86532142D01*
X204693571Y-87432142D01*
X204693571Y-86532142D01*
X205122142Y-87432142D02*
X205122142Y-86532142D01*
X205336428Y-86532142D01*
X205465000Y-86575000D01*
X205550714Y-86660714D01*
X205593571Y-86746428D01*
X205636428Y-86917857D01*
X205636428Y-87046428D01*
X205593571Y-87217857D01*
X205550714Y-87303571D01*
X205465000Y-87389285D01*
X205336428Y-87432142D01*
X205122142Y-87432142D01*
X130285714Y-98632142D02*
X130285714Y-97732142D01*
X130628571Y-97732142D01*
X130714285Y-97775000D01*
X130757142Y-97817857D01*
X130800000Y-97903571D01*
X130800000Y-98032142D01*
X130757142Y-98117857D01*
X130714285Y-98160714D01*
X130628571Y-98203571D01*
X130285714Y-98203571D01*
X131485714Y-98160714D02*
X131614285Y-98203571D01*
X131657142Y-98246428D01*
X131700000Y-98332142D01*
X131700000Y-98460714D01*
X131657142Y-98546428D01*
X131614285Y-98589285D01*
X131528571Y-98632142D01*
X131185714Y-98632142D01*
X131185714Y-97732142D01*
X131485714Y-97732142D01*
X131571428Y-97775000D01*
X131614285Y-97817857D01*
X131657142Y-97903571D01*
X131657142Y-97989285D01*
X131614285Y-98075000D01*
X131571428Y-98117857D01*
X131485714Y-98160714D01*
X131185714Y-98160714D01*
X132557142Y-98632142D02*
X132042857Y-98632142D01*
X132300000Y-98632142D02*
X132300000Y-97732142D01*
X132214285Y-97860714D01*
X132128571Y-97946428D01*
X132042857Y-97989285D01*
X130350000Y-80857142D02*
X130350000Y-79957142D01*
X130692857Y-79957142D01*
X130778571Y-80000000D01*
X130821428Y-80042857D01*
X130864285Y-80128571D01*
X130864285Y-80257142D01*
X130821428Y-80342857D01*
X130778571Y-80385714D01*
X130692857Y-80428571D01*
X130350000Y-80428571D01*
X131207142Y-80600000D02*
X131635714Y-80600000D01*
X131121428Y-80857142D02*
X131421428Y-79957142D01*
X131721428Y-80857142D01*
X132407142Y-80257142D02*
X132407142Y-80857142D01*
X132192857Y-79914285D02*
X131978571Y-80557142D01*
X132535714Y-80557142D01*
X203279285Y-82357142D02*
X203279285Y-81457142D01*
X203622142Y-81457142D01*
X203707857Y-81500000D01*
X203750714Y-81542857D01*
X203793571Y-81628571D01*
X203793571Y-81757142D01*
X203750714Y-81842857D01*
X203707857Y-81885714D01*
X203622142Y-81928571D01*
X203279285Y-81928571D01*
X204479285Y-81885714D02*
X204607857Y-81928571D01*
X204650714Y-81971428D01*
X204693571Y-82057142D01*
X204693571Y-82185714D01*
X204650714Y-82271428D01*
X204607857Y-82314285D01*
X204522142Y-82357142D01*
X204179285Y-82357142D01*
X204179285Y-81457142D01*
X204479285Y-81457142D01*
X204565000Y-81500000D01*
X204607857Y-81542857D01*
X204650714Y-81628571D01*
X204650714Y-81714285D01*
X204607857Y-81800000D01*
X204565000Y-81842857D01*
X204479285Y-81885714D01*
X204179285Y-81885714D01*
X205507857Y-81457142D02*
X205079285Y-81457142D01*
X205036428Y-81885714D01*
X205079285Y-81842857D01*
X205165000Y-81800000D01*
X205379285Y-81800000D01*
X205465000Y-81842857D01*
X205507857Y-81885714D01*
X205550714Y-81971428D01*
X205550714Y-82185714D01*
X205507857Y-82271428D01*
X205465000Y-82314285D01*
X205379285Y-82357142D01*
X205165000Y-82357142D01*
X205079285Y-82314285D01*
X205036428Y-82271428D01*
X203750714Y-99300000D02*
X203665000Y-99257142D01*
X203536428Y-99257142D01*
X203407857Y-99300000D01*
X203322142Y-99385714D01*
X203279285Y-99471428D01*
X203236428Y-99642857D01*
X203236428Y-99771428D01*
X203279285Y-99942857D01*
X203322142Y-100028571D01*
X203407857Y-100114285D01*
X203536428Y-100157142D01*
X203622142Y-100157142D01*
X203750714Y-100114285D01*
X203793571Y-100071428D01*
X203793571Y-99771428D01*
X203622142Y-99771428D01*
X204179285Y-100157142D02*
X204179285Y-99257142D01*
X204693571Y-100157142D01*
X204693571Y-99257142D01*
X205122142Y-100157142D02*
X205122142Y-99257142D01*
X205336428Y-99257142D01*
X205465000Y-99300000D01*
X205550714Y-99385714D01*
X205593571Y-99471428D01*
X205636428Y-99642857D01*
X205636428Y-99771428D01*
X205593571Y-99942857D01*
X205550714Y-100028571D01*
X205465000Y-100114285D01*
X205336428Y-100157142D01*
X205122142Y-100157142D01*
D10*
X144804761Y-73919047D02*
X144852380Y-73776190D01*
X144852380Y-73538095D01*
X144804761Y-73442857D01*
X144757142Y-73395238D01*
X144661904Y-73347619D01*
X144566666Y-73347619D01*
X144471428Y-73395238D01*
X144423809Y-73442857D01*
X144376190Y-73538095D01*
X144328571Y-73728571D01*
X144280952Y-73823809D01*
X144233333Y-73871428D01*
X144138095Y-73919047D01*
X144042857Y-73919047D01*
X143947619Y-73871428D01*
X143900000Y-73823809D01*
X143852380Y-73728571D01*
X143852380Y-73490476D01*
X143900000Y-73347619D01*
X143852380Y-73014285D02*
X144852380Y-72776190D01*
X144138095Y-72585714D01*
X144852380Y-72395238D01*
X143852380Y-72157142D01*
X144852380Y-71776190D02*
X143852380Y-71776190D01*
X143852380Y-71538095D01*
X143900000Y-71395238D01*
X143995238Y-71300000D01*
X144090476Y-71252380D01*
X144280952Y-71204761D01*
X144423809Y-71204761D01*
X144614285Y-71252380D01*
X144709523Y-71300000D01*
X144804761Y-71395238D01*
X144852380Y-71538095D01*
X144852380Y-71776190D01*
X144852380Y-70776190D02*
X143852380Y-70776190D01*
X143852380Y-70109523D02*
X143852380Y-69919047D01*
X143900000Y-69823809D01*
X143995238Y-69728571D01*
X144185714Y-69680952D01*
X144519047Y-69680952D01*
X144709523Y-69728571D01*
X144804761Y-69823809D01*
X144852380Y-69919047D01*
X144852380Y-70109523D01*
X144804761Y-70204761D01*
X144709523Y-70300000D01*
X144519047Y-70347619D01*
X144185714Y-70347619D01*
X143995238Y-70300000D01*
X143900000Y-70204761D01*
X143852380Y-70109523D01*
D11*
X130285714Y-85032142D02*
X130842857Y-85032142D01*
X130542857Y-85375000D01*
X130671428Y-85375000D01*
X130757142Y-85417857D01*
X130800000Y-85460714D01*
X130842857Y-85546428D01*
X130842857Y-85760714D01*
X130800000Y-85846428D01*
X130757142Y-85889285D01*
X130671428Y-85932142D01*
X130414285Y-85932142D01*
X130328571Y-85889285D01*
X130285714Y-85846428D01*
X131100000Y-85032142D02*
X131400000Y-85932142D01*
X131700000Y-85032142D01*
X131914285Y-85032142D02*
X132471428Y-85032142D01*
X132171428Y-85375000D01*
X132300000Y-85375000D01*
X132385714Y-85417857D01*
X132428571Y-85460714D01*
X132471428Y-85546428D01*
X132471428Y-85760714D01*
X132428571Y-85846428D01*
X132385714Y-85889285D01*
X132300000Y-85932142D01*
X132042857Y-85932142D01*
X131957142Y-85889285D01*
X131914285Y-85846428D01*
X130350000Y-82132142D02*
X130350000Y-81232142D01*
X130692857Y-81232142D01*
X130778571Y-81275000D01*
X130821428Y-81317857D01*
X130864285Y-81403571D01*
X130864285Y-81532142D01*
X130821428Y-81617857D01*
X130778571Y-81660714D01*
X130692857Y-81703571D01*
X130350000Y-81703571D01*
X131207142Y-81875000D02*
X131635714Y-81875000D01*
X131121428Y-82132142D02*
X131421428Y-81232142D01*
X131721428Y-82132142D01*
X132450000Y-81232142D02*
X132021428Y-81232142D01*
X131978571Y-81660714D01*
X132021428Y-81617857D01*
X132107142Y-81575000D01*
X132321428Y-81575000D01*
X132407142Y-81617857D01*
X132450000Y-81660714D01*
X132492857Y-81746428D01*
X132492857Y-81960714D01*
X132450000Y-82046428D01*
X132407142Y-82089285D01*
X132321428Y-82132142D01*
X132107142Y-82132142D01*
X132021428Y-82089285D01*
X131978571Y-82046428D01*
X203504285Y-91232142D02*
X203504285Y-90332142D01*
X203847142Y-90332142D01*
X203932857Y-90375000D01*
X203975714Y-90417857D01*
X204018571Y-90503571D01*
X204018571Y-90632142D01*
X203975714Y-90717857D01*
X203932857Y-90760714D01*
X203847142Y-90803571D01*
X203504285Y-90803571D01*
X204361428Y-90975000D02*
X204790000Y-90975000D01*
X204275714Y-91232142D02*
X204575714Y-90332142D01*
X204875714Y-91232142D01*
X205475714Y-90760714D02*
X205604285Y-90803571D01*
X205647142Y-90846428D01*
X205690000Y-90932142D01*
X205690000Y-91060714D01*
X205647142Y-91146428D01*
X205604285Y-91189285D01*
X205518571Y-91232142D01*
X205175714Y-91232142D01*
X205175714Y-90332142D01*
X205475714Y-90332142D01*
X205561428Y-90375000D01*
X205604285Y-90417857D01*
X205647142Y-90503571D01*
X205647142Y-90589285D01*
X205604285Y-90675000D01*
X205561428Y-90717857D01*
X205475714Y-90760714D01*
X205175714Y-90760714D01*
X203443571Y-97982142D02*
X204000714Y-97982142D01*
X203700714Y-98325000D01*
X203829285Y-98325000D01*
X203915000Y-98367857D01*
X203957857Y-98410714D01*
X204000714Y-98496428D01*
X204000714Y-98710714D01*
X203957857Y-98796428D01*
X203915000Y-98839285D01*
X203829285Y-98882142D01*
X203572142Y-98882142D01*
X203486428Y-98839285D01*
X203443571Y-98796428D01*
X204257857Y-97982142D02*
X204557857Y-98882142D01*
X204857857Y-97982142D01*
X205072142Y-97982142D02*
X205629285Y-97982142D01*
X205329285Y-98325000D01*
X205457857Y-98325000D01*
X205543571Y-98367857D01*
X205586428Y-98410714D01*
X205629285Y-98496428D01*
X205629285Y-98710714D01*
X205586428Y-98796428D01*
X205543571Y-98839285D01*
X205457857Y-98882142D01*
X205200714Y-98882142D01*
X205115000Y-98839285D01*
X205072142Y-98796428D01*
X203504285Y-92507142D02*
X203504285Y-91607142D01*
X203847142Y-91607142D01*
X203932857Y-91650000D01*
X203975714Y-91692857D01*
X204018571Y-91778571D01*
X204018571Y-91907142D01*
X203975714Y-91992857D01*
X203932857Y-92035714D01*
X203847142Y-92078571D01*
X203504285Y-92078571D01*
X204361428Y-92250000D02*
X204790000Y-92250000D01*
X204275714Y-92507142D02*
X204575714Y-91607142D01*
X204875714Y-92507142D01*
X205132857Y-92250000D02*
X205561428Y-92250000D01*
X205047142Y-92507142D02*
X205347142Y-91607142D01*
X205647142Y-92507142D01*
X130350000Y-84657142D02*
X130350000Y-83757142D01*
X130692857Y-83757142D01*
X130778571Y-83800000D01*
X130821428Y-83842857D01*
X130864285Y-83928571D01*
X130864285Y-84057142D01*
X130821428Y-84142857D01*
X130778571Y-84185714D01*
X130692857Y-84228571D01*
X130350000Y-84228571D01*
X131207142Y-84400000D02*
X131635714Y-84400000D01*
X131121428Y-84657142D02*
X131421428Y-83757142D01*
X131721428Y-84657142D01*
X131935714Y-83757142D02*
X132535714Y-83757142D01*
X132150000Y-84657142D01*
X130285714Y-99907142D02*
X130285714Y-99007142D01*
X130628571Y-99007142D01*
X130714285Y-99050000D01*
X130757142Y-99092857D01*
X130800000Y-99178571D01*
X130800000Y-99307142D01*
X130757142Y-99392857D01*
X130714285Y-99435714D01*
X130628571Y-99478571D01*
X130285714Y-99478571D01*
X131485714Y-99435714D02*
X131614285Y-99478571D01*
X131657142Y-99521428D01*
X131700000Y-99607142D01*
X131700000Y-99735714D01*
X131657142Y-99821428D01*
X131614285Y-99864285D01*
X131528571Y-99907142D01*
X131185714Y-99907142D01*
X131185714Y-99007142D01*
X131485714Y-99007142D01*
X131571428Y-99050000D01*
X131614285Y-99092857D01*
X131657142Y-99178571D01*
X131657142Y-99264285D01*
X131614285Y-99350000D01*
X131571428Y-99392857D01*
X131485714Y-99435714D01*
X131185714Y-99435714D01*
X132042857Y-99092857D02*
X132085714Y-99050000D01*
X132171428Y-99007142D01*
X132385714Y-99007142D01*
X132471428Y-99050000D01*
X132514285Y-99092857D01*
X132557142Y-99178571D01*
X132557142Y-99264285D01*
X132514285Y-99392857D01*
X132000000Y-99907142D01*
X132557142Y-99907142D01*
X130285714Y-88482142D02*
X130285714Y-87582142D01*
X130628571Y-87582142D01*
X130714285Y-87625000D01*
X130757142Y-87667857D01*
X130800000Y-87753571D01*
X130800000Y-87882142D01*
X130757142Y-87967857D01*
X130714285Y-88010714D01*
X130628571Y-88053571D01*
X130285714Y-88053571D01*
X131485714Y-88010714D02*
X131614285Y-88053571D01*
X131657142Y-88096428D01*
X131700000Y-88182142D01*
X131700000Y-88310714D01*
X131657142Y-88396428D01*
X131614285Y-88439285D01*
X131528571Y-88482142D01*
X131185714Y-88482142D01*
X131185714Y-87582142D01*
X131485714Y-87582142D01*
X131571428Y-87625000D01*
X131614285Y-87667857D01*
X131657142Y-87753571D01*
X131657142Y-87839285D01*
X131614285Y-87925000D01*
X131571428Y-87967857D01*
X131485714Y-88010714D01*
X131185714Y-88010714D01*
X132257142Y-87582142D02*
X132342857Y-87582142D01*
X132428571Y-87625000D01*
X132471428Y-87667857D01*
X132514285Y-87753571D01*
X132557142Y-87925000D01*
X132557142Y-88139285D01*
X132514285Y-88310714D01*
X132471428Y-88396428D01*
X132428571Y-88439285D01*
X132342857Y-88482142D01*
X132257142Y-88482142D01*
X132171428Y-88439285D01*
X132128571Y-88396428D01*
X132085714Y-88310714D01*
X132042857Y-88139285D01*
X132042857Y-87925000D01*
X132085714Y-87753571D01*
X132128571Y-87667857D01*
X132171428Y-87625000D01*
X132257142Y-87582142D01*
D10*
%TO.C,R8*%
X196052380Y-80366666D02*
X195576190Y-80700000D01*
X196052380Y-80938095D02*
X195052380Y-80938095D01*
X195052380Y-80557142D01*
X195100000Y-80461904D01*
X195147619Y-80414285D01*
X195242857Y-80366666D01*
X195385714Y-80366666D01*
X195480952Y-80414285D01*
X195528571Y-80461904D01*
X195576190Y-80557142D01*
X195576190Y-80938095D01*
X195480952Y-79795238D02*
X195433333Y-79890476D01*
X195385714Y-79938095D01*
X195290476Y-79985714D01*
X195242857Y-79985714D01*
X195147619Y-79938095D01*
X195100000Y-79890476D01*
X195052380Y-79795238D01*
X195052380Y-79604761D01*
X195100000Y-79509523D01*
X195147619Y-79461904D01*
X195242857Y-79414285D01*
X195290476Y-79414285D01*
X195385714Y-79461904D01*
X195433333Y-79509523D01*
X195480952Y-79604761D01*
X195480952Y-79795238D01*
X195528571Y-79890476D01*
X195576190Y-79938095D01*
X195671428Y-79985714D01*
X195861904Y-79985714D01*
X195957142Y-79938095D01*
X196004761Y-79890476D01*
X196052380Y-79795238D01*
X196052380Y-79604761D01*
X196004761Y-79509523D01*
X195957142Y-79461904D01*
X195861904Y-79414285D01*
X195671428Y-79414285D01*
X195576190Y-79461904D01*
X195528571Y-79509523D01*
X195480952Y-79604761D01*
%TO.C,SW1*%
X188750666Y-76256761D02*
X188893523Y-76304380D01*
X189131619Y-76304380D01*
X189226857Y-76256761D01*
X189274476Y-76209142D01*
X189322095Y-76113904D01*
X189322095Y-76018666D01*
X189274476Y-75923428D01*
X189226857Y-75875809D01*
X189131619Y-75828190D01*
X188941142Y-75780571D01*
X188845904Y-75732952D01*
X188798285Y-75685333D01*
X188750666Y-75590095D01*
X188750666Y-75494857D01*
X188798285Y-75399619D01*
X188845904Y-75352000D01*
X188941142Y-75304380D01*
X189179238Y-75304380D01*
X189322095Y-75352000D01*
X189655428Y-75304380D02*
X189893523Y-76304380D01*
X190084000Y-75590095D01*
X190274476Y-76304380D01*
X190512571Y-75304380D01*
X191417333Y-76304380D02*
X190845904Y-76304380D01*
X191131619Y-76304380D02*
X191131619Y-75304380D01*
X191036380Y-75447238D01*
X190941142Y-75542476D01*
X190845904Y-75590095D01*
%TO.C,C3*%
X166757142Y-81566666D02*
X166804761Y-81614285D01*
X166852380Y-81757142D01*
X166852380Y-81852380D01*
X166804761Y-81995238D01*
X166709523Y-82090476D01*
X166614285Y-82138095D01*
X166423809Y-82185714D01*
X166280952Y-82185714D01*
X166090476Y-82138095D01*
X165995238Y-82090476D01*
X165900000Y-81995238D01*
X165852380Y-81852380D01*
X165852380Y-81757142D01*
X165900000Y-81614285D01*
X165947619Y-81566666D01*
X165852380Y-81233333D02*
X165852380Y-80614285D01*
X166233333Y-80947619D01*
X166233333Y-80804761D01*
X166280952Y-80709523D01*
X166328571Y-80661904D01*
X166423809Y-80614285D01*
X166661904Y-80614285D01*
X166757142Y-80661904D01*
X166804761Y-80709523D01*
X166852380Y-80804761D01*
X166852380Y-81090476D01*
X166804761Y-81185714D01*
X166757142Y-81233333D01*
%TO.C,SW3*%
X188750666Y-92256761D02*
X188893523Y-92304380D01*
X189131619Y-92304380D01*
X189226857Y-92256761D01*
X189274476Y-92209142D01*
X189322095Y-92113904D01*
X189322095Y-92018666D01*
X189274476Y-91923428D01*
X189226857Y-91875809D01*
X189131619Y-91828190D01*
X188941142Y-91780571D01*
X188845904Y-91732952D01*
X188798285Y-91685333D01*
X188750666Y-91590095D01*
X188750666Y-91494857D01*
X188798285Y-91399619D01*
X188845904Y-91352000D01*
X188941142Y-91304380D01*
X189179238Y-91304380D01*
X189322095Y-91352000D01*
X189655428Y-91304380D02*
X189893523Y-92304380D01*
X190084000Y-91590095D01*
X190274476Y-92304380D01*
X190512571Y-91304380D01*
X190798285Y-91304380D02*
X191417333Y-91304380D01*
X191084000Y-91685333D01*
X191226857Y-91685333D01*
X191322095Y-91732952D01*
X191369714Y-91780571D01*
X191417333Y-91875809D01*
X191417333Y-92113904D01*
X191369714Y-92209142D01*
X191322095Y-92256761D01*
X191226857Y-92304380D01*
X190941142Y-92304380D01*
X190845904Y-92256761D01*
X190798285Y-92209142D01*
%TO.C,F1*%
X164128571Y-74333333D02*
X164128571Y-74666666D01*
X164652380Y-74666666D02*
X163652380Y-74666666D01*
X163652380Y-74190476D01*
X164652380Y-73285714D02*
X164652380Y-73857142D01*
X164652380Y-73571428D02*
X163652380Y-73571428D01*
X163795238Y-73666666D01*
X163890476Y-73761904D01*
X163938095Y-73857142D01*
%TO.C,C1*%
X159699642Y-75324166D02*
X159747261Y-75371785D01*
X159794880Y-75514642D01*
X159794880Y-75609880D01*
X159747261Y-75752738D01*
X159652023Y-75847976D01*
X159556785Y-75895595D01*
X159366309Y-75943214D01*
X159223452Y-75943214D01*
X159032976Y-75895595D01*
X158937738Y-75847976D01*
X158842500Y-75752738D01*
X158794880Y-75609880D01*
X158794880Y-75514642D01*
X158842500Y-75371785D01*
X158890119Y-75324166D01*
X159794880Y-74371785D02*
X159794880Y-74943214D01*
X159794880Y-74657500D02*
X158794880Y-74657500D01*
X158937738Y-74752738D01*
X159032976Y-74847976D01*
X159080595Y-74943214D01*
%TO.C,HSE1*%
X149534523Y-80227380D02*
X149534523Y-79227380D01*
X149534523Y-79703571D02*
X150105952Y-79703571D01*
X150105952Y-80227380D02*
X150105952Y-79227380D01*
X150534523Y-80179761D02*
X150677380Y-80227380D01*
X150915476Y-80227380D01*
X151010714Y-80179761D01*
X151058333Y-80132142D01*
X151105952Y-80036904D01*
X151105952Y-79941666D01*
X151058333Y-79846428D01*
X151010714Y-79798809D01*
X150915476Y-79751190D01*
X150725000Y-79703571D01*
X150629761Y-79655952D01*
X150582142Y-79608333D01*
X150534523Y-79513095D01*
X150534523Y-79417857D01*
X150582142Y-79322619D01*
X150629761Y-79275000D01*
X150725000Y-79227380D01*
X150963095Y-79227380D01*
X151105952Y-79275000D01*
X151534523Y-79703571D02*
X151867857Y-79703571D01*
X152010714Y-80227380D02*
X151534523Y-80227380D01*
X151534523Y-79227380D01*
X152010714Y-79227380D01*
X152963095Y-80227380D02*
X152391666Y-80227380D01*
X152677380Y-80227380D02*
X152677380Y-79227380D01*
X152582142Y-79370238D01*
X152486904Y-79465476D01*
X152391666Y-79513095D01*
%TO.C,R9*%
X167052380Y-70766666D02*
X166576190Y-71100000D01*
X167052380Y-71338095D02*
X166052380Y-71338095D01*
X166052380Y-70957142D01*
X166100000Y-70861904D01*
X166147619Y-70814285D01*
X166242857Y-70766666D01*
X166385714Y-70766666D01*
X166480952Y-70814285D01*
X166528571Y-70861904D01*
X166576190Y-70957142D01*
X166576190Y-71338095D01*
X167052380Y-70290476D02*
X167052380Y-70100000D01*
X167004761Y-70004761D01*
X166957142Y-69957142D01*
X166814285Y-69861904D01*
X166623809Y-69814285D01*
X166242857Y-69814285D01*
X166147619Y-69861904D01*
X166100000Y-69909523D01*
X166052380Y-70004761D01*
X166052380Y-70195238D01*
X166100000Y-70290476D01*
X166147619Y-70338095D01*
X166242857Y-70385714D01*
X166480952Y-70385714D01*
X166576190Y-70338095D01*
X166623809Y-70290476D01*
X166671428Y-70195238D01*
X166671428Y-70004761D01*
X166623809Y-69909523D01*
X166576190Y-69861904D01*
X166480952Y-69814285D01*
%TO.C,R2*%
X139452380Y-90338666D02*
X138976190Y-90672000D01*
X139452380Y-90910095D02*
X138452380Y-90910095D01*
X138452380Y-90529142D01*
X138500000Y-90433904D01*
X138547619Y-90386285D01*
X138642857Y-90338666D01*
X138785714Y-90338666D01*
X138880952Y-90386285D01*
X138928571Y-90433904D01*
X138976190Y-90529142D01*
X138976190Y-90910095D01*
X138547619Y-89957714D02*
X138500000Y-89910095D01*
X138452380Y-89814857D01*
X138452380Y-89576761D01*
X138500000Y-89481523D01*
X138547619Y-89433904D01*
X138642857Y-89386285D01*
X138738095Y-89386285D01*
X138880952Y-89433904D01*
X139452380Y-90005333D01*
X139452380Y-89386285D01*
%TO.C,FB1*%
X163516666Y-77628571D02*
X163183333Y-77628571D01*
X163183333Y-78152380D02*
X163183333Y-77152380D01*
X163659523Y-77152380D01*
X164373809Y-77628571D02*
X164516666Y-77676190D01*
X164564285Y-77723809D01*
X164611904Y-77819047D01*
X164611904Y-77961904D01*
X164564285Y-78057142D01*
X164516666Y-78104761D01*
X164421428Y-78152380D01*
X164040476Y-78152380D01*
X164040476Y-77152380D01*
X164373809Y-77152380D01*
X164469047Y-77200000D01*
X164516666Y-77247619D01*
X164564285Y-77342857D01*
X164564285Y-77438095D01*
X164516666Y-77533333D01*
X164469047Y-77580952D01*
X164373809Y-77628571D01*
X164040476Y-77628571D01*
X165564285Y-78152380D02*
X164992857Y-78152380D01*
X165278571Y-78152380D02*
X165278571Y-77152380D01*
X165183333Y-77295238D01*
X165088095Y-77390476D01*
X164992857Y-77438095D01*
%TO.C,C5*%
X162099642Y-75949166D02*
X162147261Y-75996785D01*
X162194880Y-76139642D01*
X162194880Y-76234880D01*
X162147261Y-76377738D01*
X162052023Y-76472976D01*
X161956785Y-76520595D01*
X161766309Y-76568214D01*
X161623452Y-76568214D01*
X161432976Y-76520595D01*
X161337738Y-76472976D01*
X161242500Y-76377738D01*
X161194880Y-76234880D01*
X161194880Y-76139642D01*
X161242500Y-75996785D01*
X161290119Y-75949166D01*
X161194880Y-75044404D02*
X161194880Y-75520595D01*
X161671071Y-75568214D01*
X161623452Y-75520595D01*
X161575833Y-75425357D01*
X161575833Y-75187261D01*
X161623452Y-75092023D01*
X161671071Y-75044404D01*
X161766309Y-74996785D01*
X162004404Y-74996785D01*
X162099642Y-75044404D01*
X162147261Y-75092023D01*
X162194880Y-75187261D01*
X162194880Y-75425357D01*
X162147261Y-75520595D01*
X162099642Y-75568214D01*
%TO.C,C2*%
X156357142Y-82766666D02*
X156404761Y-82814285D01*
X156452380Y-82957142D01*
X156452380Y-83052380D01*
X156404761Y-83195238D01*
X156309523Y-83290476D01*
X156214285Y-83338095D01*
X156023809Y-83385714D01*
X155880952Y-83385714D01*
X155690476Y-83338095D01*
X155595238Y-83290476D01*
X155500000Y-83195238D01*
X155452380Y-83052380D01*
X155452380Y-82957142D01*
X155500000Y-82814285D01*
X155547619Y-82766666D01*
X155547619Y-82385714D02*
X155500000Y-82338095D01*
X155452380Y-82242857D01*
X155452380Y-82004761D01*
X155500000Y-81909523D01*
X155547619Y-81861904D01*
X155642857Y-81814285D01*
X155738095Y-81814285D01*
X155880952Y-81861904D01*
X156452380Y-82433333D01*
X156452380Y-81814285D01*
%TO.C,PC1*%
X134361904Y-90452380D02*
X134361904Y-89452380D01*
X134742857Y-89452380D01*
X134838095Y-89500000D01*
X134885714Y-89547619D01*
X134933333Y-89642857D01*
X134933333Y-89785714D01*
X134885714Y-89880952D01*
X134838095Y-89928571D01*
X134742857Y-89976190D01*
X134361904Y-89976190D01*
X135933333Y-90357142D02*
X135885714Y-90404761D01*
X135742857Y-90452380D01*
X135647619Y-90452380D01*
X135504761Y-90404761D01*
X135409523Y-90309523D01*
X135361904Y-90214285D01*
X135314285Y-90023809D01*
X135314285Y-89880952D01*
X135361904Y-89690476D01*
X135409523Y-89595238D01*
X135504761Y-89500000D01*
X135647619Y-89452380D01*
X135742857Y-89452380D01*
X135885714Y-89500000D01*
X135933333Y-89547619D01*
X136885714Y-90452380D02*
X136314285Y-90452380D01*
X136600000Y-90452380D02*
X136600000Y-89452380D01*
X136504761Y-89595238D01*
X136409523Y-89690476D01*
X136314285Y-89738095D01*
%TO.C,R4*%
X141830380Y-86270666D02*
X141354190Y-86604000D01*
X141830380Y-86842095D02*
X140830380Y-86842095D01*
X140830380Y-86461142D01*
X140878000Y-86365904D01*
X140925619Y-86318285D01*
X141020857Y-86270666D01*
X141163714Y-86270666D01*
X141258952Y-86318285D01*
X141306571Y-86365904D01*
X141354190Y-86461142D01*
X141354190Y-86842095D01*
X141163714Y-85413523D02*
X141830380Y-85413523D01*
X140782761Y-85651619D02*
X141497047Y-85889714D01*
X141497047Y-85270666D01*
%TO.C,C7*%
X174733333Y-68957142D02*
X174685714Y-69004761D01*
X174542857Y-69052380D01*
X174447619Y-69052380D01*
X174304761Y-69004761D01*
X174209523Y-68909523D01*
X174161904Y-68814285D01*
X174114285Y-68623809D01*
X174114285Y-68480952D01*
X174161904Y-68290476D01*
X174209523Y-68195238D01*
X174304761Y-68100000D01*
X174447619Y-68052380D01*
X174542857Y-68052380D01*
X174685714Y-68100000D01*
X174733333Y-68147619D01*
X175066666Y-68052380D02*
X175733333Y-68052380D01*
X175304761Y-69052380D01*
%TO.C,PC4*%
X139230380Y-84804095D02*
X138230380Y-84804095D01*
X138230380Y-84423142D01*
X138278000Y-84327904D01*
X138325619Y-84280285D01*
X138420857Y-84232666D01*
X138563714Y-84232666D01*
X138658952Y-84280285D01*
X138706571Y-84327904D01*
X138754190Y-84423142D01*
X138754190Y-84804095D01*
X139135142Y-83232666D02*
X139182761Y-83280285D01*
X139230380Y-83423142D01*
X139230380Y-83518380D01*
X139182761Y-83661238D01*
X139087523Y-83756476D01*
X138992285Y-83804095D01*
X138801809Y-83851714D01*
X138658952Y-83851714D01*
X138468476Y-83804095D01*
X138373238Y-83756476D01*
X138278000Y-83661238D01*
X138230380Y-83518380D01*
X138230380Y-83423142D01*
X138278000Y-83280285D01*
X138325619Y-83232666D01*
X138563714Y-82375523D02*
X139230380Y-82375523D01*
X138182761Y-82613619D02*
X138897047Y-82851714D01*
X138897047Y-82232666D01*
%TO.C,SW4*%
X179750666Y-84256761D02*
X179893523Y-84304380D01*
X180131619Y-84304380D01*
X180226857Y-84256761D01*
X180274476Y-84209142D01*
X180322095Y-84113904D01*
X180322095Y-84018666D01*
X180274476Y-83923428D01*
X180226857Y-83875809D01*
X180131619Y-83828190D01*
X179941142Y-83780571D01*
X179845904Y-83732952D01*
X179798285Y-83685333D01*
X179750666Y-83590095D01*
X179750666Y-83494857D01*
X179798285Y-83399619D01*
X179845904Y-83352000D01*
X179941142Y-83304380D01*
X180179238Y-83304380D01*
X180322095Y-83352000D01*
X180655428Y-83304380D02*
X180893523Y-84304380D01*
X181084000Y-83590095D01*
X181274476Y-84304380D01*
X181512571Y-83304380D01*
X182322095Y-83637714D02*
X182322095Y-84304380D01*
X182084000Y-83256761D02*
X181845904Y-83971047D01*
X182464952Y-83971047D01*
%TO.C,PC3*%
X143567404Y-87160380D02*
X143567404Y-86160380D01*
X143948357Y-86160380D01*
X144043595Y-86208000D01*
X144091214Y-86255619D01*
X144138833Y-86350857D01*
X144138833Y-86493714D01*
X144091214Y-86588952D01*
X144043595Y-86636571D01*
X143948357Y-86684190D01*
X143567404Y-86684190D01*
X145138833Y-87065142D02*
X145091214Y-87112761D01*
X144948357Y-87160380D01*
X144853119Y-87160380D01*
X144710261Y-87112761D01*
X144615023Y-87017523D01*
X144567404Y-86922285D01*
X144519785Y-86731809D01*
X144519785Y-86588952D01*
X144567404Y-86398476D01*
X144615023Y-86303238D01*
X144710261Y-86208000D01*
X144853119Y-86160380D01*
X144948357Y-86160380D01*
X145091214Y-86208000D01*
X145138833Y-86255619D01*
X145472166Y-86160380D02*
X146091214Y-86160380D01*
X145757880Y-86541333D01*
X145900738Y-86541333D01*
X145995976Y-86588952D01*
X146043595Y-86636571D01*
X146091214Y-86731809D01*
X146091214Y-86969904D01*
X146043595Y-87065142D01*
X145995976Y-87112761D01*
X145900738Y-87160380D01*
X145615023Y-87160380D01*
X145519785Y-87112761D01*
X145472166Y-87065142D01*
%TO.C,R1*%
X138009333Y-87420380D02*
X137676000Y-86944190D01*
X137437904Y-87420380D02*
X137437904Y-86420380D01*
X137818857Y-86420380D01*
X137914095Y-86468000D01*
X137961714Y-86515619D01*
X138009333Y-86610857D01*
X138009333Y-86753714D01*
X137961714Y-86848952D01*
X137914095Y-86896571D01*
X137818857Y-86944190D01*
X137437904Y-86944190D01*
X138961714Y-87420380D02*
X138390285Y-87420380D01*
X138676000Y-87420380D02*
X138676000Y-86420380D01*
X138580761Y-86563238D01*
X138485523Y-86658476D01*
X138390285Y-86706095D01*
%TO.C,J1*%
X133666666Y-61952380D02*
X133666666Y-62666666D01*
X133619047Y-62809523D01*
X133523809Y-62904761D01*
X133380952Y-62952380D01*
X133285714Y-62952380D01*
X134666666Y-62952380D02*
X134095238Y-62952380D01*
X134380952Y-62952380D02*
X134380952Y-61952380D01*
X134285714Y-62095238D01*
X134190476Y-62190476D01*
X134095238Y-62238095D01*
%TO.C,U2*%
X171488095Y-78202380D02*
X171488095Y-79011904D01*
X171535714Y-79107142D01*
X171583333Y-79154761D01*
X171678571Y-79202380D01*
X171869047Y-79202380D01*
X171964285Y-79154761D01*
X172011904Y-79107142D01*
X172059523Y-79011904D01*
X172059523Y-78202380D01*
X172488095Y-78297619D02*
X172535714Y-78250000D01*
X172630952Y-78202380D01*
X172869047Y-78202380D01*
X172964285Y-78250000D01*
X173011904Y-78297619D01*
X173059523Y-78392857D01*
X173059523Y-78488095D01*
X173011904Y-78630952D01*
X172440476Y-79202380D01*
X173059523Y-79202380D01*
%TO.C,C10*%
X153157142Y-83557142D02*
X153109523Y-83604761D01*
X152966666Y-83652380D01*
X152871428Y-83652380D01*
X152728571Y-83604761D01*
X152633333Y-83509523D01*
X152585714Y-83414285D01*
X152538095Y-83223809D01*
X152538095Y-83080952D01*
X152585714Y-82890476D01*
X152633333Y-82795238D01*
X152728571Y-82700000D01*
X152871428Y-82652380D01*
X152966666Y-82652380D01*
X153109523Y-82700000D01*
X153157142Y-82747619D01*
X154109523Y-83652380D02*
X153538095Y-83652380D01*
X153823809Y-83652380D02*
X153823809Y-82652380D01*
X153728571Y-82795238D01*
X153633333Y-82890476D01*
X153538095Y-82938095D01*
X154728571Y-82652380D02*
X154823809Y-82652380D01*
X154919047Y-82700000D01*
X154966666Y-82747619D01*
X155014285Y-82842857D01*
X155061904Y-83033333D01*
X155061904Y-83271428D01*
X155014285Y-83461904D01*
X154966666Y-83557142D01*
X154919047Y-83604761D01*
X154823809Y-83652380D01*
X154728571Y-83652380D01*
X154633333Y-83604761D01*
X154585714Y-83557142D01*
X154538095Y-83461904D01*
X154490476Y-83271428D01*
X154490476Y-83033333D01*
X154538095Y-82842857D01*
X154585714Y-82747619D01*
X154633333Y-82700000D01*
X154728571Y-82652380D01*
%TO.C,R10*%
X172502380Y-66342857D02*
X172026190Y-66676190D01*
X172502380Y-66914285D02*
X171502380Y-66914285D01*
X171502380Y-66533333D01*
X171550000Y-66438095D01*
X171597619Y-66390476D01*
X171692857Y-66342857D01*
X171835714Y-66342857D01*
X171930952Y-66390476D01*
X171978571Y-66438095D01*
X172026190Y-66533333D01*
X172026190Y-66914285D01*
X172502380Y-65390476D02*
X172502380Y-65961904D01*
X172502380Y-65676190D02*
X171502380Y-65676190D01*
X171645238Y-65771428D01*
X171740476Y-65866666D01*
X171788095Y-65961904D01*
X171502380Y-64771428D02*
X171502380Y-64676190D01*
X171550000Y-64580952D01*
X171597619Y-64533333D01*
X171692857Y-64485714D01*
X171883333Y-64438095D01*
X172121428Y-64438095D01*
X172311904Y-64485714D01*
X172407142Y-64533333D01*
X172454761Y-64580952D01*
X172502380Y-64676190D01*
X172502380Y-64771428D01*
X172454761Y-64866666D01*
X172407142Y-64914285D01*
X172311904Y-64961904D01*
X172121428Y-65009523D01*
X171883333Y-65009523D01*
X171692857Y-64961904D01*
X171597619Y-64914285D01*
X171550000Y-64866666D01*
X171502380Y-64771428D01*
%TO.C,R11*%
X173852380Y-66342857D02*
X173376190Y-66676190D01*
X173852380Y-66914285D02*
X172852380Y-66914285D01*
X172852380Y-66533333D01*
X172900000Y-66438095D01*
X172947619Y-66390476D01*
X173042857Y-66342857D01*
X173185714Y-66342857D01*
X173280952Y-66390476D01*
X173328571Y-66438095D01*
X173376190Y-66533333D01*
X173376190Y-66914285D01*
X173852380Y-65390476D02*
X173852380Y-65961904D01*
X173852380Y-65676190D02*
X172852380Y-65676190D01*
X172995238Y-65771428D01*
X173090476Y-65866666D01*
X173138095Y-65961904D01*
X173852380Y-64438095D02*
X173852380Y-65009523D01*
X173852380Y-64723809D02*
X172852380Y-64723809D01*
X172995238Y-64819047D01*
X173090476Y-64914285D01*
X173138095Y-65009523D01*
%TO.C,C8*%
X161527142Y-72072916D02*
X161574761Y-72120535D01*
X161622380Y-72263392D01*
X161622380Y-72358630D01*
X161574761Y-72501488D01*
X161479523Y-72596726D01*
X161384285Y-72644345D01*
X161193809Y-72691964D01*
X161050952Y-72691964D01*
X160860476Y-72644345D01*
X160765238Y-72596726D01*
X160670000Y-72501488D01*
X160622380Y-72358630D01*
X160622380Y-72263392D01*
X160670000Y-72120535D01*
X160717619Y-72072916D01*
X161050952Y-71501488D02*
X161003333Y-71596726D01*
X160955714Y-71644345D01*
X160860476Y-71691964D01*
X160812857Y-71691964D01*
X160717619Y-71644345D01*
X160670000Y-71596726D01*
X160622380Y-71501488D01*
X160622380Y-71311011D01*
X160670000Y-71215773D01*
X160717619Y-71168154D01*
X160812857Y-71120535D01*
X160860476Y-71120535D01*
X160955714Y-71168154D01*
X161003333Y-71215773D01*
X161050952Y-71311011D01*
X161050952Y-71501488D01*
X161098571Y-71596726D01*
X161146190Y-71644345D01*
X161241428Y-71691964D01*
X161431904Y-71691964D01*
X161527142Y-71644345D01*
X161574761Y-71596726D01*
X161622380Y-71501488D01*
X161622380Y-71311011D01*
X161574761Y-71215773D01*
X161527142Y-71168154D01*
X161431904Y-71120535D01*
X161241428Y-71120535D01*
X161146190Y-71168154D01*
X161098571Y-71215773D01*
X161050952Y-71311011D01*
%TO.C,C4*%
X157557142Y-82766666D02*
X157604761Y-82814285D01*
X157652380Y-82957142D01*
X157652380Y-83052380D01*
X157604761Y-83195238D01*
X157509523Y-83290476D01*
X157414285Y-83338095D01*
X157223809Y-83385714D01*
X157080952Y-83385714D01*
X156890476Y-83338095D01*
X156795238Y-83290476D01*
X156700000Y-83195238D01*
X156652380Y-83052380D01*
X156652380Y-82957142D01*
X156700000Y-82814285D01*
X156747619Y-82766666D01*
X156985714Y-81909523D02*
X157652380Y-81909523D01*
X156604761Y-82147619D02*
X157319047Y-82385714D01*
X157319047Y-81766666D01*
%TO.C,R5*%
X199652380Y-80366666D02*
X199176190Y-80700000D01*
X199652380Y-80938095D02*
X198652380Y-80938095D01*
X198652380Y-80557142D01*
X198700000Y-80461904D01*
X198747619Y-80414285D01*
X198842857Y-80366666D01*
X198985714Y-80366666D01*
X199080952Y-80414285D01*
X199128571Y-80461904D01*
X199176190Y-80557142D01*
X199176190Y-80938095D01*
X198652380Y-79461904D02*
X198652380Y-79938095D01*
X199128571Y-79985714D01*
X199080952Y-79938095D01*
X199033333Y-79842857D01*
X199033333Y-79604761D01*
X199080952Y-79509523D01*
X199128571Y-79461904D01*
X199223809Y-79414285D01*
X199461904Y-79414285D01*
X199557142Y-79461904D01*
X199604761Y-79509523D01*
X199652380Y-79604761D01*
X199652380Y-79842857D01*
X199604761Y-79938095D01*
X199557142Y-79985714D01*
%TO.C,SW2*%
X197750666Y-84256761D02*
X197893523Y-84304380D01*
X198131619Y-84304380D01*
X198226857Y-84256761D01*
X198274476Y-84209142D01*
X198322095Y-84113904D01*
X198322095Y-84018666D01*
X198274476Y-83923428D01*
X198226857Y-83875809D01*
X198131619Y-83828190D01*
X197941142Y-83780571D01*
X197845904Y-83732952D01*
X197798285Y-83685333D01*
X197750666Y-83590095D01*
X197750666Y-83494857D01*
X197798285Y-83399619D01*
X197845904Y-83352000D01*
X197941142Y-83304380D01*
X198179238Y-83304380D01*
X198322095Y-83352000D01*
X198655428Y-83304380D02*
X198893523Y-84304380D01*
X199084000Y-83590095D01*
X199274476Y-84304380D01*
X199512571Y-83304380D01*
X199845904Y-83399619D02*
X199893523Y-83352000D01*
X199988761Y-83304380D01*
X200226857Y-83304380D01*
X200322095Y-83352000D01*
X200369714Y-83399619D01*
X200417333Y-83494857D01*
X200417333Y-83590095D01*
X200369714Y-83732952D01*
X199798285Y-84304380D01*
X200417333Y-84304380D01*
%TO.C,R3*%
X142133333Y-89760380D02*
X141800000Y-89284190D01*
X141561904Y-89760380D02*
X141561904Y-88760380D01*
X141942857Y-88760380D01*
X142038095Y-88808000D01*
X142085714Y-88855619D01*
X142133333Y-88950857D01*
X142133333Y-89093714D01*
X142085714Y-89188952D01*
X142038095Y-89236571D01*
X141942857Y-89284190D01*
X141561904Y-89284190D01*
X142466666Y-88760380D02*
X143085714Y-88760380D01*
X142752380Y-89141333D01*
X142895238Y-89141333D01*
X142990476Y-89188952D01*
X143038095Y-89236571D01*
X143085714Y-89331809D01*
X143085714Y-89569904D01*
X143038095Y-89665142D01*
X142990476Y-89712761D01*
X142895238Y-89760380D01*
X142609523Y-89760380D01*
X142514285Y-89712761D01*
X142466666Y-89665142D01*
%TO.C,PC2*%
X142252380Y-93838095D02*
X141252380Y-93838095D01*
X141252380Y-93457142D01*
X141300000Y-93361904D01*
X141347619Y-93314285D01*
X141442857Y-93266666D01*
X141585714Y-93266666D01*
X141680952Y-93314285D01*
X141728571Y-93361904D01*
X141776190Y-93457142D01*
X141776190Y-93838095D01*
X142157142Y-92266666D02*
X142204761Y-92314285D01*
X142252380Y-92457142D01*
X142252380Y-92552380D01*
X142204761Y-92695238D01*
X142109523Y-92790476D01*
X142014285Y-92838095D01*
X141823809Y-92885714D01*
X141680952Y-92885714D01*
X141490476Y-92838095D01*
X141395238Y-92790476D01*
X141300000Y-92695238D01*
X141252380Y-92552380D01*
X141252380Y-92457142D01*
X141300000Y-92314285D01*
X141347619Y-92266666D01*
X141347619Y-91885714D02*
X141300000Y-91838095D01*
X141252380Y-91742857D01*
X141252380Y-91504761D01*
X141300000Y-91409523D01*
X141347619Y-91361904D01*
X141442857Y-91314285D01*
X141538095Y-91314285D01*
X141680952Y-91361904D01*
X142252380Y-91933333D01*
X142252380Y-91314285D01*
%TO.C,C9*%
X153633333Y-82357142D02*
X153585714Y-82404761D01*
X153442857Y-82452380D01*
X153347619Y-82452380D01*
X153204761Y-82404761D01*
X153109523Y-82309523D01*
X153061904Y-82214285D01*
X153014285Y-82023809D01*
X153014285Y-81880952D01*
X153061904Y-81690476D01*
X153109523Y-81595238D01*
X153204761Y-81500000D01*
X153347619Y-81452380D01*
X153442857Y-81452380D01*
X153585714Y-81500000D01*
X153633333Y-81547619D01*
X154109523Y-82452380D02*
X154300000Y-82452380D01*
X154395238Y-82404761D01*
X154442857Y-82357142D01*
X154538095Y-82214285D01*
X154585714Y-82023809D01*
X154585714Y-81642857D01*
X154538095Y-81547619D01*
X154490476Y-81500000D01*
X154395238Y-81452380D01*
X154204761Y-81452380D01*
X154109523Y-81500000D01*
X154061904Y-81547619D01*
X154014285Y-81642857D01*
X154014285Y-81880952D01*
X154061904Y-81976190D01*
X154109523Y-82023809D01*
X154204761Y-82071428D01*
X154395238Y-82071428D01*
X154490476Y-82023809D01*
X154538095Y-81976190D01*
X154585714Y-81880952D01*
%TO.C,U1*%
X165252380Y-83400000D02*
X165490476Y-83400000D01*
X165395238Y-83638095D02*
X165490476Y-83400000D01*
X165395238Y-83161904D01*
X165680952Y-83542857D02*
X165490476Y-83400000D01*
X165680952Y-83257142D01*
%TO.C,C6*%
X168157142Y-81566666D02*
X168204761Y-81614285D01*
X168252380Y-81757142D01*
X168252380Y-81852380D01*
X168204761Y-81995238D01*
X168109523Y-82090476D01*
X168014285Y-82138095D01*
X167823809Y-82185714D01*
X167680952Y-82185714D01*
X167490476Y-82138095D01*
X167395238Y-82090476D01*
X167300000Y-81995238D01*
X167252380Y-81852380D01*
X167252380Y-81757142D01*
X167300000Y-81614285D01*
X167347619Y-81566666D01*
X167252380Y-80709523D02*
X167252380Y-80900000D01*
X167300000Y-80995238D01*
X167347619Y-81042857D01*
X167490476Y-81138095D01*
X167680952Y-81185714D01*
X168061904Y-81185714D01*
X168157142Y-81138095D01*
X168204761Y-81090476D01*
X168252380Y-80995238D01*
X168252380Y-80804761D01*
X168204761Y-80709523D01*
X168157142Y-80661904D01*
X168061904Y-80614285D01*
X167823809Y-80614285D01*
X167728571Y-80661904D01*
X167680952Y-80709523D01*
X167633333Y-80804761D01*
X167633333Y-80995238D01*
X167680952Y-81090476D01*
X167728571Y-81138095D01*
X167823809Y-81185714D01*
%TO.C,R6*%
X198452380Y-80366666D02*
X197976190Y-80700000D01*
X198452380Y-80938095D02*
X197452380Y-80938095D01*
X197452380Y-80557142D01*
X197500000Y-80461904D01*
X197547619Y-80414285D01*
X197642857Y-80366666D01*
X197785714Y-80366666D01*
X197880952Y-80414285D01*
X197928571Y-80461904D01*
X197976190Y-80557142D01*
X197976190Y-80938095D01*
X197452380Y-79509523D02*
X197452380Y-79700000D01*
X197500000Y-79795238D01*
X197547619Y-79842857D01*
X197690476Y-79938095D01*
X197880952Y-79985714D01*
X198261904Y-79985714D01*
X198357142Y-79938095D01*
X198404761Y-79890476D01*
X198452380Y-79795238D01*
X198452380Y-79604761D01*
X198404761Y-79509523D01*
X198357142Y-79461904D01*
X198261904Y-79414285D01*
X198023809Y-79414285D01*
X197928571Y-79461904D01*
X197880952Y-79509523D01*
X197833333Y-79604761D01*
X197833333Y-79795238D01*
X197880952Y-79890476D01*
X197928571Y-79938095D01*
X198023809Y-79985714D01*
%TO.C,R7*%
X197252380Y-80366666D02*
X196776190Y-80700000D01*
X197252380Y-80938095D02*
X196252380Y-80938095D01*
X196252380Y-80557142D01*
X196300000Y-80461904D01*
X196347619Y-80414285D01*
X196442857Y-80366666D01*
X196585714Y-80366666D01*
X196680952Y-80414285D01*
X196728571Y-80461904D01*
X196776190Y-80557142D01*
X196776190Y-80938095D01*
X196252380Y-80033333D02*
X196252380Y-79366666D01*
X197252380Y-79795238D01*
%TO.C,D1*%
X166661904Y-76252380D02*
X166661904Y-75252380D01*
X166900000Y-75252380D01*
X167042857Y-75300000D01*
X167138095Y-75395238D01*
X167185714Y-75490476D01*
X167233333Y-75680952D01*
X167233333Y-75823809D01*
X167185714Y-76014285D01*
X167138095Y-76109523D01*
X167042857Y-76204761D01*
X166900000Y-76252380D01*
X166661904Y-76252380D01*
X168185714Y-76252380D02*
X167614285Y-76252380D01*
X167900000Y-76252380D02*
X167900000Y-75252380D01*
X167804761Y-75395238D01*
X167709523Y-75490476D01*
X167614285Y-75538095D01*
D12*
%TO.C,R8*%
X195980000Y-82046359D02*
X195980000Y-82353641D01*
X195220000Y-82046359D02*
X195220000Y-82353641D01*
%TO.C,SW1*%
X193584000Y-80852000D02*
X193584000Y-79352000D01*
X192334000Y-76852000D02*
X187834000Y-76852000D01*
X186584000Y-79352000D02*
X186584000Y-80852000D01*
X187834000Y-83352000D02*
X192334000Y-83352000D01*
%TO.C,C3*%
X164360000Y-81307836D02*
X164360000Y-81092164D01*
X163640000Y-81307836D02*
X163640000Y-81092164D01*
%TO.C,SW3*%
X193584000Y-96852000D02*
X193584000Y-95352000D01*
X186584000Y-95352000D02*
X186584000Y-96852000D01*
X192334000Y-92852000D02*
X187834000Y-92852000D01*
X187834000Y-99352000D02*
X192334000Y-99352000D01*
%TO.C,F1*%
X164710000Y-71718471D02*
X164710000Y-72044029D01*
X163690000Y-71718471D02*
X163690000Y-72044029D01*
%TO.C,C1*%
X159852500Y-77723080D02*
X159852500Y-77441920D01*
X158832500Y-77723080D02*
X158832500Y-77441920D01*
%TO.C,HSE1*%
X157242500Y-81382500D02*
X157242500Y-78082500D01*
X157242500Y-78082500D02*
X153242500Y-78082500D01*
D13*
%TO.C,J4*%
X160810000Y-60916250D02*
X169750000Y-60916250D01*
X160810000Y-66326250D02*
X160810000Y-64886250D01*
X169750000Y-60916250D02*
X169750000Y-62146250D01*
X169750000Y-66326250D02*
X169750000Y-64886250D01*
X160810000Y-62146250D02*
X160810000Y-60916250D01*
D14*
X168780000Y-69916250D02*
G75*
G03*
X168780000Y-69916250I-100000J0D01*
G01*
D12*
%TO.C,R9*%
X166967500Y-72537391D02*
X166967500Y-72230109D01*
X166207500Y-72537391D02*
X166207500Y-72230109D01*
%TO.C,R2*%
X139828000Y-90325641D02*
X139828000Y-90018359D01*
X140588000Y-90325641D02*
X140588000Y-90018359D01*
%TO.C,FB1*%
X163937221Y-79710000D02*
X164262779Y-79710000D01*
X163937221Y-78690000D02*
X164262779Y-78690000D01*
%TO.C,C5*%
X162102500Y-77890336D02*
X162102500Y-77674664D01*
X161382500Y-77890336D02*
X161382500Y-77674664D01*
%TO.C,C2*%
X160782500Y-81307836D02*
X160782500Y-81092164D01*
X161502500Y-81307836D02*
X161502500Y-81092164D01*
%TO.C,PC1*%
X137085000Y-87403000D02*
X134800000Y-87403000D01*
X137085000Y-88873000D02*
X137085000Y-87403000D01*
X134800000Y-88873000D02*
X137085000Y-88873000D01*
%TO.C,R4*%
X140588000Y-85950359D02*
X140588000Y-86257641D01*
X139828000Y-85950359D02*
X139828000Y-86257641D01*
%TO.C,C7*%
X173990580Y-69490000D02*
X173709420Y-69490000D01*
X173990580Y-70510000D02*
X173709420Y-70510000D01*
%TO.C,PC4*%
X139473000Y-82766000D02*
X139473000Y-85051000D01*
X139473000Y-85051000D02*
X140943000Y-85051000D01*
X140943000Y-85051000D02*
X140943000Y-82766000D01*
%TO.C,SW4*%
X178834000Y-91352000D02*
X183334000Y-91352000D01*
X184584000Y-88852000D02*
X184584000Y-87352000D01*
X183334000Y-84852000D02*
X178834000Y-84852000D01*
X177584000Y-87352000D02*
X177584000Y-88852000D01*
%TO.C,PC3*%
X143320500Y-88873000D02*
X145605500Y-88873000D01*
X143320500Y-87403000D02*
X143320500Y-88873000D01*
X145605500Y-87403000D02*
X143320500Y-87403000D01*
%TO.C,R1*%
X138022359Y-87758000D02*
X138329641Y-87758000D01*
X138022359Y-88518000D02*
X138329641Y-88518000D01*
%TO.C,J1*%
X143205000Y-63995000D02*
X143205000Y-66595000D01*
X132985000Y-63995000D02*
X132985000Y-69195000D01*
X143205000Y-63995000D02*
X132985000Y-63995000D01*
X145805000Y-66595000D02*
X145805000Y-69195000D01*
X145805000Y-63995000D02*
X145805000Y-65325000D01*
X144475000Y-63995000D02*
X145805000Y-63995000D01*
X145805000Y-69195000D02*
X132985000Y-69195000D01*
X143205000Y-66595000D02*
X145805000Y-66595000D01*
%TO.C,U2*%
X175510000Y-77903750D02*
X175510000Y-76643750D01*
X169500000Y-71083750D02*
X175510000Y-71083750D01*
X171750000Y-77903750D02*
X175510000Y-77903750D01*
X175510000Y-71083750D02*
X175510000Y-72343750D01*
%TO.C,C10*%
X158970336Y-81222500D02*
X158754664Y-81222500D01*
X158970336Y-81942500D02*
X158754664Y-81942500D01*
%TO.C,J3*%
X205900000Y-74795000D02*
X207010000Y-74795000D01*
X205900000Y-100380000D02*
X206702470Y-100380000D01*
X205900000Y-75555000D02*
X205900000Y-74795000D01*
X205900000Y-76315000D02*
X205900000Y-100380000D01*
X207317530Y-100380000D02*
X208120000Y-100380000D01*
X208120000Y-76315000D02*
X208120000Y-100380000D01*
X205900000Y-76315000D02*
X206446529Y-76315000D01*
X207573471Y-76315000D02*
X208120000Y-76315000D01*
%TO.C,R10*%
X171880000Y-68253641D02*
X171880000Y-67946359D01*
X171120000Y-68253641D02*
X171120000Y-67946359D01*
%TO.C,R11*%
X172620000Y-67946359D02*
X172620000Y-68253641D01*
X173380000Y-67946359D02*
X173380000Y-68253641D01*
%TO.C,C8*%
X162090000Y-72046830D02*
X162090000Y-71765670D01*
X163110000Y-72046830D02*
X163110000Y-71765670D01*
%TO.C,C4*%
X161982500Y-81307836D02*
X161982500Y-81092164D01*
X162702500Y-81307836D02*
X162702500Y-81092164D01*
%TO.C,R5*%
X198820000Y-82046359D02*
X198820000Y-82353641D01*
X199580000Y-82046359D02*
X199580000Y-82353641D01*
%TO.C,SW2*%
X201334000Y-84852000D02*
X196834000Y-84852000D01*
X202584000Y-88852000D02*
X202584000Y-87352000D01*
X196834000Y-91352000D02*
X201334000Y-91352000D01*
X195584000Y-87352000D02*
X195584000Y-88852000D01*
%TO.C,R3*%
X142395641Y-87758000D02*
X142088359Y-87758000D01*
X142395641Y-88518000D02*
X142088359Y-88518000D01*
%TO.C,PC2*%
X140943000Y-91250500D02*
X139473000Y-91250500D01*
X139473000Y-91250500D02*
X139473000Y-93535500D01*
X140943000Y-93535500D02*
X140943000Y-91250500D01*
%TO.C,C9*%
X159370336Y-80742500D02*
X159154664Y-80742500D01*
X159370336Y-80022500D02*
X159154664Y-80022500D01*
%TO.C,U1*%
X165023800Y-84407560D02*
X165023800Y-83896200D01*
X165023800Y-83896200D02*
X164512440Y-83896200D01*
X157556200Y-90852440D02*
X157556200Y-91363800D01*
X158067560Y-83896200D02*
X157556200Y-83896200D01*
X157556200Y-91363800D02*
X158067560Y-91363800D01*
X157556200Y-83896200D02*
X157556200Y-84407560D01*
X164512440Y-91363800D02*
X165023800Y-91363800D01*
X165023800Y-91363800D02*
X165023800Y-90852440D01*
G36*
X156088601Y-88570501D02*
G01*
X155834601Y-88570501D01*
X155834601Y-88189501D01*
X156088601Y-88189501D01*
X156088601Y-88570501D01*
G37*
D11*
X156088601Y-88570501D02*
X155834601Y-88570501D01*
X155834601Y-88189501D01*
X156088601Y-88189501D01*
X156088601Y-88570501D01*
G36*
X161230501Y-93085399D02*
G01*
X160849500Y-93085399D01*
X160849500Y-92831399D01*
X161230501Y-92831399D01*
X161230501Y-93085399D01*
G37*
X161230501Y-93085399D02*
X160849500Y-93085399D01*
X160849500Y-92831399D01*
X161230501Y-92831399D01*
X161230501Y-93085399D01*
G36*
X159730501Y-82428601D02*
G01*
X159349501Y-82428601D01*
X159349501Y-82174601D01*
X159730501Y-82174601D01*
X159730501Y-82428601D01*
G37*
X159730501Y-82428601D02*
X159349501Y-82428601D01*
X159349501Y-82174601D01*
X159730501Y-82174601D01*
X159730501Y-82428601D01*
G36*
X166745399Y-89070500D02*
G01*
X166491399Y-89070500D01*
X166491399Y-88689500D01*
X166745399Y-88689500D01*
X166745399Y-89070500D01*
G37*
X166745399Y-89070500D02*
X166491399Y-89070500D01*
X166491399Y-88689500D01*
X166745399Y-88689500D01*
X166745399Y-89070500D01*
D12*
%TO.C,C6*%
X165502500Y-81090336D02*
X165502500Y-80874664D01*
X164782500Y-81090336D02*
X164782500Y-80874664D01*
%TO.C,R6*%
X198380000Y-82046359D02*
X198380000Y-82353641D01*
X197620000Y-82046359D02*
X197620000Y-82353641D01*
%TO.C,R7*%
X197180000Y-82046359D02*
X197180000Y-82353641D01*
X196420000Y-82046359D02*
X196420000Y-82353641D01*
%TO.C,J2*%
X127490000Y-74565000D02*
X128600000Y-74565000D01*
X127490000Y-100150000D02*
X128292470Y-100150000D01*
X129710000Y-76085000D02*
X129710000Y-100150000D01*
X127490000Y-76085000D02*
X127490000Y-100150000D01*
X127490000Y-76085000D02*
X128036529Y-76085000D01*
X129163471Y-76085000D02*
X129710000Y-76085000D01*
X128907530Y-100150000D02*
X129710000Y-100150000D01*
X127490000Y-75325000D02*
X127490000Y-74565000D01*
%TO.C,D1*%
X168187500Y-73558750D02*
X165902500Y-73558750D01*
X165902500Y-73558750D02*
X165902500Y-75028750D01*
X165902500Y-75028750D02*
X168187500Y-75028750D01*
%TD*%
M02*
