%TF.GenerationSoftware,KiCad,Pcbnew,(6.0.7)*%
%TF.CreationDate,2022-08-25T14:46:55-07:00*%
%TF.ProjectId,mini_consolev2,6d696e69-5f63-46f6-9e73-6f6c6576322e,rev?*%
%TF.SameCoordinates,Original*%
%TF.FileFunction,Copper,L1,Top*%
%TF.FilePolarity,Positive*%
%FSLAX46Y46*%
G04 Gerber Fmt 4.6, Leading zero omitted, Abs format (unit mm)*
G04 Created by KiCad (PCBNEW (6.0.7)) date 2022-08-25 14:46:55*
%MOMM*%
%LPD*%
G01*
G04 APERTURE LIST*
G04 Aperture macros list*
%AMRoundRect*
0 Rectangle with rounded corners*
0 $1 Rounding radius*
0 $2 $3 $4 $5 $6 $7 $8 $9 X,Y pos of 4 corners*
0 Add a 4 corners polygon primitive as box body*
4,1,4,$2,$3,$4,$5,$6,$7,$8,$9,$2,$3,0*
0 Add four circle primitives for the rounded corners*
1,1,$1+$1,$2,$3*
1,1,$1+$1,$4,$5*
1,1,$1+$1,$6,$7*
1,1,$1+$1,$8,$9*
0 Add four rect primitives between the rounded corners*
20,1,$1+$1,$2,$3,$4,$5,0*
20,1,$1+$1,$4,$5,$6,$7,0*
20,1,$1+$1,$6,$7,$8,$9,0*
20,1,$1+$1,$8,$9,$2,$3,0*%
G04 Aperture macros list end*
%TA.AperFunction,SMDPad,CuDef*%
%ADD10RoundRect,0.135000X-0.185000X0.135000X-0.185000X-0.135000X0.185000X-0.135000X0.185000X0.135000X0*%
%TD*%
%TA.AperFunction,ComponentPad*%
%ADD11C,2.000000*%
%TD*%
%TA.AperFunction,SMDPad,CuDef*%
%ADD12RoundRect,0.140000X0.170000X-0.140000X0.170000X0.140000X-0.170000X0.140000X-0.170000X-0.140000X0*%
%TD*%
%TA.AperFunction,SMDPad,CuDef*%
%ADD13RoundRect,0.218750X-0.256250X0.218750X-0.256250X-0.218750X0.256250X-0.218750X0.256250X0.218750X0*%
%TD*%
%TA.AperFunction,SMDPad,CuDef*%
%ADD14RoundRect,0.225000X0.250000X-0.225000X0.250000X0.225000X-0.250000X0.225000X-0.250000X-0.225000X0*%
%TD*%
%TA.AperFunction,SMDPad,CuDef*%
%ADD15R,1.400000X1.200000*%
%TD*%
%TA.AperFunction,SMDPad,CuDef*%
%ADD16R,0.600000X1.450000*%
%TD*%
%TA.AperFunction,SMDPad,CuDef*%
%ADD17R,0.300000X1.450000*%
%TD*%
%TA.AperFunction,ComponentPad*%
%ADD18O,1.050000X2.100000*%
%TD*%
%TA.AperFunction,SMDPad,CuDef*%
%ADD19RoundRect,0.135000X0.185000X-0.135000X0.185000X0.135000X-0.185000X0.135000X-0.185000X-0.135000X0*%
%TD*%
%TA.AperFunction,SMDPad,CuDef*%
%ADD20RoundRect,0.218750X-0.218750X-0.256250X0.218750X-0.256250X0.218750X0.256250X-0.218750X0.256250X0*%
%TD*%
%TA.AperFunction,SMDPad,CuDef*%
%ADD21RoundRect,0.218750X0.218750X0.256250X-0.218750X0.256250X-0.218750X-0.256250X0.218750X-0.256250X0*%
%TD*%
%TA.AperFunction,SMDPad,CuDef*%
%ADD22RoundRect,0.225000X0.225000X0.250000X-0.225000X0.250000X-0.225000X-0.250000X0.225000X-0.250000X0*%
%TD*%
%TA.AperFunction,SMDPad,CuDef*%
%ADD23RoundRect,0.218750X0.256250X-0.218750X0.256250X0.218750X-0.256250X0.218750X-0.256250X-0.218750X0*%
%TD*%
%TA.AperFunction,SMDPad,CuDef*%
%ADD24RoundRect,0.135000X-0.135000X-0.185000X0.135000X-0.185000X0.135000X0.185000X-0.135000X0.185000X0*%
%TD*%
%TA.AperFunction,ComponentPad*%
%ADD25R,1.700000X1.700000*%
%TD*%
%TA.AperFunction,ComponentPad*%
%ADD26O,1.700000X1.700000*%
%TD*%
%TA.AperFunction,SMDPad,CuDef*%
%ADD27R,2.000000X1.500000*%
%TD*%
%TA.AperFunction,SMDPad,CuDef*%
%ADD28R,2.000000X3.800000*%
%TD*%
%TA.AperFunction,SMDPad,CuDef*%
%ADD29RoundRect,0.140000X0.140000X0.170000X-0.140000X0.170000X-0.140000X-0.170000X0.140000X-0.170000X0*%
%TD*%
%TA.AperFunction,ComponentPad*%
%ADD30R,1.000000X1.000000*%
%TD*%
%TA.AperFunction,ComponentPad*%
%ADD31O,1.000000X1.000000*%
%TD*%
%TA.AperFunction,SMDPad,CuDef*%
%ADD32RoundRect,0.135000X0.135000X0.185000X-0.135000X0.185000X-0.135000X-0.185000X0.135000X-0.185000X0*%
%TD*%
%TA.AperFunction,SMDPad,CuDef*%
%ADD33R,0.279400X1.461999*%
%TD*%
%TA.AperFunction,SMDPad,CuDef*%
%ADD34R,1.461999X0.279400*%
%TD*%
%TA.AperFunction,ViaPad*%
%ADD35C,0.800000*%
%TD*%
%TA.AperFunction,Conductor*%
%ADD36C,0.500000*%
%TD*%
%TA.AperFunction,Conductor*%
%ADD37C,0.300000*%
%TD*%
G04 APERTURE END LIST*
D10*
%TO.P,R8,1*%
%TO.N,+3V3*%
X195600000Y-81690000D03*
%TO.P,R8,2*%
%TO.N,B4*%
X195600000Y-82710000D03*
%TD*%
D11*
%TO.P,SW1,1,1*%
%TO.N,B1*%
X193334000Y-77852000D03*
X186834000Y-77852000D03*
%TO.P,SW1,2,2*%
%TO.N,GND*%
X186834000Y-82352000D03*
X193334000Y-82352000D03*
%TD*%
D12*
%TO.P,C3,1*%
%TO.N,+3V3*%
X164000000Y-81680000D03*
%TO.P,C3,2*%
%TO.N,GND*%
X164000000Y-80720000D03*
%TD*%
D11*
%TO.P,SW3,1,1*%
%TO.N,B3*%
X193334000Y-93852000D03*
X186834000Y-93852000D03*
%TO.P,SW3,2,2*%
%TO.N,GND*%
X193334000Y-98352000D03*
X186834000Y-98352000D03*
%TD*%
D13*
%TO.P,F1,1*%
%TO.N,VBUS*%
X164200000Y-71093750D03*
%TO.P,F1,2*%
%TO.N,Net-(C8-Pad1)*%
X164200000Y-72668750D03*
%TD*%
D14*
%TO.P,C1,1*%
%TO.N,+3V3*%
X159342500Y-78357500D03*
%TO.P,C1,2*%
%TO.N,GND*%
X159342500Y-76807500D03*
%TD*%
D15*
%TO.P,HSE1,1,1*%
%TO.N,HSE_IN*%
X156342500Y-78882500D03*
%TO.P,HSE1,2,2*%
%TO.N,GND*%
X154142500Y-78882500D03*
%TO.P,HSE1,3,3*%
%TO.N,HSE_OUT*%
X154142500Y-80582500D03*
%TO.P,HSE1,4,4*%
%TO.N,Net-(C10-Pad2)*%
X156342500Y-80582500D03*
%TD*%
D16*
%TO.P,J4,A1B12,GND*%
%TO.N,GND*%
X168530000Y-68611250D03*
%TO.P,J4,A4B9,VBUS*%
%TO.N,VBUS*%
X167730000Y-68611250D03*
D17*
%TO.P,J4,A5,CC1*%
%TO.N,Net-(J4-PadA5)*%
X166530000Y-68611250D03*
%TO.P,J4,A6,DP1*%
%TO.N,unconnected-(J4-PadA6)*%
X165530000Y-68611250D03*
%TO.P,J4,A7,DN1*%
%TO.N,unconnected-(J4-PadA7)*%
X165030000Y-68611250D03*
%TO.P,J4,A8,SBU1*%
%TO.N,unconnected-(J4-PadA8)*%
X164030000Y-68611250D03*
D16*
%TO.P,J4,B1A12,GND*%
%TO.N,GND*%
X162030000Y-68611250D03*
%TO.P,J4,B4A9,VBUS*%
%TO.N,VBUS*%
X162830000Y-68611250D03*
D17*
%TO.P,J4,B5,CC2*%
%TO.N,Net-(J4-PadB5)*%
X163530000Y-68611250D03*
%TO.P,J4,B6,DP2*%
%TO.N,unconnected-(J4-PadB6)*%
X164530000Y-68611250D03*
%TO.P,J4,B7,DN2*%
%TO.N,unconnected-(J4-PadB7)*%
X166030000Y-68611250D03*
%TO.P,J4,B8,SBU2*%
%TO.N,unconnected-(J4-PadB8)*%
X167030000Y-68611250D03*
D18*
%TO.P,J4,S1,SHIELD*%
%TO.N,unconnected-(J4-PadS1)*%
X169600000Y-67696250D03*
%TO.P,J4,S2,SHIELD*%
X160960000Y-67696250D03*
%TO.P,J4,S3,SHIELD*%
X169600000Y-63516250D03*
%TO.P,J4,S4,SHIELD*%
X160960000Y-63516250D03*
%TD*%
D19*
%TO.P,R9,1*%
%TO.N,Net-(D1-Pad1)*%
X166587500Y-72893750D03*
%TO.P,R9,2*%
%TO.N,GND*%
X166587500Y-71873750D03*
%TD*%
%TO.P,R2,1*%
%TO.N,Net-(PC2-Pad1)*%
X140208000Y-90682000D03*
%TO.P,R2,2*%
%TO.N,GND*%
X140208000Y-89662000D03*
%TD*%
D20*
%TO.P,FB1,1*%
%TO.N,+3.3VA*%
X163312500Y-79200000D03*
%TO.P,FB1,2*%
%TO.N,+3V3*%
X164887500Y-79200000D03*
%TD*%
D12*
%TO.P,C5,1*%
%TO.N,+3.3VA*%
X161742500Y-78262500D03*
%TO.P,C5,2*%
%TO.N,GND*%
X161742500Y-77302500D03*
%TD*%
%TO.P,C2,1*%
%TO.N,+3V3*%
X161142500Y-81680000D03*
%TO.P,C2,2*%
%TO.N,GND*%
X161142500Y-80720000D03*
%TD*%
D21*
%TO.P,PC1,1,K*%
%TO.N,Net-(PC1-Pad1)*%
X136387500Y-88138000D03*
%TO.P,PC1,2,A*%
%TO.N,LED_4*%
X134812500Y-88138000D03*
%TD*%
D10*
%TO.P,R4,1*%
%TO.N,Net-(PC4-Pad1)*%
X140208000Y-85594000D03*
%TO.P,R4,2*%
%TO.N,GND*%
X140208000Y-86614000D03*
%TD*%
D22*
%TO.P,C7,1*%
%TO.N,+3V3*%
X174625000Y-70000000D03*
%TO.P,C7,2*%
%TO.N,GND*%
X173075000Y-70000000D03*
%TD*%
D23*
%TO.P,PC4,1,K*%
%TO.N,Net-(PC4-Pad1)*%
X140208000Y-84353500D03*
%TO.P,PC4,2,A*%
%TO.N,LED_1*%
X140208000Y-82778500D03*
%TD*%
D11*
%TO.P,SW4,1,1*%
%TO.N,B4*%
X177834000Y-85852000D03*
X184334000Y-85852000D03*
%TO.P,SW4,2,2*%
%TO.N,GND*%
X184334000Y-90352000D03*
X177834000Y-90352000D03*
%TD*%
D20*
%TO.P,PC3,1,K*%
%TO.N,Net-(PC3-Pad1)*%
X144018000Y-88138000D03*
%TO.P,PC3,2,A*%
%TO.N,LED_2*%
X145593000Y-88138000D03*
%TD*%
D24*
%TO.P,R1,1*%
%TO.N,Net-(PC1-Pad1)*%
X137666000Y-88138000D03*
%TO.P,R1,2*%
%TO.N,GND*%
X138686000Y-88138000D03*
%TD*%
D25*
%TO.P,J1,1,Pin_1*%
%TO.N,+3V3*%
X144475000Y-65325000D03*
D26*
%TO.P,J1,2,Pin_2*%
%TO.N,SWDIO*%
X144475000Y-67865000D03*
%TO.P,J1,3,Pin_3*%
%TO.N,GND*%
X141935000Y-65325000D03*
%TO.P,J1,4,Pin_4*%
%TO.N,SWCLK*%
X141935000Y-67865000D03*
%TO.P,J1,5,Pin_5*%
%TO.N,GND*%
X139395000Y-65325000D03*
%TO.P,J1,6,Pin_6*%
%TO.N,unconnected-(J1-Pad6)*%
X139395000Y-67865000D03*
%TO.P,J1,7,Pin_7*%
%TO.N,unconnected-(J1-Pad7)*%
X136855000Y-65325000D03*
%TO.P,J1,8,Pin_8*%
%TO.N,unconnected-(J1-Pad8)*%
X136855000Y-67865000D03*
%TO.P,J1,9,Pin_9*%
%TO.N,GND*%
X134315000Y-65325000D03*
%TO.P,J1,10,Pin_10*%
%TO.N,NRST*%
X134315000Y-67865000D03*
%TD*%
D27*
%TO.P,U2,1,GND*%
%TO.N,GND*%
X170450000Y-72193750D03*
%TO.P,U2,2,VO*%
%TO.N,+3V3*%
X170450000Y-74493750D03*
D28*
X176750000Y-74493750D03*
D27*
%TO.P,U2,3,VI*%
%TO.N,Net-(C8-Pad1)*%
X170450000Y-76793750D03*
%TD*%
D29*
%TO.P,C10,1*%
%TO.N,HSE_OUT*%
X159342500Y-81582500D03*
%TO.P,C10,2*%
%TO.N,Net-(C10-Pad2)*%
X158382500Y-81582500D03*
%TD*%
D30*
%TO.P,J3,1,Pin_1*%
%TO.N,PC13*%
X207010000Y-75555000D03*
D31*
%TO.P,J3,2,Pin_2*%
%TO.N,PB9*%
X207010000Y-76825000D03*
%TO.P,J3,3,Pin_3*%
%TO.N,PB8*%
X207010000Y-78095000D03*
%TO.P,J3,4,Pin_4*%
%TO.N,PB7*%
X207010000Y-79365000D03*
%TO.P,J3,5,Pin_5*%
%TO.N,PB6*%
X207010000Y-80635000D03*
%TO.P,J3,6,Pin_6*%
%TO.N,PB5*%
X207010000Y-81905000D03*
%TO.P,J3,7,Pin_7*%
%TO.N,PB4*%
X207010000Y-83175000D03*
%TO.P,J3,8,Pin_8*%
%TO.N,PB3*%
X207010000Y-84445000D03*
%TO.P,J3,9,Pin_9*%
%TO.N,+3V3*%
X207010000Y-85715000D03*
%TO.P,J3,10,Pin_10*%
%TO.N,GND*%
X207010000Y-86985000D03*
%TO.P,J3,11,Pin_11*%
%TO.N,PA15*%
X207010000Y-88255000D03*
%TO.P,J3,12,Pin_12*%
%TO.N,PA12*%
X207010000Y-89525000D03*
%TO.P,J3,13,Pin_13*%
%TO.N,PA11*%
X207010000Y-90795000D03*
%TO.P,J3,14,Pin_14*%
%TO.N,PA10*%
X207010000Y-92065000D03*
%TO.P,J3,15,Pin_15*%
%TO.N,PA9*%
X207010000Y-93335000D03*
%TO.P,J3,16,Pin_16*%
%TO.N,PA8*%
X207010000Y-94605000D03*
%TO.P,J3,17,Pin_17*%
%TO.N,PB15*%
X207010000Y-95875000D03*
%TO.P,J3,18,Pin_18*%
%TO.N,PB14*%
X207010000Y-97145000D03*
%TO.P,J3,19,Pin_19*%
%TO.N,+3V3*%
X207010000Y-98415000D03*
%TO.P,J3,20,Pin_20*%
%TO.N,GND*%
X207010000Y-99685000D03*
%TD*%
D19*
%TO.P,R10,1*%
%TO.N,GND*%
X171500000Y-68610000D03*
%TO.P,R10,2*%
%TO.N,Net-(J4-PadA5)*%
X171500000Y-67590000D03*
%TD*%
D10*
%TO.P,R11,1*%
%TO.N,Net-(J4-PadB5)*%
X173000000Y-67590000D03*
%TO.P,R11,2*%
%TO.N,GND*%
X173000000Y-68610000D03*
%TD*%
D14*
%TO.P,C8,1*%
%TO.N,Net-(C8-Pad1)*%
X162600000Y-72681250D03*
%TO.P,C8,2*%
%TO.N,GND*%
X162600000Y-71131250D03*
%TD*%
D12*
%TO.P,C4,1*%
%TO.N,+3.3VA*%
X162342500Y-81680000D03*
%TO.P,C4,2*%
%TO.N,GND*%
X162342500Y-80720000D03*
%TD*%
D10*
%TO.P,R5,1*%
%TO.N,+3V3*%
X199200000Y-81690000D03*
%TO.P,R5,2*%
%TO.N,B1*%
X199200000Y-82710000D03*
%TD*%
D11*
%TO.P,SW2,1,1*%
%TO.N,B2*%
X202334000Y-85852000D03*
X195834000Y-85852000D03*
%TO.P,SW2,2,2*%
%TO.N,GND*%
X195834000Y-90352000D03*
X202334000Y-90352000D03*
%TD*%
D32*
%TO.P,R3,1*%
%TO.N,Net-(PC3-Pad1)*%
X142752000Y-88138000D03*
%TO.P,R3,2*%
%TO.N,GND*%
X141732000Y-88138000D03*
%TD*%
D13*
%TO.P,PC2,1,K*%
%TO.N,Net-(PC2-Pad1)*%
X140208000Y-91948000D03*
%TO.P,PC2,2,A*%
%TO.N,LED_3*%
X140208000Y-93523000D03*
%TD*%
D29*
%TO.P,C9,1*%
%TO.N,HSE_IN*%
X159742500Y-80382500D03*
%TO.P,C9,2*%
%TO.N,Net-(C10-Pad2)*%
X158782500Y-80382500D03*
%TD*%
D33*
%TO.P,U1,1,PC13*%
%TO.N,PC13*%
X164040000Y-83413600D03*
%TO.P,U1,2,PC14-OSC32_IN*%
%TO.N,LED_3*%
X163540001Y-83413600D03*
%TO.P,U1,3,PC15-OSC32_OUT*%
%TO.N,LED_4*%
X163039999Y-83413600D03*
%TO.P,U1,4,VBAT*%
%TO.N,+3V3*%
X162540000Y-83413600D03*
%TO.P,U1,5,VREF+*%
%TO.N,+3.3VA*%
X162040001Y-83413600D03*
%TO.P,U1,6,VDD*%
%TO.N,+3V3*%
X161540000Y-83413600D03*
%TO.P,U1,7,VSS*%
%TO.N,GND*%
X161040000Y-83413600D03*
%TO.P,U1,8,PF0-OSC_IN*%
%TO.N,HSE_IN*%
X160539999Y-83413600D03*
%TO.P,U1,9,PF1-OSC_OUT*%
%TO.N,HSE_OUT*%
X160040000Y-83413600D03*
%TO.P,U1,10,PF2-NRST*%
%TO.N,NRST*%
X159540001Y-83413600D03*
%TO.P,U1,11,PA0*%
%TO.N,PA0*%
X159039999Y-83413600D03*
%TO.P,U1,12,PA1*%
%TO.N,PA1*%
X158540000Y-83413600D03*
D34*
%TO.P,U1,13,PA2*%
%TO.N,PA2*%
X157073600Y-84880000D03*
%TO.P,U1,14,PA3*%
%TO.N,PA3*%
X157073600Y-85379999D03*
%TO.P,U1,15,PA4*%
%TO.N,PA4*%
X157073600Y-85880001D03*
%TO.P,U1,16,PA5*%
%TO.N,PA5*%
X157073600Y-86380000D03*
%TO.P,U1,17,PA6*%
%TO.N,PA6*%
X157073600Y-86879999D03*
%TO.P,U1,18,PA7*%
%TO.N,PA7*%
X157073600Y-87380000D03*
%TO.P,U1,19,PB0*%
%TO.N,PB0*%
X157073600Y-87880000D03*
%TO.P,U1,20,PB1*%
%TO.N,PB1*%
X157073600Y-88380001D03*
%TO.P,U1,21,PB2*%
%TO.N,PB2*%
X157073600Y-88880000D03*
%TO.P,U1,22,PB10*%
%TO.N,PB10*%
X157073600Y-89379999D03*
%TO.P,U1,23,PB11*%
%TO.N,PB11*%
X157073600Y-89880001D03*
%TO.P,U1,24,PB12*%
%TO.N,PB12*%
X157073600Y-90380000D03*
D33*
%TO.P,U1,25,PB13*%
%TO.N,PB13*%
X158540000Y-91846400D03*
%TO.P,U1,26,PB14*%
%TO.N,PB14*%
X159039999Y-91846400D03*
%TO.P,U1,27,PB15*%
%TO.N,PB15*%
X159540001Y-91846400D03*
%TO.P,U1,28,PA8*%
%TO.N,PA8*%
X160040000Y-91846400D03*
%TO.P,U1,29,PA9*%
%TO.N,PA9*%
X160539999Y-91846400D03*
%TO.P,U1,30,PC6*%
%TO.N,LED_1*%
X161040000Y-91846400D03*
%TO.P,U1,31,PC7*%
%TO.N,LED_2*%
X161540000Y-91846400D03*
%TO.P,U1,32,PA10*%
%TO.N,PA10*%
X162040001Y-91846400D03*
%TO.P,U1,33,PA11PA9*%
%TO.N,PA11*%
X162540000Y-91846400D03*
%TO.P,U1,34,PA12PA10*%
%TO.N,PA12*%
X163039999Y-91846400D03*
%TO.P,U1,35,PA13*%
%TO.N,SWDIO*%
X163540001Y-91846400D03*
%TO.P,U1,36,PA14-BOOT0*%
%TO.N,SWCLK*%
X164040000Y-91846400D03*
D34*
%TO.P,U1,37,PA15*%
%TO.N,PA15*%
X165506400Y-90380000D03*
%TO.P,U1,38,PD0*%
%TO.N,B1*%
X165506400Y-89880001D03*
%TO.P,U1,39,PD1*%
%TO.N,B2*%
X165506400Y-89379999D03*
%TO.P,U1,40,PD2*%
%TO.N,B3*%
X165506400Y-88880000D03*
%TO.P,U1,41,PD3*%
%TO.N,B4*%
X165506400Y-88380001D03*
%TO.P,U1,42,PB3*%
%TO.N,PB3*%
X165506400Y-87880000D03*
%TO.P,U1,43,PB4*%
%TO.N,PB4*%
X165506400Y-87380000D03*
%TO.P,U1,44,PB5*%
%TO.N,PB5*%
X165506400Y-86879999D03*
%TO.P,U1,45,PB6*%
%TO.N,PB6*%
X165506400Y-86380000D03*
%TO.P,U1,46,PB7*%
%TO.N,PB7*%
X165506400Y-85880001D03*
%TO.P,U1,47,PB8*%
%TO.N,PB8*%
X165506400Y-85379999D03*
%TO.P,U1,48,PB9*%
%TO.N,PB9*%
X165506400Y-84880000D03*
%TD*%
D12*
%TO.P,C6,1*%
%TO.N,+3V3*%
X165142500Y-81462500D03*
%TO.P,C6,2*%
%TO.N,GND*%
X165142500Y-80502500D03*
%TD*%
D10*
%TO.P,R6,1*%
%TO.N,+3V3*%
X198000000Y-81690000D03*
%TO.P,R6,2*%
%TO.N,B2*%
X198000000Y-82710000D03*
%TD*%
%TO.P,R7,1*%
%TO.N,+3V3*%
X196800000Y-81690000D03*
%TO.P,R7,2*%
%TO.N,B3*%
X196800000Y-82710000D03*
%TD*%
D30*
%TO.P,J2,1,Pin_1*%
%TO.N,PA0*%
X128600000Y-75325000D03*
D31*
%TO.P,J2,2,Pin_2*%
%TO.N,PA1*%
X128600000Y-76595000D03*
%TO.P,J2,3,Pin_3*%
%TO.N,PA2*%
X128600000Y-77865000D03*
%TO.P,J2,4,Pin_4*%
%TO.N,PA3*%
X128600000Y-79135000D03*
%TO.P,J2,5,Pin_5*%
%TO.N,PA4*%
X128600000Y-80405000D03*
%TO.P,J2,6,Pin_6*%
%TO.N,PA5*%
X128600000Y-81675000D03*
%TO.P,J2,7,Pin_7*%
%TO.N,PA6*%
X128600000Y-82945000D03*
%TO.P,J2,8,Pin_8*%
%TO.N,PA7*%
X128600000Y-84215000D03*
%TO.P,J2,9,Pin_9*%
%TO.N,+3V3*%
X128600000Y-85485000D03*
%TO.P,J2,10,Pin_10*%
%TO.N,GND*%
X128600000Y-86755000D03*
%TO.P,J2,11,Pin_11*%
%TO.N,PB0*%
X128600000Y-88025000D03*
%TO.P,J2,12,Pin_12*%
%TO.N,PB1*%
X128600000Y-89295000D03*
%TO.P,J2,13,Pin_13*%
%TO.N,PB2*%
X128600000Y-90565000D03*
%TO.P,J2,14,Pin_14*%
%TO.N,PB10*%
X128600000Y-91835000D03*
%TO.P,J2,15,Pin_15*%
%TO.N,PB11*%
X128600000Y-93105000D03*
%TO.P,J2,16,Pin_16*%
%TO.N,PB12*%
X128600000Y-94375000D03*
%TO.P,J2,17,Pin_17*%
%TO.N,PB13*%
X128600000Y-95645000D03*
%TO.P,J2,18,Pin_18*%
%TO.N,unconnected-(J2-Pad18)*%
X128600000Y-96915000D03*
%TO.P,J2,19,Pin_19*%
%TO.N,+3V3*%
X128600000Y-98185000D03*
%TO.P,J2,20,Pin_20*%
%TO.N,GND*%
X128600000Y-99455000D03*
%TD*%
D20*
%TO.P,D1,1,K*%
%TO.N,Net-(D1-Pad1)*%
X166600000Y-74293750D03*
%TO.P,D1,2,A*%
%TO.N,+3V3*%
X168175000Y-74293750D03*
%TD*%
D35*
%TO.N,+3V3*%
X201800000Y-83400000D03*
X200200000Y-81960500D03*
%TO.N,GND*%
X140200000Y-88200000D03*
X169500000Y-70000000D03*
X166100000Y-80200000D03*
X141300000Y-89791500D03*
X167700000Y-71900000D03*
X171500000Y-70000000D03*
X168650000Y-71900000D03*
X161100000Y-79800000D03*
X170500000Y-70000000D03*
X162800000Y-77500000D03*
X161500000Y-70000000D03*
X168650000Y-70950000D03*
X152600000Y-78900000D03*
X161000000Y-84800000D03*
X158100000Y-76800000D03*
X130000000Y-87000000D03*
%TO.N,LED_4*%
X149400000Y-90400000D03*
X161800000Y-86600000D03*
%TO.N,Net-(J4-PadA5)*%
X170800000Y-65900000D03*
X168700000Y-65900000D03*
%TO.N,LED_3*%
X148400000Y-91400000D03*
X162800000Y-87800000D03*
%TO.N,Net-(J4-PadB5)*%
X168136443Y-64974526D03*
X170923973Y-64908216D03*
%TO.N,LED_2*%
X152000000Y-88200000D03*
X158600000Y-88200000D03*
%TO.N,LED_1*%
X149200000Y-87200000D03*
X158600000Y-89400000D03*
%TO.N,SWDIO*%
X158404101Y-85800000D03*
X152293982Y-81553009D03*
%TO.N,SWCLK*%
X159800000Y-86000000D03*
X151400000Y-82000000D03*
%TO.N,NRST*%
X161000000Y-86000000D03*
X150300000Y-82250000D03*
%TO.N,PA1*%
X138600000Y-77000000D03*
X141400000Y-77000000D03*
%TO.N,B1*%
X174000000Y-88200000D03*
X171400000Y-90129499D03*
%TO.N,B2*%
X172600000Y-89629500D03*
X175800000Y-89600000D03*
%TO.N,B3*%
X193200000Y-87000000D03*
X193200000Y-89400000D03*
%TO.N,B4*%
X180200000Y-85800000D03*
%TD*%
D36*
%TO.N,+3V3*%
X128485000Y-85485000D02*
X127600000Y-84600000D01*
X167137500Y-81462500D02*
X165142500Y-81462500D01*
D37*
X164000000Y-81680000D02*
X164520000Y-81680000D01*
D36*
X208000000Y-85800000D02*
X208000000Y-97600000D01*
D37*
X161540000Y-82540000D02*
X161142500Y-82142500D01*
D36*
X208000000Y-97600000D02*
X207185000Y-98415000D01*
D37*
X199200000Y-81690000D02*
X195600000Y-81690000D01*
D36*
X132000000Y-64000000D02*
X143150000Y-64000000D01*
X128600000Y-85485000D02*
X128485000Y-85485000D01*
X176750000Y-73050000D02*
X176750000Y-74493750D01*
D37*
X161800000Y-84600000D02*
X161800000Y-84539339D01*
X163480000Y-82200000D02*
X164000000Y-81680000D01*
D36*
X127600000Y-68400000D02*
X132000000Y-64000000D01*
X208000000Y-85800000D02*
X208000000Y-74600000D01*
X167200000Y-78600000D02*
X166487500Y-77887500D01*
X174625000Y-70000000D02*
X174625000Y-76618750D01*
D37*
X161540000Y-84279339D02*
X161540000Y-83413600D01*
D36*
X127600000Y-86400000D02*
X127600000Y-97800000D01*
X173596875Y-77646875D02*
X169781250Y-81462500D01*
X167137500Y-81462500D02*
X167200000Y-81400000D01*
X160000000Y-75200000D02*
X159000000Y-75200000D01*
X143150000Y-64000000D02*
X144475000Y-65325000D01*
X127600000Y-86400000D02*
X127600000Y-84600000D01*
X167200000Y-81400000D02*
X167200000Y-78600000D01*
D37*
X162625465Y-82400000D02*
X162825465Y-82200000D01*
D36*
X203400000Y-70000000D02*
X205675000Y-72275000D01*
D37*
X164520000Y-81680000D02*
X164737500Y-81462500D01*
D36*
X174625000Y-76618750D02*
X173596875Y-77646875D01*
D37*
X162825465Y-82200000D02*
X163480000Y-82200000D01*
D36*
X169781250Y-81462500D02*
X167137500Y-81462500D01*
X161200000Y-76400000D02*
X163400000Y-76400000D01*
X174625000Y-70000000D02*
X203400000Y-70000000D01*
X207010000Y-85715000D02*
X207915000Y-85715000D01*
D37*
X162540000Y-82460000D02*
X162600000Y-82400000D01*
X162540000Y-84660000D02*
X162400000Y-84800000D01*
X162600000Y-82400000D02*
X162625465Y-82400000D01*
X164737500Y-81462500D02*
X165142500Y-81462500D01*
D36*
X149125000Y-65325000D02*
X144475000Y-65325000D01*
D37*
X161800000Y-84539339D02*
X161540000Y-84279339D01*
D36*
X166487500Y-77887500D02*
X164887500Y-77887500D01*
X161200000Y-76400000D02*
X160000000Y-75200000D01*
D37*
X162400000Y-84800000D02*
X162000000Y-84800000D01*
D36*
X127985000Y-98185000D02*
X128600000Y-98185000D01*
X207915000Y-85715000D02*
X208000000Y-85800000D01*
D37*
X201800000Y-83400000D02*
X204115000Y-85715000D01*
D36*
X207185000Y-98415000D02*
X207010000Y-98415000D01*
D37*
X204115000Y-85715000D02*
X207010000Y-85715000D01*
D36*
X159000000Y-75200000D02*
X149125000Y-65325000D01*
D37*
X162540000Y-83413600D02*
X162540000Y-82460000D01*
X162540000Y-83413600D02*
X162540000Y-84660000D01*
X161540000Y-83413600D02*
X161540000Y-82540000D01*
D36*
X127600000Y-97800000D02*
X127985000Y-98185000D01*
X159342500Y-78257500D02*
X161200000Y-76400000D01*
X164887500Y-77887500D02*
X163400000Y-76400000D01*
X208000000Y-74600000D02*
X205675000Y-72275000D01*
D37*
X162000000Y-84800000D02*
X161800000Y-84600000D01*
D36*
X127600000Y-84600000D02*
X127600000Y-68400000D01*
D37*
X199200000Y-81690000D02*
X199929500Y-81690000D01*
X199929500Y-81690000D02*
X200200000Y-81960500D01*
D36*
X159342500Y-78357500D02*
X159342500Y-78257500D01*
D37*
X161142500Y-82142500D02*
X161142500Y-81680000D01*
D36*
X164887500Y-79200000D02*
X164887500Y-77887500D01*
D37*
%TO.N,GND*%
X140208000Y-86614000D02*
X140208000Y-88192000D01*
D36*
X161142500Y-80720000D02*
X161142500Y-79842500D01*
D37*
X161500000Y-70500000D02*
X161500000Y-70000000D01*
D36*
X165142500Y-80502500D02*
X165797500Y-80502500D01*
X165142500Y-80502500D02*
X164217500Y-80502500D01*
D37*
X140262000Y-88138000D02*
X140200000Y-88200000D01*
X159342500Y-76807500D02*
X158107500Y-76807500D01*
X140208000Y-88192000D02*
X140200000Y-88200000D01*
D36*
X168530000Y-68611250D02*
X168530000Y-69030000D01*
X164217500Y-80502500D02*
X164000000Y-80720000D01*
D37*
X140208000Y-89662000D02*
X141170500Y-89662000D01*
X162030000Y-68611250D02*
X162030000Y-69470000D01*
X161040000Y-84760000D02*
X161000000Y-84800000D01*
X162602500Y-77302500D02*
X162800000Y-77500000D01*
X138686000Y-88138000D02*
X140138000Y-88138000D01*
X141732000Y-88138000D02*
X140262000Y-88138000D01*
D36*
X162342500Y-80720000D02*
X161142500Y-80720000D01*
D37*
X161040000Y-83413600D02*
X161040000Y-84760000D01*
X162600000Y-71131250D02*
X162131250Y-71131250D01*
X141170500Y-89662000D02*
X141300000Y-89791500D01*
X161742500Y-77302500D02*
X162602500Y-77302500D01*
X140138000Y-88138000D02*
X140200000Y-88200000D01*
X162030000Y-69470000D02*
X161500000Y-70000000D01*
X152617500Y-78882500D02*
X152600000Y-78900000D01*
D36*
X165797500Y-80502500D02*
X166100000Y-80200000D01*
D37*
X129755000Y-86755000D02*
X130000000Y-87000000D01*
X154142500Y-78882500D02*
X152617500Y-78882500D01*
X158107500Y-76807500D02*
X158100000Y-76800000D01*
D36*
X161142500Y-79842500D02*
X161100000Y-79800000D01*
D37*
X162131250Y-71131250D02*
X161500000Y-70500000D01*
X128600000Y-86755000D02*
X129755000Y-86755000D01*
%TO.N,+3.3VA*%
X162200000Y-79200000D02*
X161742500Y-78742500D01*
X162040001Y-81982499D02*
X162342500Y-81680000D01*
X163200000Y-81400000D02*
X163200000Y-79312500D01*
X163312500Y-79200000D02*
X162200000Y-79200000D01*
X162920000Y-81680000D02*
X163200000Y-81400000D01*
X163200000Y-79312500D02*
X163312500Y-79200000D01*
X162342500Y-81680000D02*
X162920000Y-81680000D01*
X161742500Y-78742500D02*
X161742500Y-78262500D01*
X162040001Y-83413600D02*
X162040001Y-81982499D01*
D36*
%TO.N,Net-(C8-Pad1)*%
X162612500Y-72668750D02*
X162600000Y-72681250D01*
%TO.N,HSE_IN*%
X157282500Y-78882500D02*
X156342500Y-78882500D01*
D37*
X160539999Y-83413600D02*
X160539999Y-82139999D01*
D36*
X159400000Y-79600000D02*
X158000000Y-79600000D01*
X159742500Y-80382500D02*
X159742500Y-79942500D01*
D37*
X160539999Y-82139999D02*
X160200000Y-81800000D01*
X160200000Y-80840000D02*
X159742500Y-80382500D01*
X160200000Y-81800000D02*
X160200000Y-80840000D01*
D36*
X158000000Y-79600000D02*
X157282500Y-78882500D01*
X159742500Y-79942500D02*
X159400000Y-79600000D01*
D37*
%TO.N,Net-(C10-Pad2)*%
X156342500Y-80582500D02*
X157817500Y-80582500D01*
X157817500Y-80582500D02*
X158017500Y-80382500D01*
X158017500Y-80382500D02*
X158782500Y-80382500D01*
X158382500Y-81582500D02*
X158600000Y-81365000D01*
X158600000Y-80565000D02*
X158782500Y-80382500D01*
X158600000Y-81365000D02*
X158600000Y-80565000D01*
%TO.N,HSE_OUT*%
X156600000Y-81800000D02*
X154800000Y-81800000D01*
X159342500Y-81742500D02*
X159342500Y-81582500D01*
X154800000Y-81800000D02*
X154142500Y-81142500D01*
X159900000Y-82300000D02*
X157100000Y-82300000D01*
X157100000Y-82300000D02*
X156600000Y-81800000D01*
X160040000Y-82440000D02*
X159900000Y-82300000D01*
X154142500Y-81142500D02*
X154142500Y-80582500D01*
X160040000Y-83413600D02*
X160040000Y-82440000D01*
X159900000Y-82300000D02*
X159342500Y-81742500D01*
D36*
%TO.N,Net-(D1-Pad1)*%
X166600000Y-72906250D02*
X166587500Y-72893750D01*
X166600000Y-74293750D02*
X166600000Y-72906250D01*
D37*
%TO.N,LED_4*%
X148042000Y-89042000D02*
X135716500Y-89042000D01*
X135716500Y-89042000D02*
X134812500Y-88138000D01*
X163039999Y-83413600D02*
X163040000Y-85360000D01*
X149400000Y-90400000D02*
X148042000Y-89042000D01*
X163040000Y-85360000D02*
X161800000Y-86600000D01*
%TO.N,Net-(J4-PadA5)*%
X166530000Y-68611250D02*
X166530000Y-66870000D01*
X167500000Y-65900000D02*
X168700000Y-65900000D01*
X171500000Y-67590000D02*
X171500000Y-66600000D01*
X171500000Y-66600000D02*
X170800000Y-65900000D01*
X166530000Y-66870000D02*
X167500000Y-65900000D01*
%TO.N,LED_3*%
X146277000Y-93523000D02*
X140208000Y-93523000D01*
X163540001Y-83413600D02*
X163540001Y-87059999D01*
X163540001Y-87059999D02*
X162800000Y-87800000D01*
X148400000Y-91400000D02*
X146277000Y-93523000D01*
%TO.N,Net-(J4-PadB5)*%
X163530000Y-67536250D02*
X163530000Y-68611250D01*
X170923973Y-64908216D02*
X173000000Y-66984243D01*
X173000000Y-66984243D02*
X173000000Y-67590000D01*
X166091724Y-64974526D02*
X163530000Y-67536250D01*
X168136443Y-64974526D02*
X166091724Y-64974526D01*
%TO.N,LED_2*%
X161540000Y-89740000D02*
X161540000Y-91846400D01*
X158600000Y-88200000D02*
X160000000Y-88200000D01*
X145593000Y-88138000D02*
X151938000Y-88138000D01*
X151938000Y-88138000D02*
X152000000Y-88200000D01*
X160000000Y-88200000D02*
X161540000Y-89740000D01*
D36*
%TO.N,Net-(PC1-Pad1)*%
X137666000Y-88138000D02*
X136387500Y-88138000D01*
D37*
%TO.N,LED_1*%
X149200000Y-87200000D02*
X145400000Y-87200000D01*
X161040000Y-91846400D02*
X161040000Y-90775702D01*
X145400000Y-87200000D02*
X140978500Y-82778500D01*
X140978500Y-82778500D02*
X140208000Y-82778500D01*
X159664298Y-89400000D02*
X158600000Y-89400000D01*
X161040000Y-90775702D02*
X159664298Y-89400000D01*
D36*
%TO.N,Net-(PC2-Pad1)*%
X140208000Y-91948000D02*
X140208000Y-90682000D01*
D37*
%TO.N,SWDIO*%
X163540001Y-90935900D02*
X158404101Y-85800000D01*
X163540001Y-91846400D02*
X163540001Y-90935900D01*
X152293982Y-81553009D02*
X144475000Y-73734027D01*
X144475000Y-73734027D02*
X144475000Y-67865000D01*
%TO.N,SWCLK*%
X164040000Y-91846400D02*
X164040000Y-90240000D01*
X164040000Y-90240000D02*
X159800000Y-86000000D01*
X141935000Y-72535000D02*
X141935000Y-67865000D01*
X151400000Y-82000000D02*
X141935000Y-72535000D01*
%TO.N,NRST*%
X134315000Y-69715000D02*
X140600000Y-76000000D01*
X159540001Y-83413600D02*
X159540001Y-84540001D01*
X148700000Y-82250000D02*
X150300000Y-82250000D01*
X159540001Y-84540001D02*
X161000000Y-86000000D01*
X134315000Y-67865000D02*
X134315000Y-69715000D01*
X140600000Y-76000000D02*
X142450000Y-76000000D01*
X142450000Y-76000000D02*
X148700000Y-82250000D01*
%TO.N,PA0*%
X158200000Y-84600000D02*
X157400000Y-83800000D01*
X146600000Y-83800000D02*
X138125000Y-75325000D01*
X138125000Y-75325000D02*
X128600000Y-75325000D01*
X158800000Y-84600000D02*
X158200000Y-84600000D01*
X159039999Y-84360001D02*
X158800000Y-84600000D01*
X159039999Y-83413600D02*
X159039999Y-84360001D01*
X157400000Y-83800000D02*
X146600000Y-83800000D01*
%TO.N,PA1*%
X138600000Y-77000000D02*
X138195000Y-76595000D01*
X138195000Y-76595000D02*
X128600000Y-76595000D01*
X158540000Y-83413600D02*
X158013600Y-83413600D01*
X141400000Y-77600000D02*
X146800000Y-83000000D01*
X157600000Y-83000000D02*
X146800000Y-83000000D01*
X158013600Y-83413600D02*
X157600000Y-83000000D01*
X141400000Y-77000000D02*
X141400000Y-77600000D01*
%TO.N,PA2*%
X146480000Y-84880000D02*
X146200000Y-84600000D01*
X128600000Y-77865000D02*
X139465000Y-77865000D01*
X139465000Y-77865000D02*
X141200000Y-79600000D01*
X157073600Y-84880000D02*
X146480000Y-84880000D01*
X141200000Y-79600000D02*
X146200000Y-84600000D01*
%TO.N,PA3*%
X157073600Y-85379999D02*
X146272894Y-85380000D01*
X140027894Y-79135000D02*
X128600000Y-79135000D01*
X146272894Y-85380000D02*
X140027894Y-79135000D01*
%TO.N,PA4*%
X157073600Y-85880001D02*
X145880000Y-85880000D01*
X140405000Y-80405000D02*
X128600000Y-80405000D01*
X145880000Y-85880000D02*
X140405000Y-80405000D01*
%TO.N,PA5*%
X145620000Y-86380000D02*
X140915000Y-81675000D01*
X140915000Y-81675000D02*
X128600000Y-81675000D01*
X157073600Y-86380000D02*
X145620000Y-86380000D01*
%TO.N,PA6*%
X132000000Y-85000000D02*
X129945000Y-82945000D01*
X154427107Y-86879999D02*
X146053553Y-95253553D01*
X132000000Y-91000000D02*
X132000000Y-85000000D01*
X129945000Y-82945000D02*
X128600000Y-82945000D01*
X146053553Y-95253553D02*
X136253553Y-95253553D01*
X157073600Y-86879999D02*
X154427107Y-86879999D01*
X136253553Y-95253553D02*
X132000000Y-91000000D01*
%TO.N,PA7*%
X154634212Y-87380000D02*
X146260659Y-95753553D01*
X131500000Y-91207106D02*
X131500000Y-86400000D01*
X136046447Y-95753553D02*
X131500000Y-91207106D01*
X131500000Y-86400000D02*
X129315000Y-84215000D01*
X146260659Y-95753553D02*
X136046447Y-95753553D01*
X129315000Y-84215000D02*
X128600000Y-84215000D01*
X157073600Y-87380000D02*
X154634212Y-87380000D01*
%TO.N,PB0*%
X129425000Y-88025000D02*
X128600000Y-88025000D01*
X154841318Y-87880000D02*
X146467766Y-96253553D01*
X146467766Y-96253553D02*
X135839341Y-96253553D01*
X131000000Y-91414212D02*
X131000000Y-89600000D01*
X131000000Y-89600000D02*
X129425000Y-88025000D01*
X135839341Y-96253553D02*
X131000000Y-91414212D01*
X157073600Y-87880000D02*
X154841318Y-87880000D01*
%TO.N,PB1*%
X146628424Y-96800000D02*
X135600000Y-96800000D01*
X130500000Y-91700000D02*
X130500000Y-90500000D01*
X129295000Y-89295000D02*
X128600000Y-89295000D01*
X155048423Y-88380001D02*
X146628424Y-96800000D01*
X157073600Y-88380001D02*
X155048423Y-88380001D01*
X130500000Y-90500000D02*
X129295000Y-89295000D01*
X135600000Y-96800000D02*
X130500000Y-91700000D01*
%TO.N,PB2*%
X155255530Y-88880000D02*
X146735530Y-97400000D01*
X130000000Y-91907106D02*
X130000000Y-91400000D01*
X130000000Y-91400000D02*
X129165000Y-90565000D01*
X135492894Y-97400000D02*
X130000000Y-91907106D01*
X129165000Y-90565000D02*
X128600000Y-90565000D01*
X146735530Y-97400000D02*
X135492894Y-97400000D01*
X157073600Y-88880000D02*
X155255530Y-88880000D01*
%TO.N,PB10*%
X135385788Y-98000000D02*
X129220788Y-91835000D01*
X157073600Y-89379999D02*
X155462637Y-89379999D01*
X129220788Y-91835000D02*
X128600000Y-91835000D01*
X155462637Y-89379999D02*
X146842636Y-98000000D01*
X146842636Y-98000000D02*
X135385788Y-98000000D01*
%TO.N,PB11*%
X146949742Y-98600000D02*
X135200000Y-98600000D01*
X155669741Y-89880001D02*
X146949742Y-98600000D01*
X135200000Y-98600000D02*
X135200000Y-98521318D01*
X129783682Y-93105000D02*
X128600000Y-93105000D01*
X157073600Y-89880001D02*
X155669741Y-89880001D01*
X135200000Y-98521318D02*
X129783682Y-93105000D01*
%TO.N,PB12*%
X130267894Y-94375000D02*
X128600000Y-94375000D01*
X155876848Y-90380000D02*
X147156848Y-99100000D01*
X134992893Y-99100000D02*
X130267894Y-94375000D01*
X157073600Y-90380000D02*
X155876848Y-90380000D01*
X147156848Y-99100000D02*
X134992893Y-99100000D01*
%TO.N,PB13*%
X155400000Y-96000000D02*
X150963954Y-96000000D01*
X134785787Y-99600000D02*
X130830788Y-95645000D01*
X158540000Y-91846400D02*
X158540000Y-92860000D01*
X130830788Y-95645000D02*
X128600000Y-95645000D01*
X147363954Y-99600000D02*
X134785787Y-99600000D01*
X158540000Y-92860000D02*
X155400000Y-96000000D01*
X150963954Y-96000000D02*
X147363954Y-99600000D01*
%TO.N,PC13*%
X182500000Y-72300000D02*
X197449745Y-72300000D01*
X164040000Y-83413600D02*
X171386400Y-83413600D01*
X171386400Y-83413600D02*
X182500000Y-72300000D01*
X200704745Y-75555000D02*
X207010000Y-75555000D01*
X197449745Y-72300000D02*
X200704745Y-75555000D01*
%TO.N,PB9*%
X170627106Y-84879997D02*
X182707103Y-72800000D01*
X197242638Y-72800000D02*
X201267638Y-76825000D01*
X201267638Y-76825000D02*
X207010000Y-76825000D01*
X170627106Y-84880000D02*
X170627106Y-84879997D01*
X165506400Y-84880000D02*
X170627106Y-84880000D01*
X182707103Y-72800000D02*
X197242638Y-72800000D01*
%TO.N,PB8*%
X165506400Y-85379999D02*
X170834212Y-85380000D01*
X175707106Y-80507103D02*
X182914209Y-73300000D01*
X197035532Y-73300000D02*
X201830532Y-78095000D01*
X175707106Y-80507106D02*
X175707106Y-80507103D01*
X170834212Y-85380000D02*
X175707106Y-80507106D01*
X201830532Y-78095000D02*
X207010000Y-78095000D01*
X182914209Y-73300000D02*
X197035532Y-73300000D01*
%TO.N,PB7*%
X171041318Y-85880000D02*
X183121316Y-73800000D01*
X196828426Y-73800000D02*
X202393426Y-79365000D01*
X202393426Y-79365000D02*
X207010000Y-79365000D01*
X183121316Y-73800000D02*
X196828426Y-73800000D01*
X165506400Y-85880001D02*
X171041318Y-85880000D01*
%TO.N,PB6*%
X183328423Y-74300000D02*
X196621320Y-74300000D01*
X196621320Y-74300000D02*
X202956319Y-80635000D01*
X165506400Y-86380000D02*
X171248424Y-86380000D01*
X202956319Y-80635000D02*
X207010000Y-80635000D01*
X171248424Y-86380000D02*
X183328423Y-74300000D01*
%TO.N,PB5*%
X183535530Y-74800000D02*
X196414213Y-74800000D01*
X171455530Y-86880000D02*
X183535530Y-74800000D01*
X165506400Y-86879999D02*
X167320000Y-86880000D01*
X196414213Y-74800000D02*
X203519213Y-81905000D01*
X167320000Y-86880000D02*
X171455530Y-86880000D01*
X203519213Y-81905000D02*
X207010000Y-81905000D01*
%TO.N,PB4*%
X196207106Y-75300000D02*
X204082106Y-83175000D01*
X204082106Y-83175000D02*
X207010000Y-83175000D01*
X171662636Y-87380000D02*
X183742636Y-75300000D01*
X165506400Y-87380000D02*
X171662636Y-87380000D01*
X183742636Y-75300000D02*
X196207106Y-75300000D01*
%TO.N,PB3*%
X171869742Y-87880000D02*
X183949742Y-75800000D01*
X204645000Y-84445000D02*
X207010000Y-84445000D01*
X165506400Y-87880000D02*
X171869742Y-87880000D01*
X183949742Y-75800000D02*
X196000000Y-75800000D01*
X196000000Y-75800000D02*
X204645000Y-84445000D01*
%TO.N,PA15*%
X180207107Y-94500000D02*
X182607106Y-96900000D01*
X199700000Y-91800000D02*
X199700000Y-89900000D01*
X165506400Y-90380000D02*
X165506400Y-92306400D01*
X182607106Y-96900000D02*
X194600000Y-96900000D01*
X165506400Y-92306400D02*
X167700000Y-94500000D01*
X201345000Y-88255000D02*
X207010000Y-88255000D01*
X194600000Y-96900000D02*
X199700000Y-91800000D01*
X167700000Y-94500000D02*
X180207107Y-94500000D01*
X199700000Y-89900000D02*
X201345000Y-88255000D01*
%TO.N,PA12*%
X195192894Y-100100000D02*
X205767894Y-89525000D01*
X164321318Y-95000000D02*
X180000000Y-95000000D01*
X180000000Y-95000000D02*
X185100000Y-100100000D01*
X185100000Y-100100000D02*
X195192894Y-100100000D01*
X163039999Y-93718681D02*
X164321318Y-95000000D01*
X205767894Y-89525000D02*
X207010000Y-89525000D01*
X163039999Y-91846400D02*
X163039999Y-93718681D01*
%TO.N,PA11*%
X179792894Y-95500000D02*
X184892894Y-100600000D01*
X162540000Y-93925788D02*
X164114212Y-95500000D01*
X205205000Y-90795000D02*
X207010000Y-90795000D01*
X164114212Y-95500000D02*
X179792894Y-95500000D01*
X184892894Y-100600000D02*
X195400000Y-100600000D01*
X162540000Y-91846400D02*
X162540000Y-93925788D01*
X195400000Y-100600000D02*
X205205000Y-90795000D01*
%TO.N,PA10*%
X195507106Y-101200000D02*
X184600000Y-101200000D01*
X163907106Y-96000000D02*
X162040001Y-94132895D01*
X162040001Y-94132895D02*
X162040001Y-91846400D01*
X184600000Y-101200000D02*
X179400000Y-96000000D01*
X207010000Y-92065000D02*
X204642106Y-92065000D01*
X204642106Y-92065000D02*
X195507106Y-101200000D01*
X179400000Y-96000000D02*
X163907106Y-96000000D01*
%TO.N,PA9*%
X163700000Y-96500000D02*
X179192894Y-96500000D01*
X204079212Y-93335000D02*
X207010000Y-93335000D01*
X160539999Y-93339999D02*
X163700000Y-96500000D01*
X184392894Y-101700000D02*
X195714212Y-101700000D01*
X179192894Y-96500000D02*
X184392894Y-101700000D01*
X195714212Y-101700000D02*
X204079212Y-93335000D01*
X160539999Y-91846400D02*
X160539999Y-93339999D01*
%TO.N,PA8*%
X163414212Y-97000000D02*
X178985788Y-97000000D01*
X196000000Y-102200000D02*
X203595000Y-94605000D01*
X160040000Y-91846400D02*
X160040000Y-93625788D01*
X184185788Y-102200000D02*
X196000000Y-102200000D01*
X160040000Y-93625788D02*
X163414212Y-97000000D01*
X203595000Y-94605000D02*
X207010000Y-94605000D01*
X178985788Y-97000000D02*
X184185788Y-102200000D01*
%TO.N,PB15*%
X203125000Y-95875000D02*
X207010000Y-95875000D01*
X183978682Y-102700000D02*
X196300000Y-102700000D01*
X196300000Y-102700000D02*
X203125000Y-95875000D01*
X163207106Y-97500000D02*
X178778682Y-97500000D01*
X159540001Y-93832895D02*
X163207106Y-97500000D01*
X159540001Y-91846400D02*
X159540001Y-93832895D01*
X178778682Y-97500000D02*
X183978682Y-102700000D01*
%TO.N,PB14*%
X196507106Y-103200000D02*
X202562106Y-97145000D01*
X159039999Y-91846400D02*
X159039999Y-94039999D01*
X183771576Y-103200000D02*
X196507106Y-103200000D01*
X202562106Y-97145000D02*
X207010000Y-97145000D01*
X159039999Y-94039999D02*
X163000000Y-98000000D01*
X178571576Y-98000000D02*
X183771576Y-103200000D01*
X163000000Y-98000000D02*
X178571576Y-98000000D01*
D36*
%TO.N,Net-(PC3-Pad1)*%
X144018000Y-88138000D02*
X142752000Y-88138000D01*
%TO.N,Net-(PC4-Pad1)*%
X140208000Y-84353500D02*
X140208000Y-85594000D01*
D37*
%TO.N,unconnected-(J4-PadS1)*%
X160960000Y-63516250D02*
X160960000Y-67696250D01*
X169600000Y-63516250D02*
X160960000Y-63516250D01*
X169600000Y-67696250D02*
X169600000Y-63516250D01*
%TO.N,B1*%
X179200000Y-88000000D02*
X186834000Y-80366000D01*
X200890000Y-82710000D02*
X199200000Y-82710000D01*
X174000000Y-88200000D02*
X174200000Y-88000000D01*
X197344894Y-77852000D02*
X201200000Y-81707106D01*
X186834000Y-77852000D02*
X193334000Y-77852000D01*
X186834000Y-80366000D02*
X186834000Y-77852000D01*
X174200000Y-88000000D02*
X179200000Y-88000000D01*
X201200000Y-81707106D02*
X201200000Y-82400000D01*
X171150502Y-89880001D02*
X171400000Y-90129499D01*
X201200000Y-82400000D02*
X200890000Y-82710000D01*
X165506400Y-89880001D02*
X171150502Y-89880001D01*
X193334000Y-77852000D02*
X197344894Y-77852000D01*
%TO.N,B2*%
X198000000Y-83686000D02*
X195834000Y-85852000D01*
X198000000Y-82710000D02*
X198000000Y-83686000D01*
X202334000Y-85852000D02*
X195834000Y-85852000D01*
X165506400Y-89379999D02*
X172350499Y-89379999D01*
X175800000Y-89600000D02*
X176800000Y-88600000D01*
X172350499Y-89379999D02*
X172600000Y-89629500D01*
X193086000Y-88600000D02*
X195834000Y-85852000D01*
X176800000Y-88600000D02*
X193086000Y-88600000D01*
%TO.N,B3*%
X173280000Y-88880000D02*
X178252000Y-93852000D01*
X196800000Y-82800000D02*
X194400000Y-85200000D01*
X178252000Y-93852000D02*
X186834000Y-93852000D01*
X193200000Y-86400000D02*
X193200000Y-87000000D01*
X194400000Y-85200000D02*
X193200000Y-86400000D01*
X186834000Y-93852000D02*
X193334000Y-93852000D01*
X165506400Y-88880000D02*
X173280000Y-88880000D01*
X196800000Y-82710000D02*
X196800000Y-82800000D01*
X193334000Y-89534000D02*
X193334000Y-93852000D01*
X193200000Y-89400000D02*
X193334000Y-89534000D01*
%TO.N,B4*%
X177834000Y-85852000D02*
X180148000Y-85852000D01*
X172219999Y-88380001D02*
X174748000Y-85852000D01*
X174748000Y-85852000D02*
X177834000Y-85852000D01*
X185986000Y-84200000D02*
X184334000Y-85852000D01*
X180148000Y-85852000D02*
X180200000Y-85800000D01*
X165506400Y-88380001D02*
X172219999Y-88380001D01*
X195600000Y-82710000D02*
X194110000Y-84200000D01*
X194110000Y-84200000D02*
X185986000Y-84200000D01*
%TD*%
%TA.AperFunction,Conductor*%
%TO.N,+3V3*%
G36*
X175290805Y-69220948D02*
G01*
X175337673Y-69272767D01*
X175350000Y-69326666D01*
X175350000Y-71500000D01*
X175850000Y-72300000D01*
X177726000Y-72300000D01*
X177793039Y-72319685D01*
X177838794Y-72372489D01*
X177850000Y-72424000D01*
X177850000Y-76226000D01*
X177830315Y-76293039D01*
X177777511Y-76338794D01*
X177726000Y-76350000D01*
X175544263Y-76350000D01*
X175477224Y-76330315D01*
X175465753Y-76321980D01*
X174400000Y-75450000D01*
X169604548Y-75450000D01*
X169537509Y-75430315D01*
X169513141Y-75409790D01*
X169012047Y-74863142D01*
X169000000Y-74850000D01*
X167874000Y-74850000D01*
X167806961Y-74830315D01*
X167761206Y-74777511D01*
X167750000Y-74726000D01*
X167750000Y-73721569D01*
X167769685Y-73654530D01*
X167822489Y-73608775D01*
X167871544Y-73597593D01*
X171349909Y-73528715D01*
X172782177Y-73500353D01*
X172800000Y-73500000D01*
X174175000Y-72025000D01*
X174175000Y-69346390D01*
X174194685Y-69279351D01*
X174247489Y-69233596D01*
X174296362Y-69222418D01*
X174561219Y-69216783D01*
X175223363Y-69202694D01*
X175290805Y-69220948D01*
G37*
%TD.AperFunction*%
%TD*%
%TA.AperFunction,Conductor*%
%TO.N,GND*%
G36*
X173592121Y-68220002D02*
G01*
X173638614Y-68273658D01*
X173650000Y-68326000D01*
X173650000Y-69650000D01*
X170900000Y-69650000D01*
X170900000Y-68326000D01*
X170920002Y-68257879D01*
X170973658Y-68211386D01*
X171026000Y-68200000D01*
X173524000Y-68200000D01*
X173592121Y-68220002D01*
G37*
%TD.AperFunction*%
%TD*%
%TA.AperFunction,Conductor*%
%TO.N,Net-(C8-Pad1)*%
G36*
X163340841Y-72072979D02*
G01*
X164678297Y-72097746D01*
X164744959Y-72118669D01*
X164789729Y-72172311D01*
X164800000Y-72221725D01*
X164800000Y-74050000D01*
X164810790Y-74057129D01*
X164810791Y-74057130D01*
X165888951Y-74769486D01*
X165924361Y-74807494D01*
X165924619Y-74807298D01*
X166010633Y-74920617D01*
X166123952Y-75006631D01*
X166256227Y-75059003D01*
X166264127Y-75059959D01*
X166264131Y-75059960D01*
X166313991Y-75065993D01*
X166367450Y-75085637D01*
X167600000Y-75900000D01*
X171527531Y-75948488D01*
X171594322Y-75968999D01*
X171639422Y-76022364D01*
X171650000Y-76072479D01*
X171650000Y-77630508D01*
X171630315Y-77697547D01*
X171577511Y-77743302D01*
X171530591Y-77754423D01*
X167643257Y-77898398D01*
X167575536Y-77881208D01*
X167565149Y-77874337D01*
X163663791Y-75001519D01*
X162150474Y-73887167D01*
X162108163Y-73831565D01*
X162100000Y-73787317D01*
X162100000Y-72176318D01*
X162119685Y-72109279D01*
X162172489Y-72063524D01*
X162226296Y-72052339D01*
X163340841Y-72072979D01*
G37*
%TD.AperFunction*%
%TD*%
%TA.AperFunction,Conductor*%
%TO.N,GND*%
G36*
X168717539Y-67919685D02*
G01*
X168763294Y-67972489D01*
X168774500Y-68024000D01*
X168774500Y-68266060D01*
X168789003Y-68399559D01*
X168791146Y-68405927D01*
X168843523Y-68561563D01*
X168850000Y-68601114D01*
X168850000Y-68950000D01*
X168858303Y-68956458D01*
X168858305Y-68956460D01*
X169138000Y-69174000D01*
X169300000Y-69300000D01*
X173650000Y-69300000D01*
X173650000Y-70526000D01*
X173630315Y-70593039D01*
X173577511Y-70638794D01*
X173526000Y-70650000D01*
X172450000Y-70650000D01*
X171700000Y-71350000D01*
X171700000Y-72826000D01*
X171680315Y-72893039D01*
X171627511Y-72938794D01*
X171576000Y-72950000D01*
X169379339Y-72950000D01*
X169312300Y-72930315D01*
X169266752Y-72877963D01*
X169007472Y-72316189D01*
X169000000Y-72300000D01*
X166224000Y-72300000D01*
X166156961Y-72280315D01*
X166111206Y-72227511D01*
X166100000Y-72176000D01*
X166100000Y-71524000D01*
X166119685Y-71456961D01*
X166172489Y-71411206D01*
X166224000Y-71400000D01*
X167650000Y-71400000D01*
X168050000Y-71100000D01*
X168050000Y-70535563D01*
X168068848Y-70469843D01*
X168300000Y-70100000D01*
X168300000Y-69494982D01*
X168310589Y-69444843D01*
X168323735Y-69415109D01*
X168323737Y-69415103D01*
X168327506Y-69406577D01*
X168330500Y-69380896D01*
X168330500Y-68024000D01*
X168350185Y-67956961D01*
X168402989Y-67911206D01*
X168454500Y-67900000D01*
X168650500Y-67900000D01*
X168717539Y-67919685D01*
G37*
%TD.AperFunction*%
%TD*%
%TA.AperFunction,Conductor*%
%TO.N,VBUS*%
G36*
X163022539Y-67819685D02*
G01*
X163068294Y-67872489D01*
X163079500Y-67924000D01*
X163079500Y-69380896D01*
X163082618Y-69407096D01*
X163128061Y-69509403D01*
X163207287Y-69588491D01*
X163217758Y-69593120D01*
X163217759Y-69593121D01*
X163301147Y-69629987D01*
X163301149Y-69629988D01*
X163309673Y-69633756D01*
X163335354Y-69636750D01*
X163644228Y-69636750D01*
X163699682Y-69649841D01*
X163987085Y-69793543D01*
X163987087Y-69793543D01*
X164000000Y-69800000D01*
X167000000Y-69800000D01*
X167126931Y-69673069D01*
X167188254Y-69639584D01*
X167214612Y-69636750D01*
X167224646Y-69636750D01*
X167228300Y-69636315D01*
X167228302Y-69636315D01*
X167233266Y-69635724D01*
X167250846Y-69633632D01*
X167353153Y-69588189D01*
X167432241Y-69508963D01*
X167436871Y-69498491D01*
X167473737Y-69415103D01*
X167473738Y-69415101D01*
X167477506Y-69406577D01*
X167480500Y-69380896D01*
X167480500Y-68024000D01*
X167500185Y-67956961D01*
X167552989Y-67911206D01*
X167604500Y-67900000D01*
X167805500Y-67900000D01*
X167872539Y-67919685D01*
X167918294Y-67972489D01*
X167929500Y-68024000D01*
X167929500Y-69380896D01*
X167932618Y-69407096D01*
X167973214Y-69498491D01*
X167978061Y-69509403D01*
X167974061Y-69511180D01*
X167988743Y-69555981D01*
X167971152Y-69623600D01*
X167952484Y-69647516D01*
X167228590Y-70371410D01*
X167167267Y-70404895D01*
X167160056Y-70406241D01*
X164800000Y-70775000D01*
X164800000Y-71276000D01*
X164780315Y-71343039D01*
X164727511Y-71388794D01*
X164676000Y-71400000D01*
X163724000Y-71400000D01*
X163656961Y-71380315D01*
X163611206Y-71327511D01*
X163600000Y-71276000D01*
X163600000Y-70675000D01*
X162564942Y-69736540D01*
X162528499Y-69676927D01*
X162524337Y-69639583D01*
X162525465Y-69612148D01*
X162547887Y-69545974D01*
X162561597Y-69529643D01*
X162582241Y-69508963D01*
X162601850Y-69464608D01*
X162623737Y-69415103D01*
X162623738Y-69415101D01*
X162627506Y-69406577D01*
X162630500Y-69380896D01*
X162630500Y-67924000D01*
X162650185Y-67856961D01*
X162702989Y-67811206D01*
X162754500Y-67800000D01*
X162955500Y-67800000D01*
X163022539Y-67819685D01*
G37*
%TD.AperFunction*%
%TD*%
M02*
