M48
; DRILL file {KiCad (6.0.7)} date Thu Aug 25 14:46:54 2022
; FORMAT={-:-/ absolute / metric / decimal}
; #@! TF.CreationDate,2022-08-25T14:46:54-07:00
; #@! TF.GenerationSoftware,Kicad,Pcbnew,(6.0.7)
; #@! TF.FileFunction,MixedPlating,1,2
FMAT,2
METRIC
; #@! TA.AperFunction,Plated,PTH,ViaDrill
T1C0.400
; #@! TA.AperFunction,Plated,PTH,ComponentDrill
T2C0.650
; #@! TA.AperFunction,Plated,PTH,ComponentDrill
T3C1.000
; #@! TA.AperFunction,Plated,PTH,ComponentDrill
T4C1.100
; #@! TA.AperFunction,NonPlated,NPTH,ComponentDrill
T5C0.700
%
G90
G05
T1
X130.0Y-87.0
X138.6Y-77.0
X140.2Y-88.2
X141.3Y-89.791
X141.4Y-77.0
X148.4Y-91.4
X149.2Y-87.2
X149.4Y-90.4
X150.3Y-82.25
X151.4Y-82.0
X152.0Y-88.2
X152.294Y-81.553
X152.6Y-78.9
X158.1Y-76.8
X158.404Y-85.8
X158.6Y-88.2
X158.6Y-89.4
X159.8Y-86.0
X161.0Y-84.8
X161.0Y-86.0
X161.1Y-79.8
X161.5Y-70.0
X161.8Y-86.6
X162.8Y-77.5
X162.8Y-87.8
X166.1Y-80.2
X167.7Y-71.9
X168.136Y-64.975
X168.65Y-70.95
X168.65Y-71.9
X168.7Y-65.9
X169.5Y-70.0
X170.5Y-70.0
X170.8Y-65.9
X170.924Y-64.908
X171.4Y-90.129
X171.5Y-70.0
X172.6Y-89.629
X174.0Y-88.2
X175.8Y-89.6
X180.2Y-85.8
X193.2Y-87.0
X193.2Y-89.4
X200.2Y-81.96
X201.8Y-83.4
T2
X128.6Y-75.325
X128.6Y-76.595
X128.6Y-77.865
X128.6Y-79.135
X128.6Y-80.405
X128.6Y-81.675
X128.6Y-82.945
X128.6Y-84.215
X128.6Y-85.485
X128.6Y-86.755
X128.6Y-88.025
X128.6Y-89.295
X128.6Y-90.565
X128.6Y-91.835
X128.6Y-93.105
X128.6Y-94.375
X128.6Y-95.645
X128.6Y-96.915
X128.6Y-98.185
X128.6Y-99.455
X207.01Y-75.555
X207.01Y-76.825
X207.01Y-78.095
X207.01Y-79.365
X207.01Y-80.635
X207.01Y-81.905
X207.01Y-83.175
X207.01Y-84.445
X207.01Y-85.715
X207.01Y-86.985
X207.01Y-88.255
X207.01Y-89.525
X207.01Y-90.795
X207.01Y-92.065
X207.01Y-93.335
X207.01Y-94.605
X207.01Y-95.875
X207.01Y-97.145
X207.01Y-98.415
X207.01Y-99.685
T3
X134.315Y-65.325
X134.315Y-67.865
X136.855Y-65.325
X136.855Y-67.865
X139.395Y-65.325
X139.395Y-67.865
X141.935Y-65.325
X141.935Y-67.865
X144.475Y-65.325
X144.475Y-67.865
T4
X177.834Y-85.852
X177.834Y-90.352
X184.334Y-85.852
X184.334Y-90.352
X186.834Y-77.852
X186.834Y-82.352
X186.834Y-93.852
X186.834Y-98.352
X193.334Y-77.852
X193.334Y-82.352
X193.334Y-93.852
X193.334Y-98.352
X195.834Y-85.852
X195.834Y-90.352
X202.334Y-85.852
X202.334Y-90.352
T5
X162.39Y-67.166
X168.17Y-67.166
T2
G00X160.96Y-63.816
M15
G01X160.96Y-63.216
M16
G05
G00X160.96Y-68.246
M15
G01X160.96Y-67.146
M16
G05
G00X169.6Y-63.816
M15
G01X169.6Y-63.216
M16
G05
G00X169.6Y-68.246
M15
G01X169.6Y-67.146
M16
G05
T0
M30
